<svg width="258" height="77" viewBox="0 0 258 77" fill="none" xmlns="http://www.w3.org/2000/svg">
<g clip-path="url(#clip0_2425_175)">
<path fill-rule="evenodd" clip-rule="evenodd" d="M52 -1C52 -6.52285 56.4772 -11 62 -11H562C567.523 -11 572 -6.52284 572 -0.999998V79C572 84.5228 567.523 89 562 89H62C56.4772 89 52 84.5228 52 79V57C52 51.4772 47.5228 47 42 47V47C36.4772 47 32 51.4772 32 57V59C32 64.5228 27.5228 69 22 69H-18C-23.5228 69 -28 64.5228 -28 59V19C-28 13.4772 -23.5228 9 -18 9H22C27.5228 9 32 13.4772 32 19V21C32 26.5228 36.4772 31 42 31V31C47.5228 31 52 26.5228 52 21V-1Z" fill="#FFECEC"/>
</g>
<defs>
<clipPath id="clip0_2425_175">
<rect width="258" height="77" fill="white"/>
</clipPath>
</defs>
</svg>
