<svg width="258" height="77" viewBox="0 0 258 77" fill="none" xmlns="http://www.w3.org/2000/svg">
<g clip-path="url(#clip0_2425_175)">
<path fill-rule="evenodd" clip-rule="evenodd" d="M53 -1C53 -6.52285 57.4772 -11 63 -11H563C568.523 -11 573 -6.52284 573 -0.999998V79C573 84.5228 568.523 89 563 89H63C57.4772 89 53 84.5228 53 79V57C53 51.4772 48.5228 47 43 47V47C37.4772 47 33 51.4772 33 57V59C33 64.5228 28.5228 69 23 69H-17C-22.5228 69 -27 64.5228 -27 59V19C-27 13.4772 -22.5228 9 -17 9H23C28.5228 9 33 13.4772 33 19V21C33 26.5228 37.4772 31 43 31V31C48.5228 31 53 26.5228 53 21V-1Z" fill="#E8FDF3"/>
</g>
<defs>
<clipPath id="clip0_2425_175">
<rect width="258" height="77" fill="white"/>
</clipPath>
</defs>
</svg>
