<svg width="59" height="286" viewBox="0 0 59 286" fill="none" xmlns="http://www.w3.org/2000/svg">
<path d="M53 279L43.25 285.062V272.938L53 279Z" fill="#D6DAE7"/>
<path d="M51 1C54.8889 1 58 4.22319 58 8.25217C58 12.2812 54.8889 15.5043 51 15.5043C47.1111 15.5043 44 12.2812 44 8.25217C44 4.22319 47.1111 1 51 1Z" fill="white"/>
<path d="M44 8.25217C44 4.22319 47.1111 1 51 1C54.8889 1 58 4.22319 58 8.25217C58 12.2812 54.8889 15.5043 51 15.5043C47.1111 15.5043 44 12.2812 44 8.25217ZM44 8.25217H4C2.34314 8.25217 1 9.59532 1 11.2522V276C1 277.657 2.34315 279 4 279H53.3333" stroke="#D6DAE7" stroke-width="2"/>
</svg>
