<svg width="49" height="40" viewBox="0 0 49 40" fill="none" xmlns="http://www.w3.org/2000/svg">
<path d="M48.4 0C41.3169 12.1211 34.2332 24.2416 27.15 36.3626C26.5201 37.4329 25.4297 38.1092 24.2 38.2501C22.9703 38.1092 21.8805 37.4324 21.25 36.3626L19.5779 33.5139L24.1871 25.7137L24.2 25.7355L35.2686 6.95227C35.2725 6.94612 35.2764 6.93997 35.2803 6.93327C32.1944 4.62385 28.3578 3.25453 24.2 3.25453C20.0422 3.25453 16.2056 4.6233 13.1197 6.93271C13.1236 6.93886 13.1275 6.945 13.1314 6.95171L23.0057 23.7089L18.3987 31.5051C12.2662 21.0032 6.1331 10.5019 0 0L6.5048 16.3883C6.00901 18.0488 5.74231 19.8066 5.74231 21.6275C5.74231 31.7745 14.0057 40 24.1994 40C34.3932 40 42.6566 31.7745 42.6566 21.6275C42.6566 19.8072 42.3899 18.0488 41.8941 16.3883L48.4 0Z" fill="#F3B351"/>
</svg>
