<svg width="30" height="30" viewBox="0 0 30 30" fill="none" xmlns="http://www.w3.org/2000/svg">
<path d="M29 15C29 7.272 22.728 1 15 1C7.272 1 1 7.272 1 15C1 22.728 7.272 29 15 29" stroke="white" stroke-width="1.5" stroke-linecap="round" stroke-linejoin="round"/>
<path d="M9.40141 2.3999H10.8014C8.07141 10.5759 8.07141 19.4239 10.8014 27.5999H9.40141" stroke="white" stroke-width="1.5" stroke-linecap="round" stroke-linejoin="round"/>
<path d="M19.1992 2.3999C20.5572 6.4879 21.2432 10.7439 21.2432 14.9999" stroke="white" stroke-width="1.5" stroke-linecap="round" stroke-linejoin="round"/>
<path d="M2.39844 20.6V19.2C6.48644 20.558 10.7424 21.244 14.9984 21.244" stroke="white" stroke-width="1.5" stroke-linecap="round" stroke-linejoin="round"/>
<path d="M2.39844 10.7999C10.5744 8.06994 19.4224 8.06994 27.5984 10.7999" stroke="white" stroke-width="1.5" stroke-linecap="round" stroke-linejoin="round"/>
<path d="M25.0923 20.236L20.1363 25.192C19.9403 25.388 19.7583 25.752 19.7163 26.018L19.4503 27.9079C19.3523 28.5939 19.8283 29.0699 20.5143 28.9719L22.4043 28.7059C22.6703 28.6639 23.0483 28.482 23.2303 28.286L28.1863 23.33C29.0403 22.476 29.4463 21.4819 28.1863 20.2219C26.9403 18.9759 25.9463 19.382 25.0923 20.236Z" stroke="white" stroke-width="1.5" stroke-miterlimit="10" stroke-linecap="round" stroke-linejoin="round"/>
<path d="M24.3789 20.95C24.7989 22.462 25.9749 23.6379 27.4869 24.0579" stroke="white" stroke-width="1.5" stroke-miterlimit="10" stroke-linecap="round" stroke-linejoin="round"/>
</svg>
