<svg width="30" height="31" viewBox="0 0 30 31" fill="none" xmlns="http://www.w3.org/2000/svg">
<path d="M16.2902 1.74316L16.2472 1.84356L12.0877 11.4964H7.99995C7.02463 11.4964 6.09233 11.6972 5.24609 12.0558L7.75612 6.06041L7.81349 5.91697L7.91389 5.68749C7.94258 5.60143 7.97126 5.51537 8.01429 5.44366C9.89323 1.09773 12.016 0.10806 16.2902 1.74316Z" stroke="white" stroke-width="1.8" stroke-linecap="round" stroke-linejoin="round"/>
<path d="M24.0193 11.7834C23.3739 11.5826 22.6854 11.4965 21.9969 11.4965H12.0859L16.2454 1.84369L16.2884 1.74329C16.5036 1.815 16.7044 1.9154 16.9195 2.00146L20.0893 3.33536C21.8535 4.06685 23.087 4.82703 23.8329 5.74498C23.9763 5.9171 24.091 6.07487 24.1914 6.26133C24.3205 6.46213 24.4209 6.66293 24.4783 6.87808C24.5357 7.00717 24.5787 7.13625 24.6074 7.251C24.9946 8.45581 24.7651 9.93314 24.0193 11.7834Z" stroke="white" stroke-width="1.8" stroke-linecap="round" stroke-linejoin="round"/>
<path d="M28.9988 18.4961V21.293C28.9988 21.5798 28.9845 21.8667 28.9701 22.1536C28.6976 27.1593 25.9007 29.6836 20.5938 29.6836H9.40628C9.06205 29.6836 8.71782 29.6549 8.38793 29.6119C3.82685 29.3107 1.38854 26.8724 1.08734 22.3113C1.04431 21.9814 1.01562 21.6372 1.01562 21.293V18.4961C1.01562 15.6131 2.76547 13.1318 5.26115 12.0561C6.12173 11.6975 7.03968 11.4967 8.01501 11.4967H22.0138C22.7166 11.4967 23.405 11.5971 24.0361 11.7836C26.8904 12.6585 28.9988 15.3263 28.9988 18.4961Z" stroke="white" stroke-width="1.8" stroke-linecap="round" stroke-linejoin="round"/>
<path d="M7.75555 6.0603L5.24553 12.0557C2.74985 13.1314 1 15.6127 1 18.4957V14.2932C1 10.2198 3.89729 6.82048 7.75555 6.0603Z" stroke="white" stroke-width="1.8" stroke-linecap="round" stroke-linejoin="round"/>
<path d="M28.9939 14.2927V18.4951C28.9939 15.3397 26.8998 12.6575 24.0312 11.797C24.7771 9.93238 24.9922 8.46939 24.6337 7.25024C24.605 7.12115 24.5619 6.99206 24.5046 6.87732C27.1724 8.25425 28.9939 11.0798 28.9939 14.2927Z" stroke="white" stroke-width="1.8" stroke-linecap="round" stroke-linejoin="round"/>
</svg>
