<svg width="30" height="30" viewBox="0 0 30 30" fill="none" xmlns="http://www.w3.org/2000/svg">
<path d="M15 29C22.732 29 29 22.732 29 15C29 7.26801 22.732 1 15 1C7.26801 1 1 7.26801 1 15C1 22.732 7.26801 29 15 29Z" stroke="white" stroke-width="1.8" stroke-linecap="round" stroke-linejoin="round"/>
<path d="M15.0422 21.3C18.5216 21.3 21.3422 18.4793 21.3422 15C21.3422 11.5206 18.5216 8.69995 15.0422 8.69995C11.5628 8.69995 8.74219 11.5206 8.74219 15C8.74219 18.4793 11.5628 21.3 15.0422 21.3Z" stroke="white" stroke-width="1.8" stroke-linecap="round" stroke-linejoin="round"/>
<path d="M5.10156 5.10217L10.0576 10.0442" stroke="white" stroke-width="1.8" stroke-linecap="round" stroke-linejoin="round"/>
<path d="M5.10156 24.8981L10.0576 19.9561" stroke="white" stroke-width="1.8" stroke-linecap="round" stroke-linejoin="round"/>
<path d="M24.913 24.8981L19.957 19.9561" stroke="white" stroke-width="1.8" stroke-linecap="round" stroke-linejoin="round"/>
<path d="M24.913 5.10217L19.957 10.0442" stroke="white" stroke-width="1.8" stroke-linecap="round" stroke-linejoin="round"/>
</svg>
