<svg width="33" height="38" viewBox="0 0 33 38" fill="none" xmlns="http://www.w3.org/2000/svg">
<path d="M2.11902 35.881C3.61105 37.373 6.01986 37.373 7.51189 35.881L30.881 12.5119C32.373 11.0199 32.373 8.61105 30.881 7.11902C29.389 5.62699 26.9801 5.62699 25.4881 7.11902L2.11902 30.4881C0.626993 31.9801 0.626993 34.389 2.11902 35.881Z" stroke="white" stroke-width="1.5" stroke-linecap="round" stroke-linejoin="round"/>
<path d="M28 15L23 10" stroke="white" stroke-width="1.5" stroke-linecap="round" stroke-linejoin="round"/>
<path d="M14 0.88L17 0L16.12 3L17 6L14 5.12L11 6L11.88 3L11 0L14 0.88Z" fill="white"/>
<path d="M4 11.88L7 11L6.12 14L7 17L4 16.12L1 17L1.88 14L1 11L4 11.88Z" fill="white"/>
<path d="M29 31L26 31.88L23 31L23.88 34L23 37L26 36.12L29 37L28.12 34L29 31Z" fill="white"/>
</svg>
