<svg width="86" height="24" viewBox="0 0 86 24" fill="none" xmlns="http://www.w3.org/2000/svg">
<path d="M9.23131 3.82959V10.6453H2.97178V3.82959H0V20.0994H2.97178V13.505H9.23131V20.0994H12.2031V3.82959H9.23131Z" fill="#33475B"/>
<path d="M21.7139 14.8398C21.7139 15.4919 21.4549 16.1172 20.9939 16.5783C20.5328 17.0393 19.9075 17.2984 19.2554 17.2984C18.6034 17.2984 17.978 17.0393 17.517 16.5783C17.0559 16.1172 16.7969 15.4919 16.7969 14.8398V7.87121H13.978V14.8398C13.978 16.2381 14.5335 17.5792 15.5222 18.5679C16.511 19.5567 17.852 20.1122 19.2503 20.1122C20.6486 20.1122 21.9897 19.5567 22.9784 18.5679C23.9672 17.5792 24.5227 16.2381 24.5227 14.8398V7.87121H21.7139V14.8398Z" fill="#33475B"/>
<path d="M42.6001 8.58941C42.6001 7.16103 43.5451 6.7082 44.5803 6.7082C45.4146 6.7082 46.5169 7.34303 47.2376 8.11328L49.0839 5.93795C48.1622 4.69158 46.2926 3.8296 44.7623 3.8296C41.7046 3.8296 39.4929 5.62054 39.4929 8.58941C39.4929 14.0976 46.2256 12.3504 46.2256 15.4328C46.2256 16.3836 45.3025 17.2237 44.2454 17.2237C42.5783 17.2237 42.0381 16.4084 41.2722 15.5464L39.2235 17.6766C40.534 19.2855 42.1502 20.1023 44.0867 20.1023C46.9915 20.1023 49.3285 18.2896 49.3285 15.4561C49.3285 9.34072 42.5957 11.2409 42.5957 8.58941" fill="#33475B"/>
<path d="M84.2517 17.5002C82.586 17.5002 82.1128 16.7795 82.1128 15.6758V10.7907H84.7016V8.31548H82.1128V5.04957L79.2546 6.33235V16.2829C79.2546 18.8281 81.0106 20.1109 83.4189 20.1109C83.7966 20.1178 84.1741 20.0875 84.5459 20.0206L85.2433 17.4536C84.9288 17.4754 84.5677 17.4973 84.2517 17.4973" fill="#33475B"/>
<path d="M32.4442 7.95338C31.0479 7.95338 30.0738 8.35816 29.1317 9.28274V3.92742H26.3085V13.8533C26.3085 17.5691 28.9949 20.1142 32.0132 20.1142C35.3621 20.1142 38.3077 17.5239 38.3077 14.0353C38.3077 10.5903 35.5966 7.95483 32.4442 7.95483V7.95338ZM32.4268 17.2735C31.7932 17.2735 31.1739 17.0856 30.6471 16.7337C30.1203 16.3817 29.7097 15.8814 29.4673 15.2961C29.2248 14.7107 29.1614 14.0667 29.285 13.4453C29.4086 12.8239 29.7137 12.2531 30.1617 11.8051C30.6097 11.3572 31.1804 11.0521 31.8018 10.9285C32.4232 10.8049 33.0673 10.8683 33.6526 11.1108C34.2379 11.3532 34.7382 11.7638 35.0902 12.2906C35.4422 12.8173 35.63 13.4367 35.63 14.0702C35.63 14.9198 35.2926 15.7345 34.6918 16.3353C34.0911 16.936 33.2763 17.2735 32.4268 17.2735Z" fill="#33475B"/>
<path d="M63.0996 13.8861C63.0996 10.3916 60.1599 7.80714 56.8051 7.80714C53.7868 7.80714 51.1004 10.3523 51.1004 14.0681V23.9998H53.9236V18.6372C54.8642 19.5603 55.8398 19.9666 57.2347 19.9666C60.387 19.9666 63.0981 17.3326 63.0981 13.8861H63.0996ZM60.4263 13.8512C60.4263 14.4847 60.2384 15.104 59.8865 15.6308C59.5345 16.1576 59.0342 16.5682 58.4489 16.8106C57.8635 17.0531 57.2195 17.1165 56.5981 16.9929C55.9767 16.8693 55.4059 16.5642 54.958 16.1162C54.51 15.6683 54.2049 15.0975 54.0813 14.4761C53.9577 13.8547 54.0211 13.2106 54.2636 12.6253C54.506 12.04 54.9166 11.5397 55.4434 11.1877C55.9701 10.8357 56.5895 10.6479 57.223 10.6479C58.0726 10.6479 58.8874 10.9854 59.4881 11.5861C60.0888 12.1868 60.4263 13.0016 60.4263 13.8512Z" fill="#33475B"/>
<path d="M72.1909 7.76216V4.95491C72.5618 4.78164 72.876 4.50652 73.0966 4.16161C73.3173 3.8167 73.4354 3.41618 73.4372 3.00673V2.94121C73.4357 2.36899 73.2077 1.82066 72.8031 1.41604C72.3985 1.01142 71.8501 0.783431 71.2779 0.781894H71.2124C70.6402 0.783431 70.0918 1.01142 69.6872 1.41604C69.2826 1.82066 69.0546 2.36899 69.0531 2.94121V3.00673C69.0549 3.41618 69.173 3.8167 69.3937 4.16161C69.6143 4.50652 69.9285 4.78164 70.2995 4.95491V7.76216C69.2328 7.92527 68.2282 8.36729 67.3874 9.04348L59.6791 3.04604C59.734 2.8482 59.7633 2.64416 59.7664 2.43887C59.767 1.95708 59.6247 1.48595 59.3575 1.08503C59.0903 0.684124 58.7103 0.371447 58.2654 0.186543C57.8205 0.00163939 57.3308 -0.0471861 56.8581 0.0462411C56.3855 0.139668 55.9511 0.371152 55.6101 0.711419C55.269 1.05169 55.0365 1.48546 54.9419 1.95787C54.8474 2.43029 54.895 2.92014 55.0788 3.36547C55.2627 3.8108 55.5745 4.19162 55.9747 4.45977C56.375 4.72791 56.8458 4.87134 57.3276 4.87192C57.7508 4.87034 58.1661 4.75735 58.5317 4.54431L66.1104 10.4442C65.4278 11.474 65.0717 12.6858 65.0885 13.9213C65.1054 15.1567 65.4946 16.3583 66.2051 17.3691L63.8987 19.6755C63.7135 19.6166 63.5207 19.5852 63.3265 19.5823C62.9305 19.5823 62.5434 19.6997 62.2142 19.9197C61.885 20.1397 61.6283 20.4524 61.4768 20.8182C61.3253 21.184 61.2856 21.5866 61.3629 21.975C61.4401 22.3633 61.6308 22.7201 61.9108 23C62.1908 23.28 62.5475 23.4707 62.9359 23.548C63.3242 23.6252 63.7268 23.5856 64.0926 23.434C64.4585 23.2825 64.7711 23.0259 64.9911 22.6967C65.2111 22.3674 65.3285 21.9803 65.3285 21.5844C65.3259 21.3901 65.2945 21.1973 65.2353 21.0121L67.517 18.7305C68.2617 19.2994 69.1267 19.6906 70.0457 19.8743C70.9647 20.0579 71.9136 20.0291 72.8198 19.7902C73.726 19.5512 74.5657 19.1083 75.2746 18.4953C75.9836 17.8824 76.5431 17.1155 76.9105 16.2533C77.2779 15.3912 77.4435 14.4564 77.3945 13.5205C77.3456 12.5846 77.0835 11.6722 76.6281 10.853C76.1728 10.0339 75.5364 9.32957 74.7673 8.79389C73.9983 8.25821 73.1171 7.90532 72.1909 7.76216ZM71.2459 16.9964C70.6215 16.9964 70.0112 16.8112 69.4921 16.4644C68.973 16.1175 68.5684 15.6245 68.3295 15.0477C68.0905 14.4709 68.028 13.8362 68.1498 13.2238C68.2716 12.6115 68.5723 12.049 69.0138 11.6076C69.4552 11.1661 70.0177 10.8654 70.63 10.7436C71.2424 10.6218 71.8771 10.6844 72.4539 10.9233C73.0307 11.1622 73.5237 11.5668 73.8706 12.0859C74.2174 12.605 74.4026 13.2153 74.4026 13.8397C74.4026 14.6769 74.07 15.4798 73.478 16.0718C72.886 16.6638 72.0831 16.9964 71.2459 16.9964Z" fill="#FF7A59"/>
</svg>
