<svg width="120" height="28" viewBox="0 0 120 28" fill="none" xmlns="http://www.w3.org/2000/svg">
<path d="M36.9486 18.1938C36.6033 18.2802 36.1716 18.3665 35.74 18.3665C34.8767 18.3665 34.5313 17.8485 34.5313 16.9852V13.1003H36.9486C37.5529 13.1003 38.1572 12.6686 38.1572 11.978C38.1572 11.2873 37.6392 10.8557 36.9486 10.8557H34.5313V9.56073C34.5313 8.78375 33.927 8.26576 33.2364 8.26576C32.5457 8.26576 31.9414 8.87008 31.9414 9.56073V17.0715C31.9414 19.2298 32.9774 20.7837 35.3946 20.7837C36.0853 20.7837 37.0349 20.6974 37.7256 20.3521C38.3299 20.0931 38.5026 19.6614 38.5026 19.2298C38.5026 18.6255 37.8982 18.0212 36.9486 18.1938ZM45.5817 10.5104C45.2364 10.424 44.5457 10.3377 43.9414 10.3377C41.7831 10.3377 40.5745 11.6327 40.5745 13.6183V19.4888C40.5745 20.1794 41.1788 20.7837 41.8695 20.7837C42.5601 20.7837 43.1644 20.1794 43.1644 19.4888V14.1363C43.1644 13.273 43.5098 12.9276 44.1141 12.9276C44.7184 12.9276 45.0637 13.1003 45.5817 13.1003C46.3587 13.1003 46.7903 12.4096 46.7903 11.8917C46.704 11.201 46.3587 10.7694 45.5817 10.5104ZM52.7472 10.3377C50.3299 10.3377 48.6033 11.8917 48.3443 14.3953C48.3443 14.9996 48.258 16.0355 48.3443 16.8125C48.5169 19.2298 50.2436 20.8701 52.8335 20.8701C54.0421 20.8701 55.1644 20.6111 55.8551 20.1794C56.3731 19.8341 56.4594 19.4888 56.4594 19.1435C56.4594 18.4528 55.8551 17.7622 54.8191 18.1075C54.2148 18.3665 53.5241 18.5391 52.8335 18.5391C51.6249 18.5391 50.6752 17.9348 50.6752 16.7262V16.4672H55.5961C56.4594 16.4672 56.891 15.9492 56.891 15.1722V14.7406C56.9774 12.0643 55.2508 10.3377 52.7472 10.3377ZM54.3875 14.7406H50.7616C50.7616 13.4456 51.3659 12.5823 52.7472 12.5823C53.9558 12.5823 54.6464 13.3593 54.5601 14.4816C54.5601 14.6543 54.5601 14.7406 54.3875 14.7406ZM63.1069 10.3377C60.6896 10.3377 58.963 11.8917 58.704 14.3953C58.704 14.9996 58.6177 16.0355 58.704 16.8125C58.8767 19.2298 60.6033 20.8701 63.1932 20.8701C64.4018 20.8701 65.5241 20.6111 66.2148 20.1794C66.7328 19.8341 66.8191 19.4888 66.8191 19.1435C66.8191 18.4528 66.2148 17.7622 65.1788 18.1075C64.5745 18.3665 63.8839 18.5391 63.1932 18.5391C61.9846 18.5391 61.0349 17.9348 61.0349 16.7262V16.4672H65.9558C66.8191 16.4672 67.2508 15.9492 67.2508 15.1722V14.7406C67.3371 12.0643 65.6105 10.3377 63.1069 10.3377ZM64.7472 14.7406H61.1213C61.1213 13.4456 61.7256 12.5823 63.1069 12.5823C64.3155 12.5823 65.0062 13.3593 64.9198 14.4816C64.9198 14.6543 64.9198 14.7406 64.7472 14.7406ZM106.704 14.6543L105.323 14.3089C104.459 14.1363 104.2 13.8773 104.2 13.4456C104.2 13.014 104.632 12.6686 105.582 12.6686C106.1 12.6686 106.704 12.8413 107.222 13.1003C107.826 13.4456 108.517 13.3593 108.862 12.9276C109.294 12.496 109.294 11.719 108.776 11.201C108.085 10.683 106.877 10.3377 105.668 10.3377C103.423 10.3377 101.783 11.46 101.783 13.5319C101.783 15.1722 102.992 16.0355 104.546 16.4672C105.323 16.6399 105.236 16.6399 105.927 16.8125C106.704 16.9852 107.049 17.3305 107.049 17.6758C107.049 18.1938 106.618 18.5391 105.582 18.5391C104.718 18.5391 103.941 18.2802 103.337 17.9348C102.733 17.5032 102.042 17.6758 101.697 18.1938C101.351 18.7118 101.438 19.4025 101.956 19.7478C102.646 20.3521 103.769 20.8701 105.582 20.8701C107.826 20.8701 109.553 19.6614 109.553 17.5895C109.553 16.0355 108.603 15.0859 106.704 14.6543ZM118.704 16.4672C119.567 16.4672 119.999 15.9492 119.999 15.1722V14.7406C119.999 12.0643 118.272 10.3377 115.769 10.3377C113.351 10.3377 111.625 11.8917 111.366 14.3953C111.366 14.9996 111.28 16.0355 111.366 16.8125C111.539 19.2298 113.265 20.8701 115.855 20.8701C117.064 20.8701 118.186 20.6111 118.877 20.1794C119.395 19.8341 119.481 19.4888 119.481 19.1435C119.481 18.4528 118.877 17.7622 117.841 18.1075C117.236 18.3665 116.546 18.5391 115.855 18.5391C114.646 18.5391 113.697 17.9348 113.697 16.7262V16.4672H118.704ZM115.769 12.5823C116.977 12.5823 117.668 13.3593 117.582 14.4816C117.582 14.6543 117.495 14.7406 117.409 14.7406H113.783C113.783 13.4456 114.474 12.5823 115.769 12.5823ZM84.1716 10.3377C81.5817 10.3377 79.6824 11.978 79.4234 14.2226C79.3371 14.9996 79.3371 16.2082 79.4234 16.9852C79.5961 19.2298 81.5817 20.8701 84.1716 20.8701C86.7616 20.8701 88.6608 19.2298 88.8335 16.9852C88.9198 16.2082 88.9198 15.0859 88.8335 14.3089C88.6608 11.978 86.7616 10.3377 84.1716 10.3377ZM86.2436 16.5535C86.1572 17.6758 85.3803 18.3665 84.1716 18.3665C82.963 18.3665 82.186 17.5895 82.0997 16.5535C82.0997 16.0355 82.0997 15.1722 82.0997 14.6543C82.186 13.5319 82.963 12.8413 84.1716 12.8413C85.3803 12.8413 86.1572 13.6183 86.2436 14.6543C86.3299 15.1722 86.3299 16.0355 86.2436 16.5535ZM73.8982 10.3377C72.9486 10.3377 71.9126 10.683 71.5673 11.1147V8.35209C71.5673 7.57511 71.0493 7.05713 70.3587 7.05713C69.668 7.05713 69.15 7.66145 69.15 8.35209V19.4888C69.15 20.1794 69.7544 20.7837 70.445 20.7837C71.1357 20.7837 71.6536 20.1794 71.6536 19.4888V13.7046C72.0853 13.273 72.7759 12.9276 73.6393 12.9276C74.6752 12.9276 75.2795 13.5319 75.2795 14.7406V19.4888C75.2795 20.2658 75.7975 20.8701 76.4882 20.8701C77.2651 20.8701 77.7831 20.2658 77.7831 19.4888V14.5679C77.6968 11.8053 76.3155 10.3377 73.8982 10.3377ZM98.0709 10.424C97.3803 10.424 96.7759 11.0284 96.7759 11.719V17.8485C96.3443 18.1075 95.74 18.3665 94.963 18.3665C93.927 18.3665 93.15 17.7622 93.15 16.5535V11.719C93.15 10.942 92.5457 10.3377 91.8551 10.3377C91.0781 10.3377 90.6464 10.942 90.6464 11.719V16.6399C90.6464 19.3161 92.2004 20.7837 94.8767 20.7837C96.8623 20.7837 98.2436 20.0931 98.8479 19.6614C99.1932 19.4888 99.2795 19.2298 99.2795 18.7981V11.719C99.2795 11.0284 98.7616 10.424 98.0709 10.424Z" fill="#030611"/>
<path d="M22.446 5.07194C21.4964 4.55396 20.0288 5.41727 19.1655 6.97122L17.5252 9.73382C16.9209 10.8561 17.0072 12.2374 17.7842 13.3597L17.8705 13.446C18.6475 14.482 19.5971 15.518 19.9424 15.8633C20.1151 16.036 20.2878 16.295 20.3741 16.6403C20.6331 17.5899 20.1151 18.6259 19.0791 18.8849C18.1295 19.1439 17.0935 18.6259 16.8345 17.5899C16.7482 17.3309 16.7482 17.0719 16.7482 16.8993C16.8345 16.4676 16.6619 15.8633 16.0576 15.1727C15.4532 14.5683 14.3309 15.777 13.8993 16.9856V17.0719C13.554 18.2806 13.295 19.4029 13.3813 19.4892C13.3813 19.5755 13.4676 19.5755 13.4676 19.6619C13.9856 20.6978 13.6403 21.9065 12.6043 22.4245C11.5683 22.9424 10.3597 22.5971 9.84173 21.5612C9.32374 20.5252 9.66906 19.3165 10.705 18.7986C10.7914 18.7986 10.7914 18.7122 10.8777 18.7122C10.964 18.7122 11.1367 18.1942 11.3957 17.5036C11.5683 16.8993 11.6547 16.6403 11.741 16.3813C11.8273 16.036 12 15.1727 11.9137 14.8273C11.8273 14.3957 11.3957 14.3957 10.964 14.6547C10.705 14.8273 10.1871 15.259 10.0144 15.4317C9.58273 15.777 9.23741 16.295 9.06475 16.7266C8.97842 16.8993 8.80576 17.1583 8.63309 17.3309C7.85612 17.9353 6.73381 17.8489 6.04317 17.0719C5.43885 16.295 5.52518 15.1727 6.30216 14.482C6.56115 14.3094 6.82014 14.1367 7.07914 14.1367C7.51079 14.0504 9.06475 13.1007 10.0144 12.4101C10.1871 12.3237 10.446 12.0648 10.5324 11.9784C10.7914 11.6331 10.5324 11.3741 10.2734 11.3741C9.4964 11.4604 8.63309 11.5468 8.46043 11.8058C8.3741 11.8921 8.28777 12.0648 8.11511 12.1511C7.42446 12.6691 6.38849 12.4964 5.8705 11.8058C5.35252 11.1151 5.52518 10.0791 6.21583 9.56115C6.47482 9.30216 6.90648 9.21583 7.16547 9.21583C7.76978 9.21583 9.32374 9.56115 10.5324 9.30216L10.8777 9.21583C12.1727 8.95684 13.7266 7.83453 14.3309 6.71223C14.3309 6.71223 14.9353 5.67626 15.6259 4.3813C16.4029 3.08633 16.3165 1.61871 15.5396 1.18705L14.0719 0.323741C13.295 -0.107914 12.1727 -0.107914 11.3957 0.323741L1.3813 6.02158C0.604317 6.45324 0 7.48921 0 8.35252V19.4029C0 20.2662 0.604317 21.3022 1.3813 21.7338L11.3957 27.4317C12.1727 27.8633 13.3813 27.8633 14.0719 27.4317L24.0863 21.7338C24.8633 21.3022 25.4676 20.2662 25.4676 19.4029V8.35252C25.4676 7.48921 24.8633 6.45324 24.0863 6.02158C24.0863 6.02158 23.3957 5.58993 22.446 5.07194Z" fill="#5FCF80"/>
</svg>
