<svg width="100" height="23" viewBox="0 0 100 23" fill="none" xmlns="http://www.w3.org/2000/svg">
<path d="M24.4361 16.3986C24.3923 16.6392 24.2807 16.8623 24.1146 17.0417L18.9701 22.1862C18.949 22.2284 18.9197 22.2661 18.8841 22.297C18.8484 22.328 18.807 22.3516 18.7622 22.3665C18.7174 22.3814 18.6702 22.3874 18.6231 22.384C18.576 22.3807 18.53 22.3681 18.4878 22.347C18.4456 22.3259 18.4079 22.2967 18.377 22.261C18.346 22.2253 18.3224 22.1839 18.3075 22.1391C18.2926 22.0943 18.2866 22.0471 18.29 22C18.2933 21.9529 18.3059 21.9069 18.327 21.8647V10.6111L24.4361 4.50195V16.3986Z" fill="#E34B5F"/>
<path d="M20.2571 0.321532C20.2571 0.236257 20.2232 0.154474 20.1629 0.0941746C20.1026 0.0338756 20.0208 0 19.9355 0C19.8502 0 19.7685 0.0338756 19.7082 0.0941746C19.6479 0.154474 19.614 0.236257 19.614 0.321532L12.2188 8.03831V16.7197L18.3279 10.6106L24.437 4.50145L20.2571 0.321532Z" fill="#E7CE9C"/>
<path d="M0 16.3986C0.0438658 16.6392 0.155402 16.8623 0.321532 17.0417L5.46605 22.1862C5.50869 22.2715 5.58345 22.3363 5.6739 22.3665C5.76435 22.3966 5.86307 22.3896 5.94835 22.347C6.03362 22.3043 6.09847 22.2296 6.12862 22.1391C6.15876 22.0487 6.15175 21.95 6.10911 21.8647V10.6111L0 4.50195V16.3986Z" fill="#1E7889"/>
<path d="M4.82298 0.321532C4.82298 0.236257 4.78911 0.154474 4.72881 0.0941746C4.66851 0.0338756 4.58673 0 4.50145 0C4.41617 0 4.33439 0.0338756 4.27409 0.0941746C4.21379 0.154474 4.17992 0.236257 4.17992 0.321532L0 4.50145L6.10911 10.6106L12.2182 16.7197V8.03831L4.82298 0.321532Z" fill="#97BAA6"/>
<path d="M32.1523 16.3984V5.14479H35.0461V6.43092C35.361 5.87318 35.8353 5.42219 36.4081 5.13576C36.981 4.84933 37.6263 4.74051 38.2615 4.82326C38.8691 4.86831 39.4549 5.06959 39.9619 5.40759C40.4689 5.74559 40.8799 6.20885 41.1552 6.75245C42.4414 5.46632 43.406 4.82326 44.6921 4.82326C47.2644 4.82326 48.872 6.10938 48.872 9.00317V16.3984H45.6567V10.2893C45.6567 8.68164 45.3352 8.03858 44.049 8.03858C42.7629 8.03858 42.1198 8.68164 42.1198 10.2893V16.3984H38.583V10.2893C38.583 8.68164 38.2615 8.03858 37.2969 8.03858C36.3323 8.03858 35.3677 8.68164 35.3677 10.2893V16.3984H32.1523ZM52.7304 6.43092C53.5822 5.62964 54.646 5.08968 55.7956 4.87516C56.9452 4.66063 58.1322 4.78057 59.2156 5.22071C60.299 5.66085 61.2334 6.40271 61.9077 7.35818C62.5819 8.31364 62.9678 9.44255 63.0194 10.6108C63.0426 11.3794 62.9123 12.1449 62.6363 12.8626C62.3603 13.5803 61.944 14.2358 61.4118 14.7908C60.8481 15.4218 60.1529 15.9216 59.3752 16.2549C58.5974 16.5883 57.756 16.747 56.9103 16.7199C56.1152 16.7217 55.3293 16.5501 54.6074 16.2169C53.8854 15.8837 53.2449 15.397 52.7304 14.7908C52.1982 14.2358 51.7819 13.5803 51.5059 12.8626C51.2299 12.1449 51.0996 11.3794 51.1227 10.6108C51.0996 9.84225 51.2299 9.07676 51.5059 8.35907C51.7819 7.64139 52.1982 6.98591 52.7304 6.43092ZM56.9103 13.5046C57.6778 13.5046 58.4139 13.1997 58.9565 12.6571C59.4992 12.1144 59.8041 11.3783 59.8041 10.6108C59.8041 9.88599 59.5162 9.19084 59.0036 8.67829C58.4911 8.16575 57.7959 7.87781 57.0711 7.87781C56.3462 7.87781 55.6511 8.16575 55.1385 8.67829C54.626 9.19084 54.3381 9.88599 54.3381 10.6108C54.3336 11.3257 54.594 12.0169 55.069 12.5513C55.5439 13.0856 56.1998 13.4252 56.9103 13.5046ZM65.2702 16.3984V5.14479H68.4855V6.43092C69.1285 5.46632 70.0931 4.82326 71.7008 4.82326C73.9515 4.82326 75.5592 6.43092 75.5592 9.00317V16.3984H72.3439V10.2893C72.3439 8.68164 72.0223 8.03858 70.7362 8.03858C69.4501 8.03858 68.4855 8.68164 68.4855 10.2893V16.3984H65.2702ZM89.7066 6.43092C90.5584 5.62964 91.6222 5.08968 92.7718 4.87516C93.9214 4.66063 95.1084 4.78057 96.1918 5.22071C97.2753 5.66085 98.2096 6.40271 98.8839 7.35818C99.5581 8.31364 99.944 9.44255 99.9956 10.6108C100.019 11.3794 99.8885 12.1449 99.6125 12.8626C99.3365 13.5803 98.9202 14.2358 98.388 14.7908C97.8603 15.3812 97.2171 15.857 96.4981 16.1888C95.7791 16.5207 94.9997 16.7014 94.2081 16.7199C93.3594 16.7706 92.5106 16.6226 91.7292 16.2877C90.9478 15.9528 90.2552 15.4402 89.7066 14.7908C89.1744 14.2358 88.7581 13.5803 88.4821 12.8626C88.2061 12.1449 88.0758 11.3794 88.0989 10.6108C88.0758 9.84225 88.2061 9.07676 88.4821 8.35907C88.7581 7.64139 89.1744 6.98591 89.7066 6.43092ZM94.2081 13.5046C94.9185 13.4252 95.5745 13.0856 96.0494 12.5513C96.5244 12.0169 96.7847 11.3257 96.7803 10.6108C96.7803 9.88599 96.4924 9.19084 95.9798 8.67829C95.4673 8.16575 94.7721 7.87781 94.0473 7.87781C93.3224 7.87781 92.6273 8.16575 92.1147 8.67829C91.6022 9.19084 91.3143 9.88599 91.3143 10.6108C91.3143 11.3783 91.6192 12.1144 92.1618 12.6571C92.7045 13.1997 93.4406 13.5046 94.2081 13.5046ZM78.1314 16.3984V14.1477L82.6329 8.03858H78.1314V5.14479H86.4913V7.71704L82.3114 13.5046H86.4913V16.3984H78.1314Z" fill="#171718"/>
</svg>
