<svg width="144" height="50" viewBox="0 0 144 50" fill="none" xmlns="http://www.w3.org/2000/svg">
<path d="M60.5 0C51.6461 15.1513 42.7915 30.3019 33.9376 45.4533C33.1501 46.7912 31.7871 47.6365 30.25 47.8126C28.7129 47.6365 27.3506 46.7905 26.5624 45.4533L24.4723 41.8923L30.2339 32.1422L30.25 32.1694L44.0857 8.69034C44.0906 8.68265 44.0955 8.67497 44.1004 8.66658C40.243 5.77982 35.4472 4.06816 30.25 4.06816C25.0528 4.06816 20.257 5.77912 16.3996 8.66588C16.4045 8.67357 16.4094 8.68125 16.4143 8.68964L28.7572 29.6362L22.9984 39.3814C15.3327 26.2541 7.66638 13.1274 0 0L8.131 20.4854C7.51126 22.5611 7.17788 24.7583 7.17788 27.0344C7.17788 39.7182 17.5071 50 30.2493 50C42.9915 50 53.3207 39.7182 53.3207 27.0344C53.3207 24.759 52.9873 22.5611 52.3676 20.4854L60.5 0Z" fill="#F3B351"/>
<path d="M76.46 26L71.65 7.8H75.212L78.488 22.282L82.336 7.8H86.002L89.746 22.282L93.022 7.8H96.61L91.67 26H87.718L84.104 12.506L80.386 26H76.46ZM99.0219 26V7.8H110.904V10.478H102.35V15.47H110.124V18.07H102.35V23.322H110.904V26H99.0219ZM118.291 26V10.478H112.987V7.8H126.949V10.478H121.619V26H118.291ZM126.315 26L132.971 7.8H136.715L143.371 26H139.835L138.379 21.788H131.281L129.799 26H126.315ZM132.191 19.188H137.469L134.817 11.622L132.191 19.188Z" fill="#010915"/>
<path d="M71.364 46L74.976 36.2H76.6L80.184 46H78.616L77.776 43.606H73.772L72.932 46H71.364ZM74.192 42.43H77.356L75.774 37.964L74.192 42.43ZM85.2461 46.168C84.3221 46.168 83.5148 45.958 82.8241 45.538C82.1334 45.118 81.5968 44.53 81.2141 43.774C80.8314 43.018 80.6401 42.136 80.6401 41.128C80.6401 40.1293 80.8361 39.2473 81.2281 38.482C81.6201 37.7167 82.1754 37.1193 82.8941 36.69C83.6221 36.2513 84.4808 36.032 85.4701 36.032C86.5901 36.032 87.5234 36.3027 88.2701 36.844C89.0168 37.3853 89.5021 38.132 89.7261 39.084H88.0461C87.8968 38.5613 87.6028 38.1507 87.1641 37.852C86.7254 37.5533 86.1608 37.404 85.4701 37.404C84.4434 37.404 83.6361 37.7353 83.0481 38.398C82.4601 39.0607 82.1661 39.9753 82.1661 41.142C82.1661 42.3087 82.4554 43.2187 83.0341 43.872C83.6128 44.5253 84.3828 44.852 85.3441 44.852C86.3148 44.852 87.0428 44.5767 87.5281 44.026C88.0228 43.4753 88.3121 42.7427 88.3961 41.828H85.7361V40.68H89.8941V46H88.5361L88.4101 44.558C88.0834 45.0713 87.6728 45.468 87.1781 45.748C86.6834 46.028 86.0394 46.168 85.2461 46.168ZM91.6952 46V36.2H97.9252V37.404H93.1792V40.456H97.5052V41.632H93.1792V44.796H97.9252V46H91.6952ZM99.6932 46V36.2H101.177L106.091 43.578V36.2H107.575V46H106.091L101.177 38.622V46H99.6932ZM113.932 46.168C112.962 46.168 112.122 45.958 111.412 45.538C110.712 45.1087 110.171 44.516 109.788 43.76C109.406 42.9947 109.214 42.1127 109.214 41.114C109.214 40.106 109.406 39.224 109.788 38.468C110.171 37.7027 110.712 37.1053 111.412 36.676C112.122 36.2467 112.962 36.032 113.932 36.032C115.08 36.032 116.018 36.312 116.746 36.872C117.474 37.432 117.936 38.216 118.132 39.224H116.48C116.35 38.6547 116.07 38.202 115.64 37.866C115.211 37.53 114.637 37.362 113.918 37.362C112.938 37.362 112.164 37.698 111.594 38.37C111.025 39.0327 110.74 39.9473 110.74 41.114C110.74 42.2713 111.025 43.1813 111.594 43.844C112.164 44.5067 112.938 44.838 113.918 44.838C114.637 44.838 115.211 44.6793 115.64 44.362C116.07 44.0447 116.35 43.6107 116.48 43.06H118.132C117.936 44.0307 117.474 44.7913 116.746 45.342C116.018 45.8927 115.08 46.168 113.932 46.168ZM121.777 46V42.388L118.529 36.2H120.209L122.519 40.932L124.815 36.2H126.481L123.261 42.388V46H121.777ZM130.38 46.168C129.662 46.168 129.032 46.042 128.49 45.79C127.949 45.538 127.524 45.1787 127.216 44.712C126.918 44.2453 126.764 43.69 126.754 43.046H128.322C128.332 43.5687 128.514 44.012 128.868 44.376C129.223 44.74 129.722 44.922 130.366 44.922C130.936 44.922 131.379 44.7867 131.696 44.516C132.023 44.236 132.186 43.8813 132.186 43.452C132.186 43.1067 132.107 42.8267 131.948 42.612C131.799 42.3973 131.589 42.22 131.318 42.08C131.057 41.94 130.754 41.814 130.408 41.702C130.063 41.59 129.699 41.4687 129.316 41.338C128.56 41.086 127.991 40.7593 127.608 40.358C127.235 39.9567 127.048 39.4293 127.048 38.776C127.039 38.2253 127.165 37.7447 127.426 37.334C127.697 36.9233 128.07 36.606 128.546 36.382C129.032 36.1487 129.596 36.032 130.24 36.032C130.875 36.032 131.43 36.1487 131.906 36.382C132.392 36.6153 132.77 36.942 133.04 37.362C133.311 37.7727 133.451 38.2533 133.46 38.804H131.892C131.892 38.552 131.827 38.314 131.696 38.09C131.566 37.8567 131.374 37.6653 131.122 37.516C130.87 37.3667 130.562 37.292 130.198 37.292C129.732 37.2827 129.344 37.3993 129.036 37.642C128.738 37.8847 128.588 38.2207 128.588 38.65C128.588 39.0327 128.7 39.3267 128.924 39.532C129.148 39.7373 129.456 39.91 129.848 40.05C130.24 40.1807 130.688 40.3347 131.192 40.512C131.678 40.6707 132.112 40.862 132.494 41.086C132.877 41.31 133.18 41.604 133.404 41.968C133.638 42.332 133.754 42.794 133.754 43.354C133.754 43.8487 133.628 44.3107 133.376 44.74C133.124 45.16 132.746 45.5053 132.242 45.776C131.738 46.0373 131.118 46.168 130.38 46.168ZM135.377 46V36.2H138.807C139.572 36.2 140.207 36.3307 140.711 36.592C141.215 36.844 141.588 37.194 141.831 37.642C142.083 38.0807 142.209 38.58 142.209 39.14C142.209 39.672 142.087 40.162 141.845 40.61C141.611 41.0487 141.243 41.3987 140.739 41.66C140.235 41.9213 139.591 42.052 138.807 42.052H136.861V46H135.377ZM136.861 40.834H138.737C139.437 40.834 139.936 40.6847 140.235 40.386C140.543 40.078 140.697 39.6627 140.697 39.14C140.697 38.5987 140.543 38.1787 140.235 37.88C139.936 37.572 139.437 37.418 138.737 37.418H136.861V40.834Z" fill="#888899"/>
</svg>
