<svg width="143" height="50" viewBox="0 0 143 50" fill="none" xmlns="http://www.w3.org/2000/svg">
<path d="M75.2 22L71.5 8H74.24L76.76 19.14L79.72 8H82.54L85.42 19.14L87.94 8H90.7L86.9 22H83.86L81.08 11.62L78.22 22H75.2ZM92.5553 22V8H101.695V10.06H95.1153V13.9H101.095V15.9H95.1153V19.94H101.695V22H92.5553ZM107.378 22V10.06H103.298V8H114.038V10.06H109.938V22H107.378ZM113.55 22L118.67 8H121.55L126.67 22H123.95L122.83 18.76H117.37L116.23 22H113.55ZM118.07 16.76H122.13L120.09 10.94L118.07 16.76Z" fill="#010915"/>
<path d="M71.364 42L74.976 32.2H76.6L80.184 42H78.616L77.776 39.606H73.772L72.932 42H71.364ZM74.192 38.43H77.356L75.774 33.964L74.192 38.43ZM85.2461 42.168C84.3221 42.168 83.5148 41.958 82.8241 41.538C82.1334 41.118 81.5968 40.53 81.2141 39.774C80.8314 39.018 80.6401 38.136 80.6401 37.128C80.6401 36.1293 80.8361 35.2473 81.2281 34.482C81.6201 33.7167 82.1754 33.1193 82.8941 32.69C83.6221 32.2513 84.4808 32.032 85.4701 32.032C86.5901 32.032 87.5234 32.3027 88.2701 32.844C89.0168 33.3853 89.5021 34.132 89.7261 35.084H88.0461C87.8968 34.5613 87.6028 34.1507 87.1641 33.852C86.7254 33.5533 86.1608 33.404 85.4701 33.404C84.4434 33.404 83.6361 33.7353 83.0481 34.398C82.4601 35.0607 82.1661 35.9753 82.1661 37.142C82.1661 38.3087 82.4554 39.2187 83.0341 39.872C83.6128 40.5253 84.3828 40.852 85.3441 40.852C86.3148 40.852 87.0428 40.5767 87.5281 40.026C88.0228 39.4753 88.3121 38.7427 88.3961 37.828H85.7361V36.68H89.8941V42H88.5361L88.4101 40.558C88.0834 41.0713 87.6728 41.468 87.1781 41.748C86.6834 42.028 86.0394 42.168 85.2461 42.168ZM91.6952 42V32.2H97.9252V33.404H93.1792V36.456H97.5052V37.632H93.1792V40.796H97.9252V42H91.6952ZM99.6932 42V32.2H101.177L106.091 39.578V32.2H107.575V42H106.091L101.177 34.622V42H99.6932ZM113.932 42.168C112.962 42.168 112.122 41.958 111.412 41.538C110.712 41.1087 110.171 40.516 109.788 39.76C109.406 38.9947 109.214 38.1127 109.214 37.114C109.214 36.106 109.406 35.224 109.788 34.468C110.171 33.7027 110.712 33.1053 111.412 32.676C112.122 32.2467 112.962 32.032 113.932 32.032C115.08 32.032 116.018 32.312 116.746 32.872C117.474 33.432 117.936 34.216 118.132 35.224H116.48C116.35 34.6547 116.07 34.202 115.64 33.866C115.211 33.53 114.637 33.362 113.918 33.362C112.938 33.362 112.164 33.698 111.594 34.37C111.025 35.0327 110.74 35.9473 110.74 37.114C110.74 38.2713 111.025 39.1813 111.594 39.844C112.164 40.5067 112.938 40.838 113.918 40.838C114.637 40.838 115.211 40.6793 115.64 40.362C116.07 40.0447 116.35 39.6107 116.48 39.06H118.132C117.936 40.0307 117.474 40.7913 116.746 41.342C116.018 41.8927 115.08 42.168 113.932 42.168ZM121.777 42V38.388L118.529 32.2H120.209L122.519 36.932L124.815 32.2H126.481L123.261 38.388V42H121.777ZM130.38 42.168C129.662 42.168 129.032 42.042 128.49 41.79C127.949 41.538 127.524 41.1787 127.216 40.712C126.918 40.2453 126.764 39.69 126.754 39.046H128.322C128.332 39.5687 128.514 40.012 128.868 40.376C129.223 40.74 129.722 40.922 130.366 40.922C130.936 40.922 131.379 40.7867 131.696 40.516C132.023 40.236 132.186 39.8813 132.186 39.452C132.186 39.1067 132.107 38.8267 131.948 38.612C131.799 38.3973 131.589 38.22 131.318 38.08C131.057 37.94 130.754 37.814 130.408 37.702C130.063 37.59 129.699 37.4687 129.316 37.338C128.56 37.086 127.991 36.7593 127.608 36.358C127.235 35.9567 127.048 35.4293 127.048 34.776C127.039 34.2253 127.165 33.7447 127.426 33.334C127.697 32.9233 128.07 32.606 128.546 32.382C129.032 32.1487 129.596 32.032 130.24 32.032C130.875 32.032 131.43 32.1487 131.906 32.382C132.392 32.6153 132.77 32.942 133.04 33.362C133.311 33.7727 133.451 34.2533 133.46 34.804H131.892C131.892 34.552 131.827 34.314 131.696 34.09C131.566 33.8567 131.374 33.6653 131.122 33.516C130.87 33.3667 130.562 33.292 130.198 33.292C129.732 33.2827 129.344 33.3993 129.036 33.642C128.738 33.8847 128.588 34.2207 128.588 34.65C128.588 35.0327 128.7 35.3267 128.924 35.532C129.148 35.7373 129.456 35.91 129.848 36.05C130.24 36.1807 130.688 36.3347 131.192 36.512C131.678 36.6707 132.112 36.862 132.494 37.086C132.877 37.31 133.18 37.604 133.404 37.968C133.638 38.332 133.754 38.794 133.754 39.354C133.754 39.8487 133.628 40.3107 133.376 40.74C133.124 41.16 132.746 41.5053 132.242 41.776C131.738 42.0373 131.118 42.168 130.38 42.168ZM135.377 42V32.2H138.807C139.572 32.2 140.207 32.3307 140.711 32.592C141.215 32.844 141.588 33.194 141.831 33.642C142.083 34.0807 142.209 34.58 142.209 35.14C142.209 35.672 142.087 36.162 141.845 36.61C141.611 37.0487 141.243 37.3987 140.739 37.66C140.235 37.9213 139.591 38.052 138.807 38.052H136.861V42H135.377ZM136.861 36.834H138.737C139.437 36.834 139.936 36.6847 140.235 36.386C140.543 36.078 140.697 35.6627 140.697 35.14C140.697 34.5987 140.543 34.1787 140.235 33.88C139.936 33.572 139.437 33.418 138.737 33.418H136.861V36.834Z" fill="#888899"/>
<path d="M60.5 0C51.6461 15.1513 42.7915 30.3019 33.9376 45.4533C33.1501 46.7912 31.7871 47.6365 30.25 47.8126C28.7129 47.6365 27.3506 46.7905 26.5624 45.4533L24.4723 41.8923L30.2339 32.1422L30.25 32.1694L44.0857 8.69034C44.0906 8.68265 44.0955 8.67497 44.1004 8.66658C40.243 5.77982 35.4472 4.06816 30.25 4.06816C25.0528 4.06816 20.257 5.77912 16.3996 8.66588C16.4045 8.67357 16.4094 8.68125 16.4143 8.68964L28.7572 29.6362L22.9984 39.3814C15.3327 26.2541 7.66638 13.1274 0 0L8.131 20.4854C7.51126 22.5611 7.17788 24.7583 7.17788 27.0344C7.17788 39.7182 17.5071 50 30.2493 50C42.9915 50 53.3207 39.7182 53.3207 27.0344C53.3207 24.759 52.9873 22.5611 52.3676 20.4854L60.5 0Z" fill="#7341F1"/>
</svg>
