<svg width="16" height="22" viewBox="0 0 16 22" fill="none" xmlns="http://www.w3.org/2000/svg">
<g opacity="0.6">
<path d="M7.87849 9.95507C7.77753 9.94498 7.65638 9.94498 7.54533 9.95507C5.1425 9.87431 3.23438 7.9056 3.23438 5.48258C3.23437 3.00909 5.23337 1 7.71696 1C10.1905 1 12.1995 3.00909 12.1995 5.48258C12.1894 7.9056 10.2813 9.87431 7.87849 9.95507Z" stroke="#1A1C1F" stroke-width="1.5" stroke-linecap="round" stroke-linejoin="round"/>
<path d="M2.83241 13.6806C0.389197 15.3161 0.389197 17.9814 2.83241 19.6069C5.60878 21.4645 10.162 21.4645 12.9384 19.6069C15.3816 17.9713 15.3816 15.306 12.9384 13.6806C10.1721 11.833 5.61888 11.833 2.83241 13.6806Z" stroke="#1A1C1F" stroke-width="1.5" stroke-linecap="round" stroke-linejoin="round"/>
</g>
</svg>
