<svg width="63" height="64" viewBox="0 0 63 64" fill="none" xmlns="http://www.w3.org/2000/svg">
<g filter="url(#filter0_d_187_3475)">
<path d="M9.6535 49.8361H3V2H60V49.8406H58.6876C47.9407 49.8406 37.1915 49.8475 26.4446 49.827C25.6679 49.827 25.0206 50.0063 24.3666 50.4396C19.8759 53.4003 15.3651 56.3269 10.861 59.2627C10.524 59.4827 10.1735 59.6824 9.6535 60V49.8361Z" fill="white"/>
</g>
<path opacity="0.5" d="M20.1333 38L15.4889 34.5093C17.6889 32.2623 19.1148 30.1759 19.7667 28.25C20.5 26.2438 20.8667 24.2778 20.8667 22.3519L23.9222 24.2778H15V12H27.4667V20.6667C27.4667 23.8765 26.937 26.8858 25.8778 29.6944C24.8185 32.5031 22.9037 35.2716 20.1333 38ZM40.6667 38L36.0222 34.5093C38.2222 32.2623 39.6481 30.1759 40.3 28.25C41.0333 26.2438 41.4 24.2778 41.4 22.3519L44.4556 24.2778H35.5333V12H48V20.6667C48 23.8765 47.4704 26.8858 46.4111 29.6944C45.3519 32.5031 43.437 35.2716 40.6667 38Z" fill="#010915"/>
<defs>
<filter id="filter0_d_187_3475" x="0" y="0" width="63" height="64" filterUnits="userSpaceOnUse" color-interpolation-filters="sRGB">
<feFlood flood-opacity="0" result="BackgroundImageFix"/>
<feColorMatrix in="SourceAlpha" type="matrix" values="0 0 0 0 0 0 0 0 0 0 0 0 0 0 0 0 0 0 127 0" result="hardAlpha"/>
<feOffset dy="1"/>
<feGaussianBlur stdDeviation="1.5"/>
<feComposite in2="hardAlpha" operator="out"/>
<feColorMatrix type="matrix" values="0 0 0 0 0 0 0 0 0 0 0 0 0 0 0 0 0 0 0.14 0"/>
<feBlend mode="normal" in2="BackgroundImageFix" result="effect1_dropShadow_187_3475"/>
<feBlend mode="normal" in="SourceGraphic" in2="effect1_dropShadow_187_3475" result="shape"/>
</filter>
</defs>
</svg>
