<svg width="1920" height="1003" viewBox="0 0 1920 1003" fill="none" xmlns="http://www.w3.org/2000/svg">
<mask id="mask0_1335_53" style="mask-type:alpha" maskUnits="userSpaceOnUse" x="0" y="0" width="1920" height="1003">
<rect width="1920" height="1003" fill="#D9D9D9"/>
</mask>
<g mask="url(#mask0_1335_53)">
<g opacity="0.3">
<path d="M810 758C810 759.657 808.657 761 807 761C805.343 761 804 759.657 804 758C804 756.343 805.343 755 807 755C808.657 755 810 756.343 810 758Z" fill="#7562E0"/>
<path d="M828 758C828 759.657 826.657 761 825 761C823.343 761 822 759.657 822 758C822 756.343 823.343 755 825 755C826.657 755 828 756.343 828 758Z" fill="#7562E0"/>
<path d="M846 758C846 759.657 844.657 761 843 761C841.343 761 840 759.657 840 758C840 756.343 841.343 755 843 755C844.657 755 846 756.343 846 758Z" fill="#7562E0"/>
<path d="M864 758C864 759.657 862.657 761 861 761C859.343 761 858 759.657 858 758C858 756.343 859.343 755 861 755C862.657 755 864 756.343 864 758Z" fill="#7562E0"/>
<path d="M882 758C882 759.657 880.657 761 879 761C877.343 761 876 759.657 876 758C876 756.343 877.343 755 879 755C880.657 755 882 756.343 882 758Z" fill="#7562E0"/>
<path d="M900 758C900 759.657 898.657 761 897 761C895.343 761 894 759.657 894 758C894 756.343 895.343 755 897 755C898.657 755 900 756.343 900 758Z" fill="#7562E0"/>
<path d="M918 758C918 759.657 916.657 761 915 761C913.343 761 912 759.657 912 758C912 756.343 913.343 755 915 755C916.657 755 918 756.343 918 758Z" fill="#7562E0"/>
<path d="M936 758C936 759.657 934.657 761 933 761C931.343 761 930 759.657 930 758C930 756.343 931.343 755 933 755C934.657 755 936 756.343 936 758Z" fill="#7562E0"/>
<path d="M954 758C954 759.657 952.657 761 951 761C949.343 761 948 759.657 948 758C948 756.343 949.343 755 951 755C952.657 755 954 756.343 954 758Z" fill="#7562E0"/>
<path d="M972 758C972 759.657 970.657 761 969 761C967.343 761 966 759.657 966 758C966 756.343 967.343 755 969 755C970.657 755 972 756.343 972 758Z" fill="#7562E0"/>
<path d="M990 758C990 759.657 988.657 761 987 761C985.343 761 984 759.657 984 758C984 756.343 985.343 755 987 755C988.657 755 990 756.343 990 758Z" fill="#7562E0"/>
<path d="M1008 758C1008 759.657 1006.66 761 1005 761C1003.34 761 1002 759.657 1002 758C1002 756.343 1003.34 755 1005 755C1006.66 755 1008 756.343 1008 758Z" fill="#7562E0"/>
<path d="M810 776C810 777.657 808.657 779 807 779C805.343 779 804 777.657 804 776C804 774.343 805.343 773 807 773C808.657 773 810 774.343 810 776Z" fill="#7562E0"/>
<path d="M828 776C828 777.657 826.657 779 825 779C823.343 779 822 777.657 822 776C822 774.343 823.343 773 825 773C826.657 773 828 774.343 828 776Z" fill="#7562E0"/>
<path d="M846 776C846 777.657 844.657 779 843 779C841.343 779 840 777.657 840 776C840 774.343 841.343 773 843 773C844.657 773 846 774.343 846 776Z" fill="#7562E0"/>
<path d="M864 776C864 777.657 862.657 779 861 779C859.343 779 858 777.657 858 776C858 774.343 859.343 773 861 773C862.657 773 864 774.343 864 776Z" fill="#7562E0"/>
<path d="M882 776C882 777.657 880.657 779 879 779C877.343 779 876 777.657 876 776C876 774.343 877.343 773 879 773C880.657 773 882 774.343 882 776Z" fill="#7562E0"/>
<path d="M900 776C900 777.657 898.657 779 897 779C895.343 779 894 777.657 894 776C894 774.343 895.343 773 897 773C898.657 773 900 774.343 900 776Z" fill="#7562E0"/>
<path d="M918 776C918 777.657 916.657 779 915 779C913.343 779 912 777.657 912 776C912 774.343 913.343 773 915 773C916.657 773 918 774.343 918 776Z" fill="#7562E0"/>
<path d="M936 776C936 777.657 934.657 779 933 779C931.343 779 930 777.657 930 776C930 774.343 931.343 773 933 773C934.657 773 936 774.343 936 776Z" fill="#7562E0"/>
<path d="M954 776C954 777.657 952.657 779 951 779C949.343 779 948 777.657 948 776C948 774.343 949.343 773 951 773C952.657 773 954 774.343 954 776Z" fill="#7562E0"/>
<path d="M972 776C972 777.657 970.657 779 969 779C967.343 779 966 777.657 966 776C966 774.343 967.343 773 969 773C970.657 773 972 774.343 972 776Z" fill="#7562E0"/>
<path d="M990 776C990 777.657 988.657 779 987 779C985.343 779 984 777.657 984 776C984 774.343 985.343 773 987 773C988.657 773 990 774.343 990 776Z" fill="#7562E0"/>
<path d="M1008 776C1008 777.657 1006.66 779 1005 779C1003.34 779 1002 777.657 1002 776C1002 774.343 1003.34 773 1005 773C1006.66 773 1008 774.343 1008 776Z" fill="#7562E0"/>
<path d="M810 794C810 795.657 808.657 797 807 797C805.343 797 804 795.657 804 794C804 792.343 805.343 791 807 791C808.657 791 810 792.343 810 794Z" fill="#7562E0"/>
<path d="M828 794C828 795.657 826.657 797 825 797C823.343 797 822 795.657 822 794C822 792.343 823.343 791 825 791C826.657 791 828 792.343 828 794Z" fill="#7562E0"/>
<path d="M846 794C846 795.657 844.657 797 843 797C841.343 797 840 795.657 840 794C840 792.343 841.343 791 843 791C844.657 791 846 792.343 846 794Z" fill="#7562E0"/>
<path d="M864 794C864 795.657 862.657 797 861 797C859.343 797 858 795.657 858 794C858 792.343 859.343 791 861 791C862.657 791 864 792.343 864 794Z" fill="#7562E0"/>
<path d="M882 794C882 795.657 880.657 797 879 797C877.343 797 876 795.657 876 794C876 792.343 877.343 791 879 791C880.657 791 882 792.343 882 794Z" fill="#7562E0"/>
<path d="M900 794C900 795.657 898.657 797 897 797C895.343 797 894 795.657 894 794C894 792.343 895.343 791 897 791C898.657 791 900 792.343 900 794Z" fill="#7562E0"/>
<path d="M918 794C918 795.657 916.657 797 915 797C913.343 797 912 795.657 912 794C912 792.343 913.343 791 915 791C916.657 791 918 792.343 918 794Z" fill="#7562E0"/>
<path d="M936 794C936 795.657 934.657 797 933 797C931.343 797 930 795.657 930 794C930 792.343 931.343 791 933 791C934.657 791 936 792.343 936 794Z" fill="#7562E0"/>
<path d="M954 794C954 795.657 952.657 797 951 797C949.343 797 948 795.657 948 794C948 792.343 949.343 791 951 791C952.657 791 954 792.343 954 794Z" fill="#7562E0"/>
<path d="M972 794C972 795.657 970.657 797 969 797C967.343 797 966 795.657 966 794C966 792.343 967.343 791 969 791C970.657 791 972 792.343 972 794Z" fill="#7562E0"/>
<path d="M990 794C990 795.657 988.657 797 987 797C985.343 797 984 795.657 984 794C984 792.343 985.343 791 987 791C988.657 791 990 792.343 990 794Z" fill="#7562E0"/>
<path d="M1008 794C1008 795.657 1006.66 797 1005 797C1003.34 797 1002 795.657 1002 794C1002 792.343 1003.34 791 1005 791C1006.66 791 1008 792.343 1008 794Z" fill="#7562E0"/>
<path d="M810 812C810 813.657 808.657 815 807 815C805.343 815 804 813.657 804 812C804 810.343 805.343 809 807 809C808.657 809 810 810.343 810 812Z" fill="#7562E0"/>
<path d="M828 812C828 813.657 826.657 815 825 815C823.343 815 822 813.657 822 812C822 810.343 823.343 809 825 809C826.657 809 828 810.343 828 812Z" fill="#7562E0"/>
<path d="M846 812C846 813.657 844.657 815 843 815C841.343 815 840 813.657 840 812C840 810.343 841.343 809 843 809C844.657 809 846 810.343 846 812Z" fill="#7562E0"/>
<path d="M864 812C864 813.657 862.657 815 861 815C859.343 815 858 813.657 858 812C858 810.343 859.343 809 861 809C862.657 809 864 810.343 864 812Z" fill="#7562E0"/>
<path d="M882 812C882 813.657 880.657 815 879 815C877.343 815 876 813.657 876 812C876 810.343 877.343 809 879 809C880.657 809 882 810.343 882 812Z" fill="#7562E0"/>
<path d="M900 812C900 813.657 898.657 815 897 815C895.343 815 894 813.657 894 812C894 810.343 895.343 809 897 809C898.657 809 900 810.343 900 812Z" fill="#7562E0"/>
<path d="M918 812C918 813.657 916.657 815 915 815C913.343 815 912 813.657 912 812C912 810.343 913.343 809 915 809C916.657 809 918 810.343 918 812Z" fill="#7562E0"/>
<path d="M936 812C936 813.657 934.657 815 933 815C931.343 815 930 813.657 930 812C930 810.343 931.343 809 933 809C934.657 809 936 810.343 936 812Z" fill="#7562E0"/>
<path d="M954 812C954 813.657 952.657 815 951 815C949.343 815 948 813.657 948 812C948 810.343 949.343 809 951 809C952.657 809 954 810.343 954 812Z" fill="#7562E0"/>
<path d="M972 812C972 813.657 970.657 815 969 815C967.343 815 966 813.657 966 812C966 810.343 967.343 809 969 809C970.657 809 972 810.343 972 812Z" fill="#7562E0"/>
<path d="M990 812C990 813.657 988.657 815 987 815C985.343 815 984 813.657 984 812C984 810.343 985.343 809 987 809C988.657 809 990 810.343 990 812Z" fill="#7562E0"/>
<path d="M1008 812C1008 813.657 1006.66 815 1005 815C1003.34 815 1002 813.657 1002 812C1002 810.343 1003.34 809 1005 809C1006.66 809 1008 810.343 1008 812Z" fill="#7562E0"/>
<path d="M810 830C810 831.657 808.657 833 807 833C805.343 833 804 831.657 804 830C804 828.343 805.343 827 807 827C808.657 827 810 828.343 810 830Z" fill="#7562E0"/>
<path d="M828 830C828 831.657 826.657 833 825 833C823.343 833 822 831.657 822 830C822 828.343 823.343 827 825 827C826.657 827 828 828.343 828 830Z" fill="#7562E0"/>
<path d="M846 830C846 831.657 844.657 833 843 833C841.343 833 840 831.657 840 830C840 828.343 841.343 827 843 827C844.657 827 846 828.343 846 830Z" fill="#7562E0"/>
<path d="M864 830C864 831.657 862.657 833 861 833C859.343 833 858 831.657 858 830C858 828.343 859.343 827 861 827C862.657 827 864 828.343 864 830Z" fill="#7562E0"/>
<path d="M882 830C882 831.657 880.657 833 879 833C877.343 833 876 831.657 876 830C876 828.343 877.343 827 879 827C880.657 827 882 828.343 882 830Z" fill="#7562E0"/>
<path d="M900 830C900 831.657 898.657 833 897 833C895.343 833 894 831.657 894 830C894 828.343 895.343 827 897 827C898.657 827 900 828.343 900 830Z" fill="#7562E0"/>
<path d="M918 830C918 831.657 916.657 833 915 833C913.343 833 912 831.657 912 830C912 828.343 913.343 827 915 827C916.657 827 918 828.343 918 830Z" fill="#7562E0"/>
<path d="M936 830C936 831.657 934.657 833 933 833C931.343 833 930 831.657 930 830C930 828.343 931.343 827 933 827C934.657 827 936 828.343 936 830Z" fill="#7562E0"/>
<path d="M954 830C954 831.657 952.657 833 951 833C949.343 833 948 831.657 948 830C948 828.343 949.343 827 951 827C952.657 827 954 828.343 954 830Z" fill="#7562E0"/>
<path d="M972 830C972 831.657 970.657 833 969 833C967.343 833 966 831.657 966 830C966 828.343 967.343 827 969 827C970.657 827 972 828.343 972 830Z" fill="#7562E0"/>
<path d="M990 830C990 831.657 988.657 833 987 833C985.343 833 984 831.657 984 830C984 828.343 985.343 827 987 827C988.657 827 990 828.343 990 830Z" fill="#7562E0"/>
<path d="M1008 830C1008 831.657 1006.66 833 1005 833C1003.34 833 1002 831.657 1002 830C1002 828.343 1003.34 827 1005 827C1006.66 827 1008 828.343 1008 830Z" fill="#7562E0"/>
<path d="M810 848C810 849.657 808.657 851 807 851C805.343 851 804 849.657 804 848C804 846.343 805.343 845 807 845C808.657 845 810 846.343 810 848Z" fill="#7562E0"/>
<path d="M828 848C828 849.657 826.657 851 825 851C823.343 851 822 849.657 822 848C822 846.343 823.343 845 825 845C826.657 845 828 846.343 828 848Z" fill="#7562E0"/>
<path d="M846 848C846 849.657 844.657 851 843 851C841.343 851 840 849.657 840 848C840 846.343 841.343 845 843 845C844.657 845 846 846.343 846 848Z" fill="#7562E0"/>
<path d="M864 848C864 849.657 862.657 851 861 851C859.343 851 858 849.657 858 848C858 846.343 859.343 845 861 845C862.657 845 864 846.343 864 848Z" fill="#7562E0"/>
<path d="M882 848C882 849.657 880.657 851 879 851C877.343 851 876 849.657 876 848C876 846.343 877.343 845 879 845C880.657 845 882 846.343 882 848Z" fill="#7562E0"/>
<path d="M900 848C900 849.657 898.657 851 897 851C895.343 851 894 849.657 894 848C894 846.343 895.343 845 897 845C898.657 845 900 846.343 900 848Z" fill="#7562E0"/>
<path d="M918 848C918 849.657 916.657 851 915 851C913.343 851 912 849.657 912 848C912 846.343 913.343 845 915 845C916.657 845 918 846.343 918 848Z" fill="#7562E0"/>
<path d="M936 848C936 849.657 934.657 851 933 851C931.343 851 930 849.657 930 848C930 846.343 931.343 845 933 845C934.657 845 936 846.343 936 848Z" fill="#7562E0"/>
<path d="M954 848C954 849.657 952.657 851 951 851C949.343 851 948 849.657 948 848C948 846.343 949.343 845 951 845C952.657 845 954 846.343 954 848Z" fill="#7562E0"/>
<path d="M972 848C972 849.657 970.657 851 969 851C967.343 851 966 849.657 966 848C966 846.343 967.343 845 969 845C970.657 845 972 846.343 972 848Z" fill="#7562E0"/>
<path d="M990 848C990 849.657 988.657 851 987 851C985.343 851 984 849.657 984 848C984 846.343 985.343 845 987 845C988.657 845 990 846.343 990 848Z" fill="#7562E0"/>
<path d="M1008 848C1008 849.657 1006.66 851 1005 851C1003.34 851 1002 849.657 1002 848C1002 846.343 1003.34 845 1005 845C1006.66 845 1008 846.343 1008 848Z" fill="#7562E0"/>
<path d="M810 866C810 867.657 808.657 869 807 869C805.343 869 804 867.657 804 866C804 864.343 805.343 863 807 863C808.657 863 810 864.343 810 866Z" fill="#7562E0"/>
<path d="M828 866C828 867.657 826.657 869 825 869C823.343 869 822 867.657 822 866C822 864.343 823.343 863 825 863C826.657 863 828 864.343 828 866Z" fill="#7562E0"/>
<path d="M846 866C846 867.657 844.657 869 843 869C841.343 869 840 867.657 840 866C840 864.343 841.343 863 843 863C844.657 863 846 864.343 846 866Z" fill="#7562E0"/>
<path d="M864 866C864 867.657 862.657 869 861 869C859.343 869 858 867.657 858 866C858 864.343 859.343 863 861 863C862.657 863 864 864.343 864 866Z" fill="#7562E0"/>
<path d="M882 866C882 867.657 880.657 869 879 869C877.343 869 876 867.657 876 866C876 864.343 877.343 863 879 863C880.657 863 882 864.343 882 866Z" fill="#7562E0"/>
<path d="M900 866C900 867.657 898.657 869 897 869C895.343 869 894 867.657 894 866C894 864.343 895.343 863 897 863C898.657 863 900 864.343 900 866Z" fill="#7562E0"/>
<path d="M918 866C918 867.657 916.657 869 915 869C913.343 869 912 867.657 912 866C912 864.343 913.343 863 915 863C916.657 863 918 864.343 918 866Z" fill="#7562E0"/>
<path d="M936 866C936 867.657 934.657 869 933 869C931.343 869 930 867.657 930 866C930 864.343 931.343 863 933 863C934.657 863 936 864.343 936 866Z" fill="#7562E0"/>
<path d="M954 866C954 867.657 952.657 869 951 869C949.343 869 948 867.657 948 866C948 864.343 949.343 863 951 863C952.657 863 954 864.343 954 866Z" fill="#7562E0"/>
<path d="M972 866C972 867.657 970.657 869 969 869C967.343 869 966 867.657 966 866C966 864.343 967.343 863 969 863C970.657 863 972 864.343 972 866Z" fill="#7562E0"/>
<path d="M990 866C990 867.657 988.657 869 987 869C985.343 869 984 867.657 984 866C984 864.343 985.343 863 987 863C988.657 863 990 864.343 990 866Z" fill="#7562E0"/>
<path d="M1008 866C1008 867.657 1006.66 869 1005 869C1003.34 869 1002 867.657 1002 866C1002 864.343 1003.34 863 1005 863C1006.66 863 1008 864.343 1008 866Z" fill="#7562E0"/>
<path d="M810 884C810 885.657 808.657 887 807 887C805.343 887 804 885.657 804 884C804 882.343 805.343 881 807 881C808.657 881 810 882.343 810 884Z" fill="#7562E0"/>
<path d="M828 884C828 885.657 826.657 887 825 887C823.343 887 822 885.657 822 884C822 882.343 823.343 881 825 881C826.657 881 828 882.343 828 884Z" fill="#7562E0"/>
<path d="M846 884C846 885.657 844.657 887 843 887C841.343 887 840 885.657 840 884C840 882.343 841.343 881 843 881C844.657 881 846 882.343 846 884Z" fill="#7562E0"/>
<path d="M864 884C864 885.657 862.657 887 861 887C859.343 887 858 885.657 858 884C858 882.343 859.343 881 861 881C862.657 881 864 882.343 864 884Z" fill="#7562E0"/>
<path d="M882 884C882 885.657 880.657 887 879 887C877.343 887 876 885.657 876 884C876 882.343 877.343 881 879 881C880.657 881 882 882.343 882 884Z" fill="#7562E0"/>
<path d="M900 884C900 885.657 898.657 887 897 887C895.343 887 894 885.657 894 884C894 882.343 895.343 881 897 881C898.657 881 900 882.343 900 884Z" fill="#7562E0"/>
<path d="M918 884C918 885.657 916.657 887 915 887C913.343 887 912 885.657 912 884C912 882.343 913.343 881 915 881C916.657 881 918 882.343 918 884Z" fill="#7562E0"/>
<path d="M936 884C936 885.657 934.657 887 933 887C931.343 887 930 885.657 930 884C930 882.343 931.343 881 933 881C934.657 881 936 882.343 936 884Z" fill="#7562E0"/>
<path d="M954 884C954 885.657 952.657 887 951 887C949.343 887 948 885.657 948 884C948 882.343 949.343 881 951 881C952.657 881 954 882.343 954 884Z" fill="#7562E0"/>
<path d="M972 884C972 885.657 970.657 887 969 887C967.343 887 966 885.657 966 884C966 882.343 967.343 881 969 881C970.657 881 972 882.343 972 884Z" fill="#7562E0"/>
<path d="M990 884C990 885.657 988.657 887 987 887C985.343 887 984 885.657 984 884C984 882.343 985.343 881 987 881C988.657 881 990 882.343 990 884Z" fill="#7562E0"/>
<path d="M1008 884C1008 885.657 1006.66 887 1005 887C1003.34 887 1002 885.657 1002 884C1002 882.343 1003.34 881 1005 881C1006.66 881 1008 882.343 1008 884Z" fill="#7562E0"/>
</g>
<path d="M1568 764.884C1575.74 771.044 1583.12 770.225 1588.5 769.633C1593.33 769.101 1595.6 768.962 1598.67 771.402C1601.74 773.842 1602.11 776.064 1602.63 780.865C1603.22 786.207 1604.03 793.526 1611.77 799.687C1619.52 805.848 1626.89 805.029 1632.28 804.436C1637.11 803.905 1639.37 803.765 1642.45 806.205C1645.51 808.645 1645.88 810.867 1646.41 815.66C1646.99 821.002 1647.8 828.321 1655.55 834.482C1663.29 840.643 1670.67 839.824 1676.05 839.231C1680.88 838.7 1683.15 838.56 1686.22 841L1695 830.116C1687.26 823.956 1679.88 824.775 1674.5 825.367C1669.67 825.899 1667.4 826.038 1664.33 823.598C1661.26 821.158 1660.89 818.936 1660.37 814.144C1659.78 808.802 1658.97 801.482 1651.23 795.322C1643.48 789.161 1636.11 789.98 1630.72 790.572C1625.89 791.104 1623.63 791.243 1620.55 788.803C1617.48 786.364 1617.12 784.142 1616.59 779.34C1616.01 773.999 1615.2 766.679 1607.45 760.518C1599.71 754.357 1592.33 755.176 1586.95 755.769C1582.12 756.3 1579.85 756.44 1576.78 754L1568 764.884Z" fill="#FEEAA6" fill-opacity="0.4"/>
<path d="M1577.35 753.444C1574.95 756.449 1575.4 760.99 1578.97 762.433C1584.4 764.628 1589.41 764.069 1593.34 763.633C1598.13 763.101 1600.38 762.962 1603.43 765.402C1606.47 767.842 1606.84 770.064 1607.36 774.865C1607.94 780.207 1608.74 787.527 1616.43 793.687C1624.11 799.848 1631.43 799.029 1636.77 798.436C1641.56 797.905 1643.81 797.765 1646.86 800.205C1649.9 802.645 1650.27 804.867 1650.79 809.66C1651.37 815.002 1652.17 822.321 1659.86 828.482C1667.54 834.643 1674.86 833.824 1680.2 833.231C1681.59 833.076 1682.77 832.955 1683.82 832.921C1687.67 832.794 1692.24 832.563 1694.65 829.556C1697.05 826.551 1696.6 822.01 1693.03 820.567C1687.6 818.372 1682.59 818.931 1678.66 819.367C1673.87 819.899 1671.62 820.038 1668.57 817.598C1665.53 815.158 1665.16 812.936 1664.64 808.144C1664.06 802.802 1663.26 795.482 1655.57 789.322C1647.89 783.161 1640.57 783.98 1635.23 784.572C1630.44 785.104 1628.19 785.243 1625.14 782.804C1622.09 780.364 1621.73 778.142 1621.21 773.34C1620.63 767.999 1619.83 760.679 1612.14 754.518C1604.46 748.357 1597.14 749.176 1591.8 749.769C1590.41 749.924 1589.23 750.045 1588.18 750.08C1584.33 750.206 1579.76 750.437 1577.35 753.444Z" fill="url(#paint0_linear_1335_53)" fill-opacity="0.5"/>
<path d="M831 428C831 431.314 828.314 434 825 434C821.686 434 819 431.314 819 428C819 424.686 821.686 422 825 422C828.314 422 831 424.686 831 428Z" fill="#FBD95E"/>
<path d="M873 454C873 456.209 871.209 458 869 458C866.791 458 865 456.209 865 454C865 451.791 866.791 450 869 450C871.209 450 873 451.791 873 454Z" fill="#5489FA"/>
<path d="M839 473C839 474.105 838.105 475 837 475C835.895 475 835 474.105 835 473C835 471.895 835.895 471 837 471C838.105 471 839 471.895 839 473Z" fill="#F461A6"/>
<path d="M219.9 261.07C211.08 268.14 202.68 267.2 196.55 266.52C191.05 265.91 188.47 265.75 184.97 268.55C181.48 271.35 181.06 273.9 180.46 279.41C179.79 285.54 178.87 293.94 170.05 301.01C161.23 308.08 152.83 307.14 146.7 306.46C141.2 305.85 138.62 305.69 135.12 308.49C131.63 311.29 131.21 313.84 130.61 319.34C129.94 325.47 129.02 333.87 120.2 340.94C111.38 348.01 102.98 347.07 96.85 346.39C91.35 345.78 88.77 345.62 85.27 348.42L75.27 335.93C84.09 328.86 92.49 329.8 98.62 330.48C104.12 331.09 106.7 331.25 110.2 328.45C113.69 325.65 114.11 323.1 114.71 317.6C115.38 311.47 116.3 303.07 125.12 296C133.94 288.93 142.34 289.87 148.47 290.55C153.97 291.16 156.55 291.32 160.05 288.52C163.55 285.72 163.96 283.17 164.56 277.66C165.23 271.53 166.15 263.13 174.97 256.06C183.79 248.99 192.19 249.93 198.32 250.61C203.82 251.22 206.4 251.38 209.9 248.58L219.9 261.07Z" fill="#EFECFF"/>
<path d="M209.63 248.246C212.392 251.695 211.873 256.908 207.776 258.563C201.539 261.082 195.794 260.441 191.28 259.94C185.78 259.33 183.2 259.17 179.7 261.97C176.21 264.77 175.79 267.32 175.19 272.83C174.52 278.96 173.6 287.36 164.78 294.43C155.96 301.5 147.56 300.56 141.43 299.88C135.93 299.27 133.35 299.11 129.85 301.91C126.36 304.71 125.94 307.26 125.34 312.76C124.67 318.89 123.75 327.29 114.93 334.36C106.11 341.43 97.71 340.49 91.58 339.81C89.9781 339.632 88.6238 339.493 87.4224 339.454C83.0056 339.309 77.7615 339.044 74.9995 335.594C72.2379 332.145 72.7574 326.932 76.8544 325.277C83.0914 322.758 88.8361 323.399 93.35 323.9C98.85 324.51 101.43 324.67 104.93 321.87C108.42 319.07 108.84 316.52 109.44 311.02C110.11 304.89 111.03 296.49 119.85 289.42C128.67 282.35 137.07 283.29 143.2 283.97C148.7 284.58 151.28 284.74 154.78 281.94C158.28 279.14 158.69 276.59 159.29 271.08C159.96 264.95 160.88 256.55 169.7 249.48C178.52 242.41 186.92 243.35 193.05 244.03C194.652 244.208 196.006 244.347 197.208 244.387C201.624 244.531 206.868 244.796 209.63 248.246Z" fill="url(#paint1_linear_1335_53)" fill-opacity="0.5"/>
</g>
<defs>
<linearGradient id="paint0_linear_1335_53" x1="1636" y1="748" x2="1636" y2="835" gradientUnits="userSpaceOnUse">
<stop stop-color="#FFE176" offset="0%"/>
<stop offset="1" stop-color="#FFD646"/>
</linearGradient>
<linearGradient id="paint1_linear_1335_53" x1="142.315" y1="242" x2="142.315" y2="341.84" gradientUnits="userSpaceOnUse">
<stop stop-color="#9888F4"/>
<stop offset="1" stop-color="#907EF3"/>
</linearGradient>
</defs>
</svg>
