<svg width="54" height="60" viewBox="0 0 54 60" fill="none" xmlns="http://www.w3.org/2000/svg">
<path d="M19.7657 33.44C19.6271 32.9496 19.5162 32.5487 19.4011 32.1456C18.853 30.2328 18.7635 28.2901 19.2625 26.3731C19.4608 25.6096 19.8702 24.8398 20.3692 24.2257C21.8086 22.4536 24.4657 22.5325 25.7857 24.3941C26.3081 25.132 26.628 26.0233 26.982 26.8699C27.3104 27.6525 27.4938 28.497 27.8584 29.2583C28.7946 31.2116 30.2937 32.5508 32.4198 33.1138C32.7204 33.1927 33.036 33.2225 33.3794 33.2801C33.4305 33.0818 33.4839 32.9517 33.4988 32.8195C33.6822 31.1732 34.6631 30.235 36.2987 30.2243C39.3204 30.2051 42.34 30.2179 45.3617 30.2179C47.1743 30.2179 48.9869 30.188 50.7995 30.2371C51.3432 30.252 51.9233 30.4055 52.4116 30.6465C53.19 31.0304 53.6207 31.717 53.6527 32.6148C53.6634 32.9346 53.6783 33.2545 53.6783 33.5744C53.6783 41.4645 53.6804 49.3546 53.6783 57.2447C53.6783 57.9506 53.738 58.6692 53.303 59.3047C53.0044 59.7376 52.6696 59.9999 52.0853 59.9999C46.4343 59.9807 40.7833 59.9807 35.1323 59.9999C34.5565 59.9999 34.1812 59.7802 33.9189 59.3111C33.7483 59.0019 33.6118 58.6756 33.4028 58.2385C33.0318 58.2385 32.6138 58.2385 32.1959 58.2385C26.1183 58.2385 20.0408 58.2427 13.9633 58.2321C13.4344 58.2321 12.8992 58.1894 12.3789 58.0977C9.59813 57.5987 8.30799 55.1613 9.44886 52.5917C9.50431 52.4659 9.56615 52.3422 9.62159 52.2249C7.20977 50.0903 6.89844 48.9708 8.04357 46.4353C7.12234 45.8595 6.35466 45.1387 5.97721 44.0384C5.58271 42.889 5.90044 41.8803 6.40797 40.8077C6.167 40.62 5.92177 40.4324 5.67867 40.2405C4.44184 39.2617 3.91085 37.5877 4.38 36.1333C4.87046 34.6086 6.27789 33.4806 7.87297 33.4614C11.0354 33.423 14.2 33.4443 17.3624 33.4422C18.1408 33.4422 18.917 33.4422 19.7657 33.4422V33.44ZM33.4604 35.3209C29.7371 34.7686 27.2165 32.8366 25.824 29.4651C25.5682 28.8446 25.4402 28.1707 25.18 27.5523C24.8836 26.8401 24.6043 26.0873 24.1437 25.486C23.489 24.633 22.4313 24.665 21.7894 25.5329C21.4248 26.0276 21.1497 26.6524 21.0324 27.258C20.6166 29.382 20.9876 31.4163 21.9259 33.3547C22.0347 33.5787 22.1818 33.7898 22.2479 34.0243C22.4398 34.6982 22.1861 35.1417 21.4973 35.2804C21.0836 35.3635 20.6507 35.3742 20.2263 35.3763C16.4583 35.3827 12.6923 35.3763 8.92428 35.3848C8.46366 35.3848 7.99452 35.3912 7.5467 35.4829C6.77475 35.6407 6.17126 36.3956 6.12648 37.1569C6.0817 37.9459 6.6596 38.784 7.46141 38.9994C7.86657 39.1081 8.29946 39.1295 8.72169 39.1657C9.07568 39.1956 9.43393 39.1721 9.78579 39.2084C10.2315 39.2531 10.4852 39.5325 10.5449 39.9696C10.6111 40.4601 10.3829 40.8013 9.93293 40.9698C9.67064 41.0679 9.37636 41.0828 9.10767 41.1702C8.18644 41.4666 7.70451 42.1725 7.77488 43.0937C7.84098 43.9446 8.51911 44.644 9.43607 44.7613C9.82204 44.8103 10.2165 44.7784 10.6068 44.8103C10.9224 44.8359 11.2423 44.8722 11.5451 44.9575C11.9801 45.079 12.1635 45.433 12.1507 45.8552C12.1379 46.2817 11.8991 46.5952 11.479 46.721C11.142 46.8213 10.7817 46.8532 10.4533 46.9748C9.74314 47.2392 9.38915 47.8448 9.32518 48.5336C9.25907 49.2437 9.60453 49.8728 10.2656 50.1927C10.6644 50.3867 11.1356 50.4592 11.5835 50.5189C12.0377 50.5786 12.5111 50.5083 12.9632 50.5829C13.4174 50.6576 13.7202 50.9582 13.75 51.4572C13.7799 51.9584 13.5176 52.2654 13.074 52.419C12.8416 52.4979 12.5836 52.4979 12.3447 52.564C11.5472 52.7857 11.0141 53.4596 10.9778 54.2678C10.9416 55.1059 11.3659 55.7883 12.1848 56.0697C12.5772 56.2041 13.0143 56.2617 13.4323 56.2638C19.8297 56.2745 26.225 56.2723 32.6223 56.2681C32.8932 56.2681 33.164 56.2211 33.4561 56.1934V35.323L33.4604 35.3209ZM51.8252 45.3904C51.8252 41.5562 51.8252 37.7199 51.8252 33.8857C51.8252 33.6362 51.8401 33.3867 51.8188 33.1394C51.7591 32.4719 51.4925 32.1904 50.8272 32.1094C50.5478 32.0753 50.2599 32.0923 49.9763 32.0923C45.7157 32.0923 41.455 32.0923 37.1922 32.0923C36.9427 32.0923 36.6932 32.0795 36.448 32.103C35.7208 32.1712 35.5182 32.3802 35.4692 33.0903C35.4543 33.3014 35.4628 33.5168 35.4628 33.7301C35.4628 41.5071 35.4628 49.2821 35.4628 57.0592C35.4628 57.3087 35.45 57.5582 35.4756 57.8034C35.5353 58.4325 35.6931 58.5775 36.3478 58.6287C36.5589 58.6458 36.7743 58.6351 36.9875 58.6351C41.391 58.6351 45.7946 58.6351 50.196 58.6351C50.4455 58.6351 50.6928 58.6266 50.9423 58.6287C51.4669 58.6308 51.7186 58.3152 51.7953 57.8525C51.8465 57.5411 51.8273 57.2149 51.8273 56.8971C51.8273 53.063 51.8273 49.2267 51.8273 45.3925L51.8252 45.3904Z" fill="#B535F1"/>
<path d="M22.4234 0.0777986C22.5236 0.0394143 22.5556 0.0180896 22.5897 0.0159572C23.6745 -0.090666 24.4528 0.332983 24.9248 1.28691C25.4899 2.42991 26.0699 3.56651 26.6158 4.72017C26.8696 5.25755 27.2215 5.47933 27.8399 5.54117C29.4584 5.7011 31.0684 5.9634 32.6784 6.20437C33.1348 6.2726 33.606 6.37923 33.7873 6.89955C33.9835 7.46678 33.6551 7.85276 33.2947 8.20888C32.1581 9.33056 31.0386 10.4714 29.8572 11.5419C29.3475 12.0025 29.1855 12.4482 29.3177 13.1135C29.6205 14.6361 29.8636 16.1736 30.1259 17.7047C30.1685 17.9478 30.209 18.1995 30.1962 18.4447C30.1536 19.1975 29.5672 19.5856 28.8698 19.3254C28.6054 19.2273 28.3602 19.078 28.1086 18.9458C26.8227 18.2698 25.5219 17.6194 24.2573 16.9072C23.6474 16.5639 23.1484 16.5106 22.5066 16.8795C21.0629 17.709 19.5574 18.4255 18.0966 19.2252C17.282 19.673 16.7169 19.2295 16.5549 18.6963C16.4973 18.5065 16.5165 18.2805 16.5506 18.0779C16.8321 16.3698 17.105 14.6574 17.4313 12.9557C17.5315 12.4376 17.4207 12.09 17.0453 11.7338C15.913 10.6591 14.8084 9.5566 13.691 8.46264C13.5396 8.31337 13.3775 8.17263 13.2368 8.0127C12.5629 7.23861 12.7634 6.50931 13.7784 6.28966C14.883 6.05083 16.0132 5.91862 17.1349 5.75442C17.7981 5.65632 18.4656 5.56676 19.1352 5.51558C19.6363 5.4772 19.8751 5.18505 20.0713 4.77348C20.6556 3.56011 21.257 2.35527 21.8562 1.15043C22.0438 0.770849 22.2507 0.401933 22.4234 0.0756661V0.0777986ZM27.9486 16.6662C27.7098 15.1692 27.5669 13.8663 27.279 12.5975C27.0914 11.7744 27.375 11.2626 27.9337 10.7337C28.8592 9.85728 29.7292 8.92539 30.6611 7.97644C30.4521 7.89754 30.2687 7.78665 30.0726 7.75893C28.9871 7.599 27.9038 7.40281 26.8099 7.33031C25.9953 7.27486 25.5197 6.93367 25.1871 6.20223C24.6497 5.01232 24.0334 3.85652 23.4001 2.58131C23.2146 2.88199 23.0717 3.07604 22.9672 3.28716C22.5066 4.20625 22.0332 5.12107 21.6109 6.05936C21.2591 6.83771 20.7814 7.34097 19.8517 7.33457C19.3271 7.33031 18.7982 7.46039 18.2736 7.54142C17.5614 7.65444 16.8513 7.77812 15.962 7.92953C16.9643 8.92112 17.7853 9.80396 18.6852 10.5994C19.4038 11.2348 19.7152 11.9087 19.4038 12.8513C19.261 13.2841 19.2141 13.7512 19.1458 14.2054C19.0328 14.9645 18.939 15.7279 18.8153 16.6449C20.1033 15.9774 21.2548 15.4273 22.3573 14.7918C23.0482 14.393 23.641 14.361 24.3426 14.7641C25.475 15.4145 26.6521 15.9902 27.9508 16.6705L27.9486 16.6662Z" fill="#B535F1"/>
<path d="M6.93572 23.3279C5.92066 23.8568 4.94826 24.3622 3.97799 24.8718C3.56003 25.0915 3.13567 25.309 2.68998 24.9678C2.27842 24.6543 2.22084 24.2406 2.32746 23.7352C2.50232 22.9078 2.57909 22.057 2.74756 21.2275C2.86698 20.6496 2.76035 20.2145 2.29761 19.8115C1.65787 19.2528 1.0885 18.6131 0.461557 18.0373C0.0819785 17.6897 -0.0843537 17.2888 0.0414617 16.8026C0.169409 16.3164 0.566048 16.2055 1.02239 16.1479C1.89884 16.0349 2.76675 15.8473 3.64319 15.747C4.19763 15.6831 4.53883 15.4549 4.76487 14.9324C5.1018 14.1541 5.52189 13.4098 5.88441 12.6422C6.09339 12.1986 6.35995 11.8318 6.89093 11.819C7.47096 11.8062 7.76311 12.2007 7.98915 12.6763C8.33888 13.412 8.74618 14.1221 9.04899 14.877C9.28143 15.457 9.66314 15.6724 10.2453 15.7428C11.158 15.8536 12.0686 15.9901 12.9685 16.1714C13.9878 16.3782 14.2309 17.1011 13.5336 17.856C12.8832 18.5576 12.1901 19.2208 11.4885 19.8712C11.1153 20.2167 10.9575 20.5493 11.0876 21.0803C11.2987 21.9376 11.4075 22.8183 11.5696 23.6883C11.6591 24.1724 11.6143 24.6181 11.2006 24.9401C10.7678 25.277 10.3413 25.1235 9.91263 24.8932C8.9445 24.3728 7.96996 23.8696 6.93358 23.3237L6.93572 23.3279ZM4.51324 22.3875C5.1743 22.0485 5.65837 21.8309 6.11472 21.5601C6.70115 21.2125 7.24706 21.2424 7.81856 21.5878C8.2813 21.8672 8.76963 22.1039 9.37099 22.4259C9.23451 21.6795 9.14708 21.1251 9.02766 20.5771C8.90398 20.0034 9.04685 19.5343 9.47122 19.1291C9.90197 18.7175 10.3114 18.2825 10.7891 17.7985C10.2432 17.711 9.7655 17.5937 9.28356 17.566C8.48815 17.5191 7.96143 17.1758 7.66502 16.4188C7.48376 15.9539 7.20867 15.5252 6.92079 14.9708C6.60945 15.5828 6.34716 16.0434 6.13818 16.5275C5.85242 17.1907 5.3513 17.4892 4.65611 17.5575C4.16991 17.6044 3.68584 17.7004 3.04184 17.7985C3.45767 18.2143 3.74768 18.5747 4.1038 18.8455C4.87149 19.4298 4.93973 20.1825 4.74141 21.0377C4.65611 21.4108 4.61346 21.7926 4.5175 22.3875H4.51324Z" fill="#B535F1"/>
<path d="M42.2095 23.328C41.2051 23.8547 40.2008 24.3729 39.2028 24.906C38.8083 25.1171 38.4265 25.2536 38.0022 24.9913C37.5267 24.6991 37.5011 24.2385 37.5757 23.7715C37.7527 22.6562 37.9553 21.5452 38.1515 20.4065C37.4264 19.6836 36.6993 18.9564 35.9721 18.2335C35.8207 18.0842 35.6501 17.9499 35.5179 17.7857C34.9762 17.1054 35.2215 16.3527 36.0744 16.1864C37.0106 16.003 37.9574 15.8644 38.9042 15.7492C39.448 15.6831 39.8148 15.4656 40.0451 14.9495C40.4055 14.1413 40.8234 13.3587 41.2115 12.5633C41.4099 12.156 41.6913 11.8276 42.1626 11.8127C42.6829 11.7935 42.9922 12.1304 43.2054 12.5804C43.5551 13.3161 43.9454 14.0326 44.2716 14.7768C44.5403 15.3867 44.9284 15.7087 45.6257 15.7663C46.5043 15.8366 47.3786 16.0008 48.2423 16.1778C49.2275 16.3804 49.4791 17.1268 48.8031 17.8817C48.2359 18.5129 47.6281 19.1185 46.9692 19.6537C46.4276 20.0952 46.2676 20.592 46.387 21.2382C46.5022 21.863 46.6088 22.4878 46.7218 23.1126C46.741 23.2171 46.7922 23.3173 46.7965 23.4218C46.8199 23.9741 47.0246 24.5755 46.4403 24.9828C45.888 25.3666 45.4296 25.0105 44.9647 24.7695C44.0541 24.2982 43.1457 23.8184 42.2095 23.328ZM44.6064 22.3726C44.5105 21.6646 44.4891 21.0953 44.3484 20.56C44.1799 19.9203 44.3932 19.4703 44.841 19.0545C45.2483 18.6771 45.6321 18.2698 46.1098 17.7921C45.4765 17.6983 44.9903 17.6023 44.5019 17.5597C43.811 17.4999 43.3056 17.2334 43.022 16.5553C42.8088 16.0413 42.5102 15.5637 42.1989 14.973C41.8918 15.5871 41.6167 16.0797 41.3928 16.5937C41.1198 17.2206 40.6379 17.485 39.9896 17.5533C39.4672 17.6066 38.949 17.694 38.2815 17.7878C38.7464 18.2527 39.0961 18.6472 39.4949 18.9863C40.0643 19.4703 40.3031 20.0056 40.0685 20.7648C39.9193 21.2467 39.9129 21.7734 39.8254 22.3961C40.4503 22.0656 40.9535 21.8139 41.4397 21.5346C41.9451 21.2446 42.4313 21.2318 42.9452 21.5196C43.4378 21.7947 43.9475 22.0357 44.6064 22.3726Z" fill="#B535F1"/>
<path d="M41.9371 53.9331C42.6131 53.9331 43.287 53.9245 43.963 53.9373C44.2082 53.9416 44.5132 53.9203 44.6795 54.0503C44.9354 54.2508 45.2425 54.5643 45.2595 54.8479C45.2766 55.1272 45.0079 55.4727 44.7776 55.7009C44.6262 55.8523 44.3212 55.9013 44.0845 55.9035C42.6281 55.9205 41.1716 55.9333 39.7151 55.9035C38.9943 55.8885 38.5465 55.4706 38.5316 54.9183C38.5167 54.3766 38.9773 53.965 39.6981 53.9395C40.4423 53.9139 41.1908 53.9331 41.9371 53.9331Z" fill="#B535F1"/>
</svg>
