<svg width="58" height="50" viewBox="0 0 58 50" fill="none" xmlns="http://www.w3.org/2000/svg">
<path d="M3.78307 3.61937C3.78307 2.64717 3.76203 1.88119 3.78938 1.11732C3.81674 0.279791 4.0398 0.0630442 4.85418 0.0104358C5.13405 -0.00850324 5.41604 0.00412278 5.69591 0.00412278C21.0933 0.00412278 36.4887 0.00412278 51.8861 0.00412278C53.7442 0.00412278 53.7737 0.0335835 53.7737 1.87909C53.7737 4.47373 53.7737 7.07048 53.7737 9.66513V10.8772C54.1882 10.9235 54.4892 10.9761 54.7922 10.9888C56.6208 11.0645 57.5299 11.9988 57.5447 13.8486C57.5552 15.2521 57.5468 16.6536 57.5468 18.0572C57.5468 27.6677 57.5468 37.2761 57.5425 46.8866C57.5425 47.3412 57.551 47.8083 57.45 48.2439C57.2248 49.214 56.3326 49.919 55.3225 49.9863C55.0089 50.0074 54.6912 49.9968 54.3755 49.9968C37.2946 49.9968 20.2158 49.9968 3.13494 49.9968C2.81928 49.9968 2.50153 50.0095 2.18798 49.9842C1.06216 49.8979 0.157299 49.0267 0.0268303 47.8988C-0.0131521 47.5516 0.00368259 47.1981 0.00368259 46.8488C0.00368259 33.522 0.00368259 20.1931 0.00368259 6.86636C0.00368259 6.55071 -0.0110478 6.23296 0.0184129 5.91941C0.142569 4.63787 1.06427 3.7288 2.35423 3.62358C2.76457 3.58991 3.18123 3.61937 3.77886 3.61937H3.78307ZM28.7784 47.9872C37.0505 47.9872 45.3248 47.9872 53.5969 47.9872C53.9126 47.9872 54.2282 47.9998 54.5439 47.9809C55.3372 47.9367 55.4992 47.7683 55.5434 46.954C55.5561 46.7099 55.5476 46.4637 55.5476 46.2175C55.5476 35.7715 55.5476 25.3256 55.5476 14.8797C55.5476 14.5998 55.5413 14.3178 55.5413 14.0379C55.5413 13.4403 55.2699 13.1205 54.647 13.1394C54.3313 13.1478 54.0157 13.1373 53.7 13.1373C43.8496 13.1373 33.9992 13.1205 24.1488 13.1604C23.0441 13.1646 22.337 12.8343 21.9182 11.8326C21.7709 11.477 21.5815 11.1382 21.409 10.7952C20.6872 9.35579 19.9486 7.92274 19.2457 6.47285C19.0016 5.96992 18.6755 5.74475 18.1052 5.74686C13.0927 5.76159 8.08013 5.74896 3.0676 5.75948C2.13958 5.75948 2.04278 5.88574 2.00912 6.7885C2.0028 6.96316 2.00912 7.13993 2.00912 7.31459C2.00912 20.3194 2.00912 33.3242 2.00912 46.329C2.00912 46.5752 2.01332 46.8193 2.01543 47.0655C2.01543 47.6631 2.30372 47.9788 2.91188 47.9809C3.22753 47.9809 3.54318 47.9872 3.85883 47.9872C12.1667 47.9872 20.4747 47.9872 28.7826 47.9872H28.7784ZM5.85584 3.61096C6.37772 3.61096 6.78806 3.61096 7.20051 3.61096C11.1251 3.61096 15.0518 3.62779 18.9764 3.59833C19.8244 3.59202 20.3442 3.89715 20.7083 4.66312C21.55 6.43497 22.4822 8.16474 23.3113 9.9429C23.6691 10.711 24.1257 11.014 24.9969 11.0119C33.5131 10.9803 42.0294 10.993 50.5456 10.9888C50.916 10.9888 51.2864 10.9319 51.6757 10.9004V2.10004H5.85584V3.61096Z" fill="#356DF1"/>
<path d="M28.7526 16.6305C35.9032 16.3738 42.8138 22.369 42.7612 30.6349C42.7128 38.3262 36.6102 44.4793 28.7989 44.513C21.0529 44.5466 14.7188 38.2189 14.7778 30.4665C14.8388 22.4574 21.5411 16.4032 28.7526 16.6284V16.6305ZM40.6379 30.6012C40.739 24.3134 35.7138 18.6906 28.78 18.6759C21.9157 18.6612 16.9368 24.2293 16.9052 30.4897C16.8737 36.7648 21.8273 42.3918 28.7758 42.4128C35.5707 42.4318 40.6674 36.8932 40.6379 30.6012Z" fill="#356DF1"/>
<path d="M37.1275 27.1145C36.9696 27.3207 36.7213 27.7331 36.393 28.0656C33.9268 30.553 31.4437 33.0234 28.9668 35.4981C28.5712 35.8938 28.1861 36.3041 27.7716 36.6808C27.1361 37.2574 26.7594 37.2826 26.1092 36.7692C24.6824 35.6412 23.2641 34.4986 21.8542 33.3475C21.2334 32.8404 21.1198 32.289 21.4838 31.8029C21.8542 31.3063 22.435 31.22 23.0663 31.6851C23.9964 32.369 24.8823 33.1118 25.7746 33.842C26.852 34.7237 26.852 34.7174 27.8053 33.7558C30.1874 31.3463 32.5716 28.9347 34.981 26.5526C35.2841 26.2517 35.7302 26.0139 36.1468 25.9297C36.7571 25.8077 37.1422 26.2328 37.1275 27.1145Z" fill="#356DF1"/>
</svg>
