<svg width="54" height="54" viewBox="0 0 54 54" fill="none" xmlns="http://www.w3.org/2000/svg">
<path d="M38.4285 53.9401V52.1129H46.3762V42.2282H48.2542V51.8342C49.2248 51.8037 49.8759 51.3296 50.4396 50.7741C51.2616 49.9643 51.7357 48.9672 51.7316 47.781C51.7255 46.4238 51.756 45.0666 51.7235 43.7115C51.6523 40.7428 49.3347 38.1119 46.366 37.9064C43.7677 37.7253 41.1489 37.825 38.5404 37.8067C38.4163 37.8067 38.2901 37.882 38.1599 37.9247C38.7825 41.6564 38.4305 45.3861 38.4753 49.1036C38.5099 52.0153 36.5098 53.9401 33.6184 53.9544C32.8757 53.9584 32.131 53.9544 31.4148 53.9544C31.1462 53.1873 31.075 40.9076 31.3212 39.5505H33.01V51.9624C35.1994 52.2839 36.6074 51.1485 36.6278 49.1056C36.6562 46.257 36.6949 43.4063 36.6176 40.5597C36.5342 37.412 34.6642 35.0334 31.5267 34.3009C31.2011 34.2256 30.8532 34.2317 30.5154 34.2296C28.0391 34.2235 25.5649 34.2174 23.0886 34.2296C20.1973 34.2439 17.6315 36.4109 17.1635 39.2493C17.0434 39.9798 16.9763 40.7266 16.9702 41.4672C16.9478 43.976 16.9498 46.4869 16.9661 48.9957C16.9804 51.1281 18.3314 52.2778 20.5452 51.9786V39.5525H22.2157C22.4518 40.2565 22.5148 52.6074 22.2666 53.9096C20.9155 53.9523 19.5401 54.1294 18.191 53.6838C16.4147 53.0957 15.1613 51.4333 15.1247 49.4189C15.0697 46.3689 15.0901 43.3147 15.1287 40.2626C15.1389 39.4955 15.3383 38.7305 15.4624 37.8922C15.1816 37.8535 14.9212 37.7904 14.6608 37.7904C12.4897 37.7843 10.3186 37.7416 8.1496 37.8006C5.01 37.884 2.70872 39.6949 2.01487 42.6005C1.86837 43.2171 1.87651 43.8763 1.86634 44.5152C1.84802 45.7015 1.83175 46.8898 1.88465 48.076C1.96807 49.8971 3.33745 51.4354 5.26028 51.8545V42.2465H7.1363V52.0397H15.1267V53.9584C14.0137 53.9584 12.9658 53.9584 11.9179 53.9584C10.0867 53.9584 8.25541 53.9645 6.42414 53.9584C3.35169 53.9462 0.869316 52.0153 0.126638 49.0466C0.0289703 48.658 0.0187966 48.2429 0.0147271 47.84C0.00251871 46.4828 0.0432134 45.1257 0.00251871 43.7705C-0.0951486 40.458 2.65378 36.3458 7.17089 36.0182C9.97069 35.8147 12.7949 35.9388 15.6069 35.9734C16.2051 35.9816 16.5714 35.8615 16.962 35.3732C18.5308 33.4117 20.592 32.3699 23.1273 32.3557C25.4672 32.3414 27.8072 32.3699 30.1471 32.3475C32.9205 32.3211 35.1322 33.4137 36.8251 35.5929C36.9289 35.7252 37.0408 35.8493 37.0896 35.9063C39.8426 35.9063 42.5183 35.9042 45.196 35.9063C48.0976 35.9083 50.4721 36.9949 52.1691 39.3918C53.1112 40.7225 53.628 42.2017 53.5934 43.86C53.5669 45.1134 53.5914 46.3689 53.5873 47.6243C53.5791 50.9287 51.1883 53.7224 47.8941 53.9096C44.7871 54.0866 41.6637 53.9483 38.4285 53.9483V53.9401Z" fill="#FE3D00"/>
<path d="M12.4995 14.8043C11.6185 16.9224 10.8433 18.7862 10.0151 20.7823C8.90415 20.7823 7.65482 20.7823 6.40549 20.7823C6.10028 20.7823 5.79507 20.7701 5.48986 20.7884C4.80416 20.8291 4.56406 21.0367 4.55592 21.7081C4.53557 23.4377 4.54168 25.1651 4.55592 26.8947C4.55795 27.1124 4.61696 27.444 4.76346 27.5295C5.70961 28.0911 5.31284 28.9131 5.29046 29.6823C3.63011 29.5073 2.68396 28.5448 2.66361 26.9862C2.6392 25.1896 2.63716 23.3929 2.66361 21.5962C2.68803 20.0091 3.78475 18.9348 5.36574 18.9165C6.48078 18.9022 7.59785 18.9144 8.69661 18.9144C9.20122 17.7017 9.68142 16.5541 10.1962 15.317C9.51457 14.6313 8.79631 13.9192 8.08822 13.1948C6.63135 11.7033 6.63745 10.2343 8.10043 8.7611C9.15035 7.70304 10.2023 6.64498 11.2583 5.59099C12.7742 4.07918 14.2575 4.069 15.7571 5.57267C16.449 6.26855 17.1123 6.99292 17.7797 7.69694C18.4776 7.38562 19.0575 7.115 19.6476 6.86473C20.201 6.63074 20.7667 6.42116 21.3791 6.17903C21.3791 5.14131 21.371 4.12801 21.3791 3.11471C21.3974 1.17358 22.5247 0.0381934 24.4862 0.0137766C26.0122 -0.00657076 27.5362 -0.00250129 29.0623 0.0137766C31.0868 0.0341239 32.208 1.15933 32.2243 3.16355C32.2324 4.14429 32.2243 5.12707 32.2243 6.14647C33.3902 6.63888 34.5317 7.12314 35.897 7.70101C36.5359 7.00513 37.2175 6.21158 37.95 5.4689C39.2767 4.12801 40.7966 4.10359 42.1538 5.40989C43.3502 6.56155 44.5222 7.73967 45.6718 8.93813C46.909 10.2261 46.913 11.7155 45.684 13.0035C44.9373 13.7849 44.1295 14.5072 43.3726 15.2316C43.9016 16.5094 44.3757 17.657 44.8966 18.9124C45.9241 18.9124 46.9985 18.9083 48.0749 18.9124C49.8512 18.9226 50.9235 19.9725 50.9398 21.7427C50.956 23.4376 50.954 25.1326 50.9398 26.8275C50.9276 28.498 50.1116 29.4076 48.3251 29.7026C48.2885 28.9396 47.8714 28.1603 48.7911 27.5621C48.9762 27.442 49.0373 27.0249 49.0414 26.7441C49.0637 25.1163 49.0617 23.4906 49.0475 21.8628C49.0393 20.9878 48.846 20.7945 47.9589 20.7864C46.4715 20.7701 44.9841 20.7823 43.4703 20.7823C43.1243 19.765 42.8476 18.7923 42.461 17.8645C42.0744 16.9326 41.5779 16.0434 41.0672 15.0118C41.8364 14.2366 42.634 13.4206 43.4438 12.6169C44.5331 11.5344 44.5331 10.4547 43.4438 9.37763C42.6503 8.59019 41.8689 7.7885 41.0733 7.00309C40.1475 6.0895 39.9583 6.0956 39.0081 7.04175C38.0253 8.02046 37.0507 9.00731 36.1513 9.90869C34.202 9.0887 32.3484 8.30736 30.3259 7.45684C30.3259 6.4293 30.3259 5.21863 30.3259 4.00593C30.3259 3.66613 30.3401 3.32633 30.3218 2.98856C30.2811 2.24385 30.0145 1.9305 29.2617 1.91625C27.6359 1.88573 26.0081 1.88573 24.3804 1.91422C23.5726 1.92846 23.2877 2.23367 23.2735 3.04146C23.2531 4.36404 23.2694 5.68458 23.2633 7.00716C23.2633 7.20453 23.2307 7.40394 23.2246 7.46905C21.2774 8.28905 19.4217 9.07038 17.4012 9.92294C16.5263 9.02358 15.5435 7.99808 14.5404 6.99292C13.6492 6.09764 13.4355 6.09967 12.5484 6.97664C11.4883 8.02453 10.4302 9.07852 9.39045 10.1468C8.72306 10.8325 8.71899 11.1641 9.4108 11.8498C10.4444 12.8753 11.5127 13.8642 12.4955 14.8022L12.4995 14.8043Z" fill="#FE3D00"/>
<path d="M39.3691 24.2395C38.9683 24.266 38.7363 24.2904 38.5023 24.2945C38.2012 24.3026 37.9001 24.2945 37.5155 24.2945C37.3405 20.6218 35.8918 17.6511 32.9129 15.5268C30.7276 13.9662 28.2717 13.4147 25.6062 13.663C21.2722 14.0659 16.3644 17.7304 16.0958 24.2049H14.2422C14.409 19.7855 16.1854 16.2471 19.854 13.8441C24.131 11.0443 28.6542 10.8937 33.0899 13.4432C37.1594 15.7791 39.1189 19.4701 39.3671 24.2395H39.3691Z" fill="#FE3D00"/>
<path d="M16.9618 29.6456C17.1856 32.2806 14.7216 35.1354 11.6145 35.0784C8.60514 35.0214 6.14514 32.6387 6.20822 29.6558C6.27129 26.6505 8.51154 24.2922 11.6593 24.2495C14.6157 24.2088 16.9577 26.6749 16.9618 29.6456ZM11.6389 33.1759C13.4193 33.3265 15.1997 31.5847 15.1143 29.6233C15.0308 27.6984 13.5394 26.095 11.6288 26.1378C9.49025 26.1866 8.14325 27.7004 8.05779 29.6823C7.9764 31.5969 9.6693 33.18 11.6369 33.1739L11.6389 33.1759Z" fill="#FE3D00"/>
<path d="M36.6305 29.6392C36.6346 26.6726 38.9908 24.2024 41.9412 24.2472C45.1581 24.298 47.3373 26.7235 47.3841 29.6596C47.4309 32.6567 44.9872 35.015 41.9717 35.076C38.9827 35.1371 36.4087 32.3861 36.6305 29.6372V29.6392ZM41.9615 33.1756C43.9271 33.1797 45.6241 31.5844 45.5325 29.6759C45.4348 27.6777 44.0838 26.1822 41.9534 26.1395C40.0428 26.1008 38.5595 27.7062 38.476 29.6331C38.3906 31.5987 40.2035 33.3363 41.9615 33.1756Z" fill="#FE3D00"/>
<path d="M26.7891 20.703C29.363 20.5871 32.1648 22.7093 32.2076 26.1073C32.2462 29.0638 29.6947 31.5584 26.7585 31.5278C23.8428 31.4973 21.3604 29.0475 21.3909 26.1297C21.4255 22.5953 24.3657 20.585 26.7891 20.703ZM26.8501 22.577C24.8683 22.5526 23.2832 24.1031 23.2751 26.0727C23.2669 28.0179 24.8825 29.664 26.7992 29.664C28.6732 29.664 30.2786 28.0729 30.3234 26.1744C30.3702 24.2048 28.8197 22.6014 26.8481 22.577H26.8501Z" fill="#FE3D00"/>
<path d="M30.3399 52.1436V53.8873H23.2773V52.1436H30.3399Z" fill="#FE3D00"/>
</svg>
