<svg width="37" height="37" viewBox="0 0 37 37" fill="none" xmlns="http://www.w3.org/2000/svg">
<path d="M21.6127 1.84885C22.707 1.48827 23.7095 1.60853 24.6749 2.10637C25.5497 2.55702 26.4224 3.01179 27.2947 3.46898C29.2674 4.50309 30.0606 6.79291 29.0594 8.78624C27.6282 11.6364 26.1373 14.4572 24.6694 17.2891C22.6226 21.2369 20.5775 25.1865 18.5142 29.1258C18.353 29.4335 18.0945 29.7236 17.8139 29.929C15.1958 31.8544 12.5624 33.7605 9.93206 35.6691C9.78634 35.7746 9.63568 35.8863 9.47089 35.9531C9.00958 36.1419 8.58151 35.9372 8.44135 35.4628C8.39651 35.3095 8.38617 35.1418 8.38818 34.9806C8.43407 31.6214 8.4789 28.2625 8.54104 24.904C8.5461 24.6431 8.62624 24.3621 8.74571 24.1295C12.2281 17.3966 15.7212 10.6684 19.2109 3.93671C19.7458 2.90343 20.5173 2.15127 21.6127 1.84885ZM10.4235 24.3434C12.7572 25.5403 15.0541 26.719 17.1946 27.8161C20.2194 22.1071 23.2603 16.3655 26.2733 10.6773C23.9621 9.47908 21.674 8.29194 19.5042 7.16733C16.4906 12.8682 13.4588 18.6024 10.4232 24.3424L10.4235 24.3434Z" fill="#030611"/>
</svg>
