<svg width="1491" height="821" viewBox="0 0 1491 821" fill="none" xmlns="http://www.w3.org/2000/svg">
<path d="M1491 775.505C1486.43 779.188 1482.07 778.698 1478.89 778.344C1476.04 778.026 1474.7 777.943 1472.89 779.401C1471.08 780.859 1470.86 782.188 1470.55 785.057C1470.2 788.25 1469.72 792.625 1465.15 796.307C1460.58 799.99 1456.22 799.5 1453.04 799.146C1450.19 798.828 1448.85 798.745 1447.04 800.203C1445.23 801.661 1445.01 802.99 1444.7 805.854C1444.35 809.047 1443.87 813.422 1439.3 817.104C1434.73 820.786 1430.37 820.297 1427.19 819.943C1424.34 819.625 1423 819.542 1421.19 821L1416 814.495C1420.57 810.813 1424.93 811.302 1428.11 811.656C1430.96 811.974 1432.3 812.057 1434.11 810.599C1435.92 809.141 1436.14 807.813 1436.45 804.948C1436.8 801.755 1437.28 797.38 1441.85 793.698C1446.42 790.016 1450.78 790.505 1453.96 790.859C1456.81 791.177 1458.15 791.26 1459.96 789.802C1461.78 788.344 1461.99 787.016 1462.3 784.146C1462.65 780.953 1463.13 776.578 1467.7 772.896C1472.27 769.214 1476.63 769.703 1479.81 770.057C1482.66 770.375 1484 770.458 1485.81 769L1491 775.505Z" fill="#E1DDF5"/>
<path d="M1485.42 769.267C1486.85 771.058 1486.58 773.759 1484.46 774.622C1481.22 775.939 1478.23 775.605 1475.89 775.344C1473.04 775.026 1471.7 774.943 1469.89 776.401C1468.08 777.859 1467.86 779.188 1467.55 782.057C1467.2 785.25 1466.72 789.625 1462.15 793.307C1457.58 796.99 1453.22 796.5 1450.04 796.146C1447.19 795.828 1445.85 795.745 1444.04 797.203C1442.23 798.661 1442.01 799.99 1441.7 802.854C1441.35 806.047 1440.87 810.422 1436.3 814.104C1431.73 817.786 1427.37 817.297 1424.19 816.943C1423.37 816.851 1422.68 816.78 1422.06 816.758C1419.76 816.677 1417.02 816.535 1415.58 814.733C1414.15 812.942 1414.42 810.241 1416.54 809.378C1419.78 808.061 1422.77 808.395 1425.11 808.656C1427.96 808.974 1429.3 809.057 1431.11 807.599C1432.92 806.141 1433.14 804.813 1433.45 801.948C1433.8 798.755 1434.28 794.38 1438.85 790.698C1443.42 787.016 1447.78 787.505 1450.96 787.859C1453.81 788.177 1455.15 788.26 1456.96 786.802C1458.78 785.344 1458.99 784.016 1459.3 781.146C1459.65 777.953 1460.13 773.578 1464.7 769.896C1469.27 766.214 1473.63 766.703 1476.81 767.057C1477.63 767.149 1478.32 767.22 1478.94 767.242C1481.24 767.323 1483.98 767.465 1485.42 769.267Z" fill="url(#paint0_linear_187_60)" fill-opacity="0.5"/>
<circle cx="1209" cy="235" r="8" fill="#6640FF"/>
<circle cx="394" cy="6" r="6" fill="#6640FF"/>
<path fill-rule="evenodd" clip-rule="evenodd" d="M86.4041 125.403C78.3831 120.772 68.1267 123.52 63.4958 131.541L57.2069 142.433L46.3143 136.145C38.2933 131.514 28.0368 134.262 23.4059 142.283C18.775 150.304 21.5232 160.56 29.5442 165.191L40.4369 171.48L34.1482 182.372C29.5173 190.393 32.2654 200.65 40.2864 205.281C48.3075 209.912 58.5639 207.163 63.1948 199.142L69.4835 188.25L80.3757 194.539C88.3967 199.17 98.6531 196.421 103.284 188.4C107.915 180.379 105.167 170.123 97.1458 165.492L86.2535 159.204L92.5424 148.311C97.1733 140.29 94.4251 130.033 86.4041 125.403Z" fill="url(#paint1_linear_187_60)"/>
<defs>
<linearGradient id="paint0_linear_187_60" x1="1450.5" y1="766" x2="1450.5" y2="818" gradientUnits="userSpaceOnUse">
<stop stop-color="#9888F4"/>
<stop offset="1" stop-color="#907EF3"/>
</linearGradient>
<linearGradient id="paint1_linear_187_60" x1="86.4039" y1="125.402" x2="40.2862" y2="205.281" gradientUnits="userSpaceOnUse">
<stop stop-color="#A586FE" offset="0%"/>
<stop offset="1" stop-color="#A586FE" stop-opacity="0"/>
</linearGradient>
</defs>
</svg>
