<svg width="70" height="71" viewBox="0 0 70 71" fill="none" xmlns="http://www.w3.org/2000/svg">
<path d="M50.1911 70.4508V68.0643H60.5715V55.154H63.0244V67.7003C64.2921 67.6604 65.1425 67.0412 65.8787 66.3157C66.9523 65.258 67.5715 63.9558 67.5662 62.4064C67.5582 60.6338 67.5981 58.8613 67.5556 57.0913C67.4626 53.214 64.4356 49.7777 60.5582 49.5093C57.1646 49.2728 53.7443 49.403 50.3373 49.3791C50.1752 49.3791 50.0104 49.4774 49.8403 49.5333C50.6535 54.4072 50.1938 59.2785 50.2523 64.1338C50.2974 67.9368 47.6851 70.4508 43.9087 70.4694C42.9387 70.4747 41.966 70.4694 41.0306 70.4694C40.6798 69.4675 40.5867 53.4292 40.9083 51.6566H43.1141V67.8677C45.9736 68.2876 47.8126 66.8047 47.8392 64.1365C47.8764 60.4159 47.9269 56.6927 47.8259 52.9748C47.717 48.8635 45.2747 45.7569 41.1767 44.8002C40.7515 44.7018 40.2971 44.7098 39.8559 44.7071C36.6217 44.6992 33.3901 44.6912 30.1559 44.7071C26.3795 44.7257 23.0283 47.556 22.4171 51.2633C22.2603 52.2174 22.1726 53.1927 22.1646 54.16C22.1354 57.4368 22.138 60.7162 22.1593 63.993C22.1779 66.7781 23.9425 68.2796 26.8339 67.889V51.6593H29.0158C29.324 52.5788 29.4064 68.7101 29.0822 70.411C27.3176 70.4668 25.5211 70.698 23.7591 70.116C21.4391 69.3479 19.802 67.1767 19.7542 64.5458C19.6825 60.5621 19.709 56.5731 19.7595 52.5868C19.7728 51.5849 20.0333 50.5856 20.1954 49.4907C19.8286 49.4402 19.4885 49.3579 19.1483 49.3579C16.3127 49.3499 13.4771 49.2941 10.6441 49.3711C6.54352 49.4801 3.53783 51.8453 2.63161 55.6403C2.44026 56.4455 2.45089 57.3066 2.43761 58.1411C2.41369 59.6904 2.39243 61.2424 2.46152 62.7918C2.57048 65.1703 4.35902 67.1794 6.8704 67.7268V55.1779H9.32066V67.9687H19.7569V70.4747C18.3032 70.4747 16.9345 70.4747 15.5659 70.4747C13.1741 70.4747 10.7823 70.4827 8.39052 70.4747C4.37762 70.4588 1.13541 67.9368 0.1654 64.0594C0.0378378 63.5518 0.0245501 63.0097 0.019235 62.4835C0.00328967 60.7109 0.0564407 58.9383 0.00328967 57.1684C-0.124273 52.8419 3.46608 47.471 9.36584 47.0431C13.0226 46.7774 16.7113 46.9395 20.384 46.9847C21.1654 46.9953 21.6437 46.8385 22.154 46.2007C24.2029 43.6388 26.895 42.2781 30.2064 42.2595C33.2625 42.2409 36.3187 42.2781 39.3749 42.2489C42.9972 42.2144 45.8859 43.6415 48.097 46.4877C48.2325 46.6604 48.3787 46.8225 48.4425 46.897C52.0381 46.897 55.5328 46.8943 59.0302 46.897C62.8198 46.8996 65.9212 48.3187 68.1376 51.4493C69.368 53.1874 70.043 55.1194 69.9979 57.2853C69.9633 58.9224 69.9952 60.5621 69.9899 62.2018C69.9793 66.5177 66.8566 70.1665 62.5541 70.411C58.496 70.6422 54.4166 70.4615 50.1911 70.4615V70.4508Z" fill="#25917A"/>
<path d="M16.3247 19.3357C15.1739 22.1022 14.1614 24.5365 13.0798 27.1436C11.6288 27.1436 9.99702 27.1436 8.36529 27.1436C7.96665 27.1436 7.56802 27.1277 7.16939 27.1516C6.27379 27.2047 5.9602 27.4758 5.94957 28.3528C5.923 30.6117 5.93097 32.868 5.94957 35.1269C5.95223 35.4112 6.0293 35.8444 6.22064 35.956C7.4564 36.6895 6.93818 37.7632 6.90895 38.7677C4.74039 38.5392 3.50463 37.2822 3.47805 35.2465C3.44616 32.8999 3.4435 30.5532 3.47805 28.2066C3.50994 26.1337 4.94236 24.7306 7.00728 24.7066C8.46362 24.688 9.92261 24.704 11.3577 24.704C12.0168 23.1201 12.6439 21.6212 13.3163 20.0054C12.426 19.1098 11.4879 18.1797 10.5631 17.2336C8.66027 15.2856 8.66825 13.3669 10.579 11.4428C11.9503 10.0609 13.3243 8.67895 14.7035 7.30234C16.6834 5.32778 18.6208 5.31449 20.5794 7.27842C21.483 8.1873 22.3493 9.13339 23.221 10.0529C24.1325 9.6463 24.8899 9.29284 25.6606 8.96596C26.3835 8.66035 27.1223 8.38662 27.9222 8.07037C27.9222 6.71502 27.9116 5.39156 27.9222 4.0681C27.9461 1.5328 29.4184 0.0498841 31.9803 0.0179935C33.9734 -0.00858201 35.964 -0.00326691 37.9571 0.0179935C40.6014 0.044569 42.0657 1.51419 42.087 4.13188C42.0976 5.41282 42.087 6.69642 42.087 8.02785C43.6097 8.67098 45.1006 9.30347 46.8838 10.0582C47.7183 9.14933 48.6086 8.11289 49.5653 7.14289C51.298 5.39156 53.2832 5.35967 55.0558 7.06582C56.6184 8.56999 58.1492 10.1087 59.6507 11.674C61.2665 13.3562 61.2718 15.3016 59.6667 16.9838C58.6913 18.0043 57.6363 18.9477 56.6477 19.8938C57.3386 21.5627 57.9579 23.0616 58.6382 24.7013C59.9802 24.7013 61.3834 24.696 62.7893 24.7013C65.1093 24.7146 66.5098 26.0859 66.5311 28.398C66.5524 30.6117 66.5497 32.8254 66.5311 35.0392C66.5152 37.221 65.4495 38.409 63.1162 38.7943C63.0683 37.7977 62.5235 36.7799 63.7247 35.9986C63.9666 35.8418 64.0463 35.297 64.0516 34.9302C64.0808 32.8042 64.0782 30.6808 64.0596 28.5548C64.049 27.412 63.7965 27.1596 62.6378 27.1489C60.6951 27.1277 58.7525 27.1436 56.7752 27.1436C56.3235 25.8148 55.962 24.5445 55.4571 23.3327C54.9522 22.1155 54.3037 20.9542 53.6367 19.6068C54.6412 18.5943 55.683 17.5286 56.7407 16.4789C58.1634 15.065 58.1634 13.6548 56.7407 12.248C55.7042 11.2196 54.6838 10.1725 53.6446 9.14668C52.4355 7.95344 52.1883 7.96141 50.9472 9.19717C49.6636 10.4755 48.3907 11.7644 47.216 12.9417C44.6701 11.8707 42.2491 10.8502 39.6075 9.73931C39.6075 8.39725 39.6075 6.81601 39.6075 5.23211C39.6075 4.7883 39.6261 4.34448 39.6021 3.90333C39.549 2.93067 39.2009 2.52141 38.2176 2.5028C36.0942 2.46294 33.9681 2.46294 31.8421 2.50014C30.787 2.51875 30.415 2.91738 30.3964 3.97243C30.3698 5.69984 30.3911 7.42458 30.3831 9.15199C30.3831 9.40977 30.3406 9.67021 30.3326 9.75526C27.7893 10.8262 25.3656 11.8467 22.7267 12.9603C21.5839 11.7856 20.3003 10.4462 18.9902 9.13339C17.8262 7.96407 17.5471 7.96672 16.3884 9.11213C15.0038 10.4808 13.6219 11.8574 12.2639 13.2526C11.3922 14.1482 11.3869 14.5814 12.2905 15.477C13.6405 16.8164 15.0357 18.1079 16.3193 19.3331L16.3247 19.3357Z" fill="#25917A"/>
<path d="M51.4197 31.6588C50.8961 31.6933 50.5932 31.7252 50.2875 31.7305C49.8942 31.7412 49.5009 31.7305 48.9986 31.7305C48.7701 26.9337 46.8779 23.0536 42.9872 20.2792C40.133 18.2408 36.9254 17.5206 33.444 17.8448C27.7834 18.371 21.3734 23.1573 21.0226 31.6136H18.6016C18.8195 25.8414 21.1395 21.2199 25.9311 18.0814C31.5173 14.4246 37.425 14.2279 43.2185 17.5578C48.5336 20.6087 51.0928 25.4295 51.417 31.6588H51.4197Z" fill="#25917A"/>
<path d="M22.1522 38.7196C22.4445 42.1611 19.2262 45.8897 15.1681 45.8153C11.2376 45.7409 8.02463 42.6289 8.10702 38.7329C8.1894 34.8077 11.1154 31.7276 15.2266 31.6718C19.088 31.6186 22.1469 34.8396 22.1522 38.7196ZM15.2 43.3305C17.5254 43.5271 19.8507 41.2523 19.7391 38.6904C19.6302 36.1763 17.6822 34.0822 15.1867 34.138C12.3936 34.2018 10.6343 36.179 10.5227 38.7674C10.4164 41.2682 12.6275 43.3358 15.1974 43.3278L15.2 43.3305Z" fill="#25917A"/>
<path d="M47.8456 38.7117C47.8509 34.837 50.9283 31.6108 54.7818 31.6692C58.9834 31.7357 61.8296 34.9035 61.8907 38.7383C61.9518 42.6529 58.7601 45.733 54.8216 45.8127C50.9177 45.8924 47.5559 42.2994 47.8456 38.7091V38.7117ZM54.8083 43.3306C57.3755 43.3359 59.5919 41.2524 59.4723 38.7596C59.3448 36.1499 57.5802 34.1966 54.7977 34.1408C52.3023 34.0903 50.3649 36.1871 50.256 38.7038C50.1443 41.271 52.5122 43.5405 54.8083 43.3306Z" fill="#25917A"/>
<path d="M34.9883 27.0401C38.3501 26.8886 42.0096 29.6605 42.0654 34.0986C42.1159 37.96 38.7833 41.2181 34.9485 41.1783C31.1402 41.1384 27.898 37.9387 27.9379 34.1278C27.983 29.5116 31.8232 26.886 34.9883 27.0401ZM35.0681 29.4877C32.4796 29.4558 30.4094 31.4809 30.3988 34.0534C30.3881 36.594 32.4982 38.744 35.0016 38.744C37.4492 38.744 39.546 36.6658 39.6045 34.1863C39.6656 31.6138 37.6406 29.5196 35.0654 29.4877H35.0681Z" fill="#25917A"/>
<path d="M39.6267 68.1045V70.382H30.4023V68.1045H39.6267Z" fill="#25917A"/>
</svg>
