<svg width="64" height="72" viewBox="0 0 64 72" fill="none" xmlns="http://www.w3.org/2000/svg">
<path d="M23.5647 39.8691C23.3995 39.2843 23.2673 38.8064 23.13 38.3258C22.4766 36.0453 22.3698 33.7291 22.9647 31.4435C23.2012 30.5333 23.6893 29.6155 24.2843 28.8832C26.0004 26.7705 29.1683 26.8646 30.742 29.0841C31.3649 29.9638 31.7463 31.0265 32.1683 32.0359C32.5599 32.9689 32.7785 33.9757 33.2133 34.8834C34.3294 37.2123 36.1167 38.8089 38.6515 39.4801C39.01 39.5742 39.3863 39.6098 39.7956 39.6784C39.8567 39.442 39.9202 39.2869 39.938 39.1293C40.1567 37.1665 41.3262 36.0478 43.2762 36.0351C46.8789 36.0122 50.4789 36.0275 54.0816 36.0275C56.2426 36.0275 58.4037 35.9919 60.5648 36.0504C61.2131 36.0682 61.9046 36.2512 62.4869 36.5385C63.4148 36.9962 63.9284 37.8148 63.9666 38.8852C63.9793 39.2665 63.9971 39.6479 63.9971 40.0293C63.9971 49.4363 63.9996 58.8433 63.9971 68.2503C63.9971 69.0918 64.0683 69.9486 63.5496 70.7063C63.1937 71.2224 62.7945 71.5351 62.0979 71.5351C55.3604 71.5122 48.623 71.5122 41.8855 71.5351C41.1991 71.5351 40.7516 71.2732 40.4389 70.7139C40.2355 70.3453 40.0728 69.9563 39.8236 69.4351C39.3812 69.4351 38.8829 69.4351 38.3846 69.4351C31.1387 69.4351 23.8927 69.4401 16.6468 69.4274C16.0163 69.4274 15.3781 69.3766 14.7578 69.2673C11.4424 68.6723 9.90425 65.7663 11.2645 62.7027C11.3306 62.5527 11.4043 62.4052 11.4704 62.2654C8.5949 59.7204 8.22371 58.3856 9.58899 55.3627C8.49066 54.6762 7.57538 53.8169 7.12537 52.505C6.65502 51.1346 7.03385 49.9321 7.63895 48.6532C7.35165 48.4295 7.05927 48.2057 6.76943 47.9769C5.29482 46.8099 4.66176 44.8141 5.22109 43.0802C5.80585 41.2624 7.48386 39.9174 9.3856 39.8945C13.156 39.8488 16.929 39.8742 20.6994 39.8716C21.6274 39.8716 22.5529 39.8716 23.5647 39.8716V39.8691ZM39.8923 42.1115C35.4532 41.453 32.448 39.1496 30.7878 35.13C30.4827 34.3902 30.3302 33.5868 30.02 32.8494C29.6666 32.0003 29.3335 31.1028 28.7844 30.3858C28.0038 29.3689 26.7428 29.407 25.9775 30.4418C25.5428 31.0316 25.2148 31.7765 25.075 32.4986C24.5792 35.0309 25.0216 37.4563 26.1402 39.7674C26.2699 40.0344 26.4453 40.2861 26.5241 40.5657C26.753 41.3691 26.4504 41.898 25.6292 42.0632C25.136 42.1624 24.6199 42.1751 24.1139 42.1776C19.6214 42.1853 15.1315 42.1776 10.639 42.1878C10.0899 42.1878 9.53052 42.1954 8.9966 42.3048C8.07624 42.4929 7.35673 43.3929 7.30334 44.3006C7.24995 45.2413 7.93895 46.2404 8.89491 46.4972C9.37797 46.6269 9.89408 46.6523 10.3975 46.6955C10.8195 46.7311 11.2467 46.7032 11.6662 46.7464C12.1975 46.7998 12.5001 47.1328 12.5713 47.654C12.6501 48.2388 12.378 48.6456 11.8416 48.8464C11.5289 48.9634 11.178 48.9812 10.8577 49.0854C9.75933 49.4388 9.18474 50.2804 9.26864 51.3787C9.34746 52.3931 10.156 53.227 11.2492 53.3669C11.7094 53.4254 12.1797 53.3872 12.645 53.4254C13.0213 53.4559 13.4026 53.4991 13.7637 53.6008C14.2823 53.7457 14.501 54.1677 14.4857 54.6712C14.4705 55.1796 14.1857 55.5534 13.6849 55.7034C13.2831 55.8229 12.8535 55.861 12.4619 56.0059C11.6153 56.3212 11.1933 57.0432 11.117 57.8644C11.0382 58.7111 11.4501 59.4611 12.2382 59.8425C12.7136 60.0738 13.2755 60.1603 13.8094 60.2315C14.351 60.3026 14.9154 60.2187 15.4544 60.3077C15.9959 60.3967 16.3569 60.7552 16.3925 61.3501C16.4281 61.9476 16.1154 62.3137 15.5866 62.4968C15.3095 62.5908 15.0018 62.5908 14.7171 62.6696C13.7662 62.9341 13.1306 63.7375 13.0874 64.701C13.0442 65.7002 13.5501 66.5138 14.5264 66.8494C14.9942 67.0096 15.5154 67.0782 16.0137 67.0808C23.641 67.0935 31.2658 67.0909 38.8931 67.0858C39.216 67.0858 39.5389 67.0299 39.8872 66.9969V42.1141L39.8923 42.1115ZM61.7877 54.1169C61.7877 49.5456 61.7877 44.9718 61.7877 40.4005C61.7877 40.103 61.8055 39.8055 61.7801 39.5106C61.7089 38.7148 61.3911 38.3792 60.5978 38.2826C60.2648 38.2419 59.9215 38.2623 59.5834 38.2623C54.5036 38.2623 49.4238 38.2623 44.3415 38.2623C44.044 38.2623 43.7466 38.247 43.4542 38.275C42.5872 38.3564 42.3457 38.6055 42.2872 39.4521C42.2694 39.7038 42.2796 39.9606 42.2796 40.2149C42.2796 49.4871 42.2796 58.7568 42.2796 68.0291C42.2796 68.3266 42.2643 68.624 42.2949 68.9164C42.366 69.6664 42.5542 69.8393 43.3347 69.9003C43.5864 69.9207 43.8432 69.908 44.0974 69.908C49.3476 69.908 54.5977 69.908 59.8453 69.908C60.1427 69.908 60.4377 69.8978 60.7351 69.9003C61.3606 69.9029 61.6606 69.5266 61.7521 68.9749C61.8131 68.6037 61.7902 68.2147 61.7902 67.8359C61.7902 63.2646 61.7902 58.6907 61.7902 54.1194L61.7877 54.1169Z" fill="#25907A"/>
<path d="M26.7339 0.0929011C26.8534 0.0471373 26.8915 0.0217129 26.9322 0.0191705C28.2254 -0.107951 29.1534 0.397146 29.7161 1.53446C30.3899 2.89721 31.0814 4.25232 31.7323 5.62778C32.0348 6.26847 32.4543 6.53288 33.1916 6.60662C35.1214 6.7973 37.0409 7.11002 38.9604 7.39731C39.5045 7.47867 40.0664 7.60579 40.2825 8.22615C40.5164 8.90243 40.1249 9.36261 39.6952 9.7872C38.3401 11.1245 37.0053 12.4847 35.5968 13.761C34.9891 14.3102 34.7959 14.8416 34.9536 15.6348C35.3146 17.4501 35.6044 19.2832 35.9171 21.1087C35.968 21.3985 36.0163 21.6985 36.001 21.9909C35.9502 22.8884 35.251 23.3511 34.4196 23.0409C34.1044 22.924 33.812 22.746 33.512 22.5884C31.9789 21.7824 30.428 21.007 28.9204 20.1578C28.1932 19.7485 27.5983 19.6849 26.833 20.1247C25.1118 21.1137 23.3168 21.968 21.5753 22.9214C20.6041 23.4553 19.9303 22.9265 19.7371 22.2909C19.6684 22.0646 19.6913 21.7951 19.732 21.5536C20.0676 19.5171 20.393 17.4755 20.782 15.4467C20.9015 14.8288 20.7693 14.4144 20.3219 13.9898C18.9718 12.7085 17.6548 11.394 16.3226 10.0897C16.1421 9.91178 15.9489 9.74398 15.7811 9.5533C14.9777 8.63039 15.2166 7.76088 16.4268 7.49901C17.7438 7.21426 19.0913 7.05663 20.4286 6.86086C21.2193 6.74391 22.0151 6.63712 22.8134 6.57611C23.4109 6.53034 23.6957 6.18203 23.9296 5.69134C24.6262 4.24469 25.3432 2.80822 26.0576 1.37175C26.2813 0.919192 26.5279 0.479351 26.7339 0.0903586V0.0929011ZM33.3213 19.8705C33.0366 18.0857 32.8662 16.5323 32.523 15.0195C32.2993 14.0381 32.6374 13.428 33.3035 12.7974C34.4069 11.7525 35.4442 10.6415 36.5553 9.51007C36.3061 9.41601 36.0875 9.2838 35.8536 9.25075C34.5595 9.06006 33.2679 8.82616 31.9637 8.73972C30.9924 8.67361 30.4255 8.26682 30.0289 7.39477C29.3882 5.97609 28.6534 4.59809 27.8983 3.07772C27.6771 3.4362 27.5068 3.66756 27.3822 3.91926C26.833 5.01505 26.2686 6.10576 25.7652 7.22443C25.3457 8.15242 24.7762 8.75243 23.6677 8.7448C23.0423 8.73972 22.4117 8.89481 21.7863 8.99142C20.9371 9.12617 20.0905 9.27363 19.0303 9.45414C20.2252 10.6364 21.2041 11.6889 22.277 12.6373C23.1338 13.3949 23.505 14.1983 23.1338 15.3221C22.9634 15.8382 22.9075 16.395 22.8261 16.9365C22.6914 17.8416 22.5795 18.7518 22.4321 19.8451C23.9677 19.0493 25.3406 18.3933 26.6551 17.6357C27.4788 17.1603 28.1856 17.1221 29.0221 17.6026C30.3721 18.3781 31.7755 19.0645 33.3239 19.8756L33.3213 19.8705Z" fill="#25907A"/>
<path d="M8.26912 27.8129C7.05892 28.4435 5.89957 29.046 4.74276 29.6537C4.24445 29.9155 3.7385 30.1749 3.20714 29.7681C2.71645 29.3943 2.6478 28.9011 2.77492 28.2985C2.9834 27.3121 3.07493 26.2976 3.27578 25.3086C3.41816 24.6196 3.29104 24.101 2.73933 23.6205C1.9766 22.9543 1.29777 22.1916 0.550292 21.5052C0.0977391 21.0907 -0.100571 20.6128 0.0494328 20.0331C0.201979 19.4534 0.674871 19.3212 1.21895 19.2526C2.26389 19.1178 3.29866 18.8941 4.3436 18.7746C5.00464 18.6983 5.41143 18.4263 5.68092 17.8034C6.08263 16.8754 6.58349 15.9881 7.0157 15.0728C7.26486 14.544 7.58266 14.1067 8.21573 14.0914C8.90727 14.0762 9.25558 14.5465 9.52508 15.1135C9.94204 15.9906 10.4276 16.8373 10.7887 17.7373C11.0658 18.4288 11.5209 18.6856 12.215 18.7695C13.3031 18.9017 14.3888 19.0644 15.4617 19.2805C16.6769 19.5271 16.9668 20.389 16.1354 21.2891C15.36 22.1255 14.5337 22.9162 13.6972 23.6917C13.2523 24.1035 13.0641 24.5001 13.2192 25.1332C13.4709 26.1553 13.6006 27.2053 13.7938 28.2426C13.9006 28.8197 13.8472 29.3511 13.354 29.735C12.8379 30.1367 12.3294 29.9537 11.8184 29.6791C10.6641 29.0587 9.5022 28.4587 8.26658 27.8079L8.26912 27.8129ZM5.38092 26.6917C6.16907 26.2875 6.7462 26.0281 7.29028 25.7053C7.98945 25.2908 8.64032 25.3264 9.32169 25.7383C9.8734 26.0714 10.4556 26.3536 11.1726 26.7375C11.0099 25.8476 10.9056 25.1866 10.7632 24.5332C10.6158 23.8493 10.7861 23.2899 11.2921 22.8069C11.8056 22.3162 12.2938 21.7975 12.8633 21.2204C12.2124 21.1162 11.6429 20.9763 11.0683 20.9433C10.12 20.8873 9.49203 20.478 9.13863 19.5755C8.92253 19.0212 8.59455 18.5102 8.25132 17.8491C7.88013 18.5788 7.56741 19.128 7.31825 19.7051C6.97756 20.4958 6.38009 20.8518 5.55126 20.9331C4.97158 20.989 4.39445 21.1035 3.62664 21.2204C4.12241 21.7162 4.46818 22.1459 4.89277 22.4687C5.80804 23.1654 5.8894 24.0628 5.65296 25.0824C5.55126 25.5273 5.50041 25.9824 5.386 26.6917H5.38092Z" fill="#25907A"/>
<path d="M50.3247 27.8131C49.1272 28.4411 47.9297 29.0589 46.7399 29.6945C46.2695 29.9462 45.8144 30.1089 45.3085 29.7962C44.7415 29.4479 44.711 28.8987 44.8 28.3419C45.011 27.0122 45.2526 25.6876 45.4865 24.3299C44.622 23.4681 43.7551 22.6011 42.8881 21.7392C42.7076 21.5612 42.5042 21.4011 42.3466 21.2053C41.7008 20.3943 41.9932 19.4968 43.0101 19.2985C44.1263 19.0798 45.2551 18.9146 46.3839 18.7773C47.0323 18.6985 47.4696 18.4391 47.7441 17.8239C48.1738 16.8603 48.6721 15.9272 49.1349 14.9789C49.3713 14.4933 49.7069 14.1017 50.2688 14.0839C50.8891 14.0611 51.2578 14.4628 51.512 14.9992C51.929 15.8764 52.3943 16.7306 52.7832 17.6179C53.1036 18.3451 53.5663 18.729 54.3977 18.7976C55.4452 18.8815 56.4876 19.0773 57.5173 19.2883C58.6919 19.5298 58.9919 20.4197 58.1859 21.3197C57.5096 22.0723 56.785 22.7943 55.9994 23.4325C55.3536 23.9587 55.163 24.5511 55.3053 25.3215C55.4426 26.0664 55.5698 26.8114 55.7045 27.5563C55.7274 27.6809 55.7884 27.8004 55.7935 27.9249C55.8215 28.5834 56.0655 29.3004 55.3689 29.786C54.7104 30.2436 54.1638 29.8191 53.6095 29.5318C52.5239 28.9699 51.4408 28.3978 50.3247 27.8131ZM53.1824 26.6741C53.068 25.83 53.0426 25.1511 52.8748 24.513C52.6739 23.7503 52.9282 23.2138 53.4621 22.718C53.9477 22.268 54.4053 21.7824 54.9748 21.2129C54.2197 21.1011 53.64 20.9866 53.0578 20.9358C52.2341 20.8646 51.6315 20.5468 51.2934 19.7383C51.0391 19.1256 50.6832 18.5561 50.312 17.8518C49.9459 18.584 49.6179 19.1713 49.351 19.7841C49.0255 20.5315 48.4509 20.8468 47.678 20.9282C47.0551 20.9917 46.4373 21.096 45.6416 21.2078C46.1958 21.7621 46.6128 22.2324 47.0882 22.6367C47.767 23.2138 48.0518 23.852 47.7721 24.7571C47.5941 25.3317 47.5865 25.9596 47.4823 26.702C48.2272 26.308 48.8272 26.0079 49.4069 25.6749C50.0095 25.3291 50.5891 25.3139 51.2019 25.6571C51.7892 25.9851 52.3968 26.2724 53.1824 26.6741Z" fill="#25907A"/>
<path d="M49.9982 64.3022C50.8041 64.3022 51.6075 64.292 52.4135 64.3073C52.7059 64.3124 53.0694 64.2869 53.2678 64.442C53.5728 64.681 53.939 65.0547 53.9593 65.3929C53.9796 65.7259 53.6593 66.1378 53.3847 66.4099C53.2042 66.5904 52.8406 66.6489 52.5584 66.6514C50.8219 66.6717 49.0855 66.687 47.349 66.6514C46.4896 66.6336 45.9557 66.1353 45.9379 65.4768C45.9201 64.831 46.4693 64.3403 47.3286 64.3098C48.2159 64.2793 49.1083 64.3022 49.9982 64.3022Z" fill="#25907A"/>
</svg>
