<svg width="56" height="67" viewBox="0 0 56 67" fill="none" xmlns="http://www.w3.org/2000/svg">
<path d="M35.226 42.37C35.226 45.1054 35.167 47.8973 35.2425 50.6822C35.3226 53.6723 37.4425 55.745 40.4043 55.8865C44.0287 56.0587 46.5495 58.5818 46.7027 62.2109C46.7381 63.074 46.731 63.9394 46.7051 64.8048C46.6721 65.9862 46.3184 66.3352 45.1275 66.3375C40.5694 66.347 36.0112 66.3423 31.453 66.3423C24.6948 66.3423 17.9341 66.3423 11.1759 66.3423C9.53464 66.3423 9.2611 66.0782 9.26818 64.4299C9.27289 63.4112 9.23045 62.376 9.37665 61.3738C9.84119 58.1739 12.2464 56.0304 15.477 55.8983C17.7408 55.8064 19.3843 54.7971 20.2686 52.7102C20.5516 52.0405 20.7143 51.2718 20.7308 50.5455C20.7874 48.0318 20.7332 45.5157 20.7662 43.002C20.7733 42.3983 20.5728 42.08 20.0257 41.8536C18.045 41.0377 16.3212 39.8209 14.7036 38.4296C14.364 38.1372 13.923 37.9203 13.4915 37.7859C11.921 37.3001 10.327 36.8875 8.75647 36.4041C3.58048 34.8029 0.0409998 30.0655 0.0103448 24.6797C-0.0085199 21.1826 0.00327051 17.6856 0.00798668 14.1862C0.00798668 12.637 0.170694 12.4742 1.67751 12.4695C3.44607 12.4648 5.21463 12.4695 6.9832 12.4648C7.36756 12.4648 7.74957 12.4342 8.19525 12.4129V8.32874C7.34634 8.32874 6.49979 8.33582 5.65324 8.32874C4.43647 8.31459 4.1252 8.02691 4.10869 6.79599C4.08511 5.1076 4.09219 3.41686 4.10398 1.72612C4.11577 0.290044 4.40581 0.00471616 5.83481 0.00235808C11.4942 0 17.1536 0 22.813 0C31.8515 0 40.8901 0 49.9286 0C51.6476 0 51.874 0.228734 51.8787 1.98315C51.8834 3.59372 51.8976 5.20664 51.8717 6.81721C51.8528 8.03162 51.5345 8.31224 50.3059 8.3311C49.5607 8.34053 48.8132 8.34289 48.0681 8.35468C47.9973 8.35468 47.9289 8.40656 47.7898 8.46315V12.3917C48.1082 12.4153 48.4454 12.4625 48.7826 12.4625C50.7091 12.4695 52.6333 12.4554 54.5599 12.4695C55.7035 12.479 55.9653 12.7218 55.9676 13.8537C55.9771 17.6644 56.0502 21.4798 55.9393 25.2881C55.812 29.6033 52.9045 34.8383 46.6461 36.6069C46.2689 36.713 45.8892 36.8096 45.5095 36.8993C43.326 37.4133 41.3074 38.1538 39.5625 39.7195C38.3646 40.7948 36.7823 41.4433 35.2307 42.3676L35.226 42.37ZM10.5038 8.39477C10.4873 8.75084 10.4614 9.05267 10.4614 9.35687C10.4614 14.3065 10.4519 19.2561 10.4732 24.2057C10.4779 25.064 10.5651 25.9318 10.6995 26.7807C12.1757 36.081 21.2732 42.6718 30.5687 41.1933C39.296 39.8044 45.4883 32.584 45.5119 23.7435C45.5261 19.0297 45.5143 14.3159 45.5143 9.60211C45.5143 9.2201 45.5143 8.83809 45.5143 8.39477H10.5038ZM11.315 64.0761H44.5215C44.538 63.7531 44.5498 63.4866 44.5687 63.2225C44.7644 60.157 42.9793 57.9758 39.5389 58.0442C32.5118 58.1857 25.48 58.0866 18.4482 58.0866C17.4271 58.0866 16.4061 58.063 15.385 58.0984C13.6707 58.1574 12.1144 59.2845 11.7041 60.8998C11.4518 61.8973 11.4447 62.9584 11.3174 64.0761H11.315ZM49.681 2.27555H6.31822V6.05084H49.681V2.27555ZM20.8605 55.8016H35.1175C33.3843 53.8633 32.9928 51.6773 33.0636 49.3311C33.1178 47.5672 33.0777 45.7987 33.0707 44.0324C33.0707 43.6976 33.0164 43.3628 32.9811 42.9501C29.5972 43.7613 26.3124 43.707 22.9026 42.9548C22.9026 45.1832 22.8578 47.2559 22.9144 49.3263C22.9781 51.6726 22.5937 53.8586 20.8605 55.7993V55.8016ZM2.201 14.6696C2.201 15.1483 2.201 15.495 2.201 15.8392C2.201 18.8246 2.1845 21.8123 2.21515 24.7976C2.22223 25.5357 2.31183 26.2855 2.48162 27.0047C3.45786 31.1479 7.30625 34.4634 11.5272 34.8006C11.4235 34.6096 11.3409 34.4327 11.2395 34.27C9.17621 30.9027 8.23062 27.2358 8.25656 23.2978C8.27542 20.8219 8.26128 18.3459 8.25656 15.8722C8.25656 15.4926 8.22355 15.1106 8.20468 14.672H2.201V14.6696ZM53.7204 14.6885H47.7733C47.7521 15.1507 47.7214 15.535 47.7214 15.9194C47.7167 18.4732 47.7167 21.027 47.7214 23.5832C47.7261 27.316 46.7994 30.7942 44.8988 34.0106C44.7479 34.2653 44.6182 34.5317 44.3777 34.9798C45.3445 34.6921 46.1297 34.4799 46.9032 34.2252C50.8718 32.9235 53.8595 28.8228 53.7864 24.6372C53.7369 21.7297 53.7793 18.8222 53.7746 15.9147C53.7746 15.5303 53.7416 15.1483 53.7204 14.6932V14.6885Z" fill="#CD26A8"/>
<path d="M21.6237 30.504C21.8382 29.2754 22.0552 27.8417 22.3452 26.4245C22.4844 25.7406 22.3735 25.2431 21.8335 24.7573C20.8408 23.8636 19.8787 22.9322 18.9779 21.9489C18.6454 21.5857 18.3318 21.0245 18.3483 20.5647C18.3719 19.8549 19.0958 19.737 19.6806 19.6474C21.0341 19.4422 22.39 19.2253 23.7506 19.105C24.3991 19.0484 24.7245 18.756 24.9792 18.2089C25.5239 17.0346 26.1134 15.8815 26.6817 14.719C26.9576 14.1507 27.1982 13.5211 27.9645 13.5069C28.7333 13.4904 28.9997 14.0964 29.2804 14.6718C29.8298 15.8013 30.424 16.9096 30.931 18.0557C31.2328 18.7419 31.6219 19.0673 32.4166 19.1192C33.7395 19.2064 35.0553 19.4493 36.3687 19.6592C36.9111 19.7464 37.4558 19.8714 37.6657 20.5128C37.8803 21.173 37.444 21.5433 37.0597 21.9276C36.0858 22.8968 35.1213 23.8801 34.1003 24.8021C33.5886 25.2643 33.5037 25.7406 33.6263 26.375C33.8928 27.7568 34.0979 29.1504 34.3455 30.537C34.4422 31.0793 34.4351 31.6476 33.888 31.8599C33.5108 32.0061 32.9566 31.9731 32.5864 31.7986C31.3107 31.1972 30.0727 30.5158 28.8417 29.8248C28.2711 29.5041 27.7806 29.4806 27.1958 29.8107C25.9342 30.5252 24.6467 31.1996 23.3474 31.8434C22.2839 32.3716 21.5435 31.8622 21.6284 30.504H21.6237ZM27.9976 17.0205C27.4505 18.1146 26.9624 19.0484 26.5143 19.9987C26.2031 20.659 25.7527 21.0292 24.9934 21.107C23.9629 21.2131 22.9442 21.4159 21.7416 21.6069C22.6188 22.4747 23.3545 23.2269 24.1162 23.9509C24.5783 24.3895 24.7858 24.8469 24.6562 25.5143C24.4416 26.6013 24.326 27.7073 24.1468 28.9665C25.1726 28.4312 26.0616 28.0233 26.8916 27.5163C27.6486 27.0541 28.3183 27.0423 29.0799 27.5021C29.9265 28.0138 30.8296 28.4359 31.853 28.9736C31.6691 27.7474 31.5748 26.7358 31.3531 25.7524C31.1621 24.913 31.4121 24.3329 32.0252 23.7834C32.7609 23.1208 33.4376 22.3922 34.237 21.5951C33.0156 21.4065 32.011 21.2084 30.9994 21.1094C30.2424 21.0363 29.7826 20.6731 29.4737 20.0105C29.0422 19.0885 28.5753 18.1854 27.9976 17.0228V17.0205Z" fill="#CD26A8"/>
</svg>
