<svg width="70" height="60" viewBox="0 0 70 60" fill="none" xmlns="http://www.w3.org/2000/svg">
<path d="M4.53968 4.34325C4.53968 3.1766 4.51443 2.25743 4.54726 1.34078C4.58009 0.335749 4.84776 0.075653 5.82501 0.0125229C6.16087 -0.0102039 6.49924 0.00494734 6.8351 0.00494734C25.312 0.00494734 43.7864 0.00494734 62.2633 0.00494734C64.4931 0.00494734 64.5284 0.0403001 64.5284 2.2549C64.5284 5.36848 64.5284 8.48458 64.5284 11.5982V13.0527C65.0259 13.1082 65.387 13.1714 65.7506 13.1865C67.945 13.2774 69.0359 14.3986 69.0536 16.6183C69.0662 18.3026 69.0561 19.9844 69.0561 21.6687C69.0561 33.2013 69.0561 44.7314 69.0511 56.264C69.0511 56.8094 69.0612 57.37 68.9399 57.8927C68.6698 59.0568 67.5991 59.9028 66.387 59.9836C66.0107 60.0088 65.6294 59.9962 65.2506 59.9962C44.7536 59.9962 24.259 59.9962 3.76192 59.9962C3.38314 59.9962 3.00184 60.0114 2.62558 59.9811C1.2746 59.8775 0.188759 58.8321 0.0321963 57.4786C-0.0157825 57.0619 0.00441911 56.6377 0.00441911 56.2185C0.00441911 40.2264 0.00441911 24.2318 0.00441911 8.23964C0.00441911 7.86085 -0.0132573 7.47955 0.0220955 7.10329C0.171083 5.56545 1.27712 4.47456 2.82507 4.3483C3.31749 4.30789 3.81748 4.34325 4.53464 4.34325H4.53968ZM34.5341 57.5846C44.4606 57.5846 54.3897 57.5846 64.3163 57.5846C64.6951 57.5846 65.0739 57.5998 65.4526 57.5771C66.4046 57.524 66.5991 57.322 66.6521 56.3448C66.6673 56.0518 66.6572 55.7564 66.6572 55.4609C66.6572 42.9258 66.6572 30.3907 66.6572 17.8556C66.6572 17.5198 66.6496 17.1814 66.6496 16.8455C66.6496 16.1284 66.3238 15.7445 65.5764 15.7673C65.1976 15.7774 64.8188 15.7647 64.44 15.7647C52.6196 15.7647 40.7991 15.7445 28.9786 15.7925C27.6529 15.7976 26.8044 15.4011 26.3019 14.1991C26.1251 13.7724 25.8979 13.3658 25.6908 12.9542C24.8246 11.227 23.9383 9.50729 23.0949 7.76742C22.802 7.1639 22.4106 6.8937 21.7262 6.89623C15.7112 6.9139 9.69615 6.89875 3.68112 6.91138C2.5675 6.91138 2.45134 7.06289 2.41094 8.1462C2.40336 8.35579 2.41094 8.56791 2.41094 8.7775C2.41094 24.3833 2.41094 39.989 2.41094 55.5948C2.41094 55.8902 2.41599 56.1832 2.41851 56.4786C2.41851 57.1958 2.76447 57.5745 3.49425 57.5771C3.87303 57.5771 4.25181 57.5846 4.63059 57.5846C14.6001 57.5846 24.5696 57.5846 34.5391 57.5846H34.5341ZM7.02701 4.33315C7.65326 4.33315 8.14568 4.33315 8.64062 4.33315C13.3501 4.33315 18.0622 4.35335 22.7717 4.318C23.7893 4.31042 24.413 4.67657 24.8499 5.59575C25.86 7.72197 26.9786 9.79769 27.9736 11.9315C28.4029 12.8532 28.9508 13.2168 29.9963 13.2143C40.2158 13.1764 50.4353 13.1916 60.6548 13.1865C61.0992 13.1865 61.5436 13.1183 62.0108 13.0805V2.52005H7.02701V4.33315Z" fill="#356DF1"/>
<path d="M34.5047 19.9566C43.0854 19.6485 51.3782 26.8428 51.315 36.7618C51.2569 45.9915 43.9339 53.3751 34.5603 53.4156C25.265 53.456 17.6642 45.8627 17.7349 36.5598C17.8081 26.9489 25.8509 19.6839 34.5047 19.9541V19.9566ZM48.7671 36.7214C48.8883 29.1761 42.8581 22.4288 34.5376 22.4111C26.3004 22.3934 20.3257 29.0751 20.2878 36.5876C20.25 44.1178 26.1943 50.8701 34.5325 50.8954C42.6864 50.9181 48.8024 44.2718 48.7671 36.7214Z" fill="#356DF1"/>
<path d="M44.5553 32.5374C44.3659 32.7849 44.0679 33.2798 43.674 33.6788C40.7145 36.6636 37.7347 39.6282 34.7626 42.5978C34.2878 43.0726 33.8257 43.565 33.3282 44.017C32.5656 44.7089 32.1136 44.7392 31.3333 44.123C29.6212 42.7695 27.9193 41.3984 26.2274 40.0171C25.4824 39.4085 25.3461 38.7469 25.7829 38.1636C26.2274 37.5676 26.9243 37.4641 27.6819 38.0222C28.798 38.8428 29.8611 39.7342 30.9318 40.6105C32.2247 41.6685 32.2247 41.661 33.3686 40.507C36.2272 37.6156 39.0882 34.7217 41.9796 31.8632C42.3432 31.5021 42.8786 31.2167 43.3786 31.1157C44.1109 30.9693 44.573 31.4794 44.5553 32.5374Z" fill="#356DF1"/>
</svg>
