<svg width="36" height="11" viewBox="0 0 36 11" fill="none" xmlns="http://www.w3.org/2000/svg">
<path d="M15.5998 10.691H12.6836L14.5076 0.19043H17.4237L15.5998 10.691Z" fill="white"/>
<path d="M26.1698 0.447049C25.5946 0.234586 24.6823 0 23.5542 0C20.6743 0 18.6463 1.42978 18.6339 3.47395C18.6099 4.98212 20.0858 5.8198 21.1897 6.32268C22.3179 6.83654 22.7015 7.17194 22.7015 7.62997C22.69 8.33343 21.7898 8.65769 20.9502 8.65769C19.7859 8.65769 19.162 8.49051 18.214 8.09914L17.83 7.93137L17.4219 10.2885C18.1058 10.5786 19.366 10.8361 20.6743 10.8474C23.7342 10.8474 25.7263 9.4397 25.7499 7.26132C25.7616 6.06597 24.9822 5.15005 23.302 4.4016C22.2821 3.92114 21.6574 3.59718 21.6574 3.10559C21.6694 2.65869 22.1857 2.20095 23.3371 2.20095C24.2852 2.17853 24.9817 2.39069 25.5094 2.60301L25.7732 2.71451L26.1698 0.447049Z" fill="white"/>
<path fill-rule="evenodd" clip-rule="evenodd" d="M31.3911 0.190918H33.6468L35.9995 10.6913H33.2993C33.2993 10.6913 33.0351 9.48481 32.9513 9.11616H29.2071C29.0989 9.39529 28.5951 10.6913 28.5951 10.6913H25.5352L29.8669 1.06215C30.167 0.380665 30.6955 0.190918 31.3911 0.190918ZM31.2114 4.03362C31.2114 4.03362 30.2873 6.36835 30.0471 6.97159H32.4711C32.3511 6.44659 31.7989 3.93311 31.7989 3.93311L31.5951 3.02832C31.5093 3.2613 31.3852 3.58161 31.3014 3.79766C31.2447 3.94413 31.2065 4.04268 31.2114 4.03362Z" fill="white"/>
<path fill-rule="evenodd" clip-rule="evenodd" d="M0.0480007 0.190918H4.73995C5.37592 0.21304 5.89197 0.402936 6.05989 1.07358L7.07955 5.89803C7.07966 5.89838 7.07977 5.89872 7.07988 5.89907L7.39197 7.35127L10.2479 0.190918H13.3316L8.74779 10.6803H5.66394L3.06469 1.55629C2.16788 1.06814 1.14436 0.675535 0 0.403084L0.0480007 0.190918Z" fill="white"/>
</svg>
