<svg width="26" height="16" viewBox="0 0 26 16" fill="none" xmlns="http://www.w3.org/2000/svg">
<path d="M16.5166 14.2412H9.48438V1.70654H16.5166V14.2412Z" fill="#FF5F00"/>
<path d="M9.93393 7.97144C9.93393 5.42883 11.1343 3.16394 13.0035 1.70436C11.6366 0.637046 9.91145 0 8.03657 0C3.59799 0 0 3.56888 0 7.97144C0 12.374 3.59799 15.9429 8.03657 15.9429C9.91145 15.9429 11.6366 15.3058 13.0035 14.2385C11.1343 12.7789 9.93393 10.514 9.93393 7.97144Z" fill="#EB001B"/>
<path d="M26.0002 7.97144C26.0002 12.374 22.4022 15.9429 17.9636 15.9429C16.0887 15.9429 14.3636 15.3058 12.9961 14.2385C14.8659 12.7789 16.0662 10.514 16.0662 7.97144C16.0662 5.42883 14.8659 3.16394 12.9961 1.70436C14.3636 0.637046 16.0887 0 17.9636 0C22.4022 0 26.0002 3.56888 26.0002 7.97144Z" fill="#F79E1B"/>
</svg>
