<svg width="34" height="15" viewBox="0 0 34 15" fill="none" xmlns="http://www.w3.org/2000/svg">
<path fill-rule="evenodd" clip-rule="evenodd" d="M18.4077 1.95405L16.0371 2.47385V0.51017L18.4077 0V1.95405ZM23.3369 3.04248C22.4113 3.04248 21.8163 3.48526 21.4857 3.79328L21.363 3.19649H19.2852V14.4199L21.6463 13.9098L21.6558 11.1857C21.9958 11.436 22.4963 11.7921 23.3274 11.7921C25.018 11.7921 26.5575 10.4061 26.5575 7.35474C26.548 4.56332 24.9897 3.04248 23.3369 3.04248ZM22.7702 9.67402C22.213 9.67402 21.8824 9.47187 21.6557 9.2216L21.6463 5.65041C21.8919 5.37126 22.2319 5.17874 22.7702 5.17874C23.6296 5.17874 24.2246 6.16058 24.2246 7.42157C24.2246 8.71143 23.6391 9.67402 22.7702 9.67402ZM33.9997 7.45113C33.9997 4.98691 32.8285 3.04248 30.5902 3.04248C28.3424 3.04248 26.9824 4.98691 26.9824 7.43187C26.9824 10.3293 28.588 11.7924 30.8924 11.7924C32.0163 11.7924 32.8663 11.5325 33.5085 11.1667V9.24154C32.8663 9.56882 32.1297 9.77096 31.1947 9.77096C30.2785 9.77096 29.4663 9.44368 29.3624 8.30783H33.9808C33.9808 8.25482 33.9842 8.13444 33.9881 7.99572L33.9881 7.99539V7.99531V7.99512C33.9934 7.80651 33.9997 7.58414 33.9997 7.45113ZM29.3338 6.53579C29.3338 5.44806 29.9854 4.99565 30.5804 4.99565C31.1565 4.99565 31.7704 5.44806 31.7704 6.53579H29.3338ZM16.0371 3.20654H18.4077V11.6289H16.0371V3.20654ZM13.3448 3.20636L13.4959 3.91868C14.0532 2.87908 15.1582 3.09085 15.4604 3.20636V5.42031C15.1676 5.31442 14.2232 5.17966 13.666 5.92085V11.629H11.3048V3.20636H13.3448ZM8.77392 1.11705L6.46947 1.61759L6.46002 9.32791C6.46002 10.7525 7.50836 11.8018 8.90614 11.8018C9.68058 11.8018 10.2473 11.6574 10.5589 11.4841V9.53005C10.2567 9.65519 8.76447 10.098 8.76447 8.67335V5.25617H10.5589V3.20586H8.76447L8.77392 1.11705ZM3.19221 5.13111C2.69165 5.13111 2.38943 5.27549 2.38943 5.65089C2.38943 6.06076 2.90956 6.24106 3.55483 6.46474C4.60678 6.8294 5.99134 7.30935 5.99719 9.08722C5.99719 10.8102 4.64664 11.8016 2.68221 11.8016C1.86999 11.8016 0.982217 11.638 0.103888 11.253V8.96209C0.897218 9.40486 1.89832 9.73213 2.68221 9.73213C3.2111 9.73213 3.58887 9.58775 3.58887 9.14497C3.58887 8.69096 3.02504 8.48344 2.34435 8.2329C1.3077 7.85136 0 7.37005 0 5.76639C0 4.06267 1.27499 3.04235 3.19221 3.04235C3.97609 3.04235 4.75053 3.16749 5.53442 3.48513V5.74714C4.81664 5.35249 3.90998 5.13111 3.19221 5.13111Z" fill="#6772E5"/>
</svg>
