<svg width="44" height="12" viewBox="0 0 44 12" fill="none" xmlns="http://www.w3.org/2000/svg">
<path fill-rule="evenodd" clip-rule="evenodd" d="M5.28635 0H1.85993C1.62543 0 1.42602 0.171057 1.38939 0.403547L0.00358438 9.22523C-0.0239213 9.39938 0.110379 9.55621 0.286219 9.55621H1.92196C2.15646 9.55621 2.35588 9.38529 2.3925 9.15238L2.76622 6.77294C2.80228 6.54003 3.00212 6.36897 3.2362 6.36897H4.32085C6.57785 6.36897 7.88044 5.27232 8.22075 3.09931C8.374 2.14849 8.22721 1.40157 7.78375 0.878392C7.29679 0.303929 6.43303 0 5.28635 0ZM5.68161 3.22255C5.49426 4.45701 4.55486 4.45701 3.64662 4.45701H3.12948L3.49225 2.15155C3.51386 2.01219 3.63399 1.90962 3.77432 1.90962H4.01135C4.63008 1.90962 5.21373 1.90962 5.51531 2.26371C5.69522 2.47492 5.75023 2.78885 5.68161 3.22255Z" fill="white"/>
<path fill-rule="evenodd" clip-rule="evenodd" d="M15.6161 3.11593H13.9753C13.8355 3.11593 13.7147 3.21851 13.6932 3.35786L13.6205 3.81862L13.5059 3.65165C13.1507 3.13397 12.3585 2.96094 11.568 2.96094C9.75471 2.96094 8.20611 4.33982 7.90453 6.274C7.74778 7.23877 7.97063 8.1614 8.51583 8.80477C9.01584 9.39628 9.73127 9.64286 10.5824 9.64286C12.0434 9.64286 12.8534 8.69965 12.8534 8.69965L12.7803 9.15745C12.7528 9.33245 12.8871 9.48942 13.062 9.48942H14.5398C14.7749 9.48942 14.9733 9.31836 15.0104 9.08545L15.8972 3.44691C15.9252 3.27332 15.7914 3.11593 15.6161 3.11593ZM13.329 6.32142C13.1707 7.26251 12.4268 7.89432 11.4779 7.89432C11.0014 7.89432 10.6207 7.74088 10.3761 7.45019C10.1336 7.16148 10.0416 6.75047 10.1186 6.29267C10.2665 5.35961 11.0229 4.70709 11.9574 4.70709C12.4233 4.70709 12.8021 4.86265 13.0516 5.15572C13.3015 5.45204 13.4008 5.86559 13.329 6.32142Z" fill="white"/>
<path fill-rule="evenodd" clip-rule="evenodd" d="M24.2268 3.25732H22.5779C22.4206 3.25732 22.2728 3.33581 22.1837 3.46713L19.9095 6.83035L18.9456 3.59831C18.885 3.39611 18.6992 3.25732 18.4887 3.25732H16.8685C16.6715 3.25732 16.5348 3.4505 16.5974 3.63664L18.4136 8.98786L16.7061 11.408C16.5718 11.5987 16.7071 11.8607 16.9391 11.8607H18.5859C18.7422 11.8607 18.8885 11.7842 18.9772 11.6556L24.4612 3.70751C24.5925 3.51743 24.4577 3.25732 24.2268 3.25732Z" fill="white"/>
<path fill-rule="evenodd" clip-rule="evenodd" d="M29.7237 0H26.2969C26.0629 0 25.8635 0.171057 25.8269 0.403547L24.4411 9.22523C24.4136 9.39938 24.5479 9.55621 24.7227 9.55621H26.4813C26.6445 9.55621 26.7843 9.43658 26.8098 9.27356L27.2032 6.77294C27.2392 6.54003 27.4392 6.36897 27.6731 6.36897H28.7574C31.0148 6.36897 32.317 5.27232 32.6577 3.09931C32.8115 2.14849 32.6637 1.40157 32.2203 0.878392C31.7337 0.303929 30.8705 0 29.7237 0ZM30.1191 3.22255C29.9322 4.45701 28.9928 4.45701 28.084 4.45701H27.5675L27.9307 2.15155C27.9522 2.01219 28.0715 1.90962 28.2122 1.90962H28.4493C29.0674 1.90962 29.6517 1.90962 29.9532 2.26371C30.1332 2.47492 30.1877 2.78885 30.1191 3.22255Z" fill="#1A9BDC"/>
<path fill-rule="evenodd" clip-rule="evenodd" d="M40.0514 3.11593H38.4116C38.2708 3.11593 38.1511 3.21851 38.13 3.35786L38.0573 3.81862L37.9421 3.65165C37.5869 3.13397 36.7953 2.96094 36.0047 2.96094C34.1915 2.96094 32.6435 4.33982 32.3419 6.274C32.1856 7.23877 32.4075 8.1614 32.9525 8.80477C33.4537 9.39628 34.168 9.64286 35.0192 9.64286C36.4801 9.64286 37.2903 8.69965 37.2903 8.69965L37.2172 9.15745C37.1897 9.33245 37.3238 9.48942 37.4998 9.48942H38.9772C39.2112 9.48942 39.4106 9.31836 39.4472 9.08545L40.3344 3.44691C40.3615 3.27332 40.2272 3.11593 40.0514 3.11593ZM37.7642 6.32142C37.6069 7.26251 36.8619 7.89432 35.9129 7.89432C35.4375 7.89432 35.0557 7.74088 34.8111 7.45019C34.5688 7.16148 34.4776 6.75047 34.5536 6.29267C34.7025 5.35961 35.4579 4.70709 36.3924 4.70709C36.8583 4.70709 37.2371 4.86265 37.4866 5.15572C37.7375 5.45204 37.8368 5.86559 37.7642 6.32142Z" fill="#1A9BDC"/>
<path fill-rule="evenodd" clip-rule="evenodd" d="M41.8513 0.242495L40.445 9.22565C40.4175 9.39981 40.5516 9.55663 40.7265 9.55663H42.1404C42.3754 9.55663 42.5747 9.38572 42.6108 9.1528L43.9976 0.331546C44.0252 0.157389 43.8909 0 43.7161 0H42.1329C41.9932 0.00042271 41.8729 0.103141 41.8513 0.242495Z" fill="#1A9BDC"/>
</svg>
