<svg width="554" height="554" viewBox="0 0 554 554" fill="none" xmlns="http://www.w3.org/2000/svg">
<path fill-rule="evenodd" clip-rule="evenodd" d="M378.292 101.362C343.033 81.0055 297.947 93.0862 277.59 128.345L249.946 176.226L202.066 148.583C166.807 128.226 121.721 140.307 101.364 175.566C81.0072 210.825 93.088 255.911 128.347 276.268L176.227 303.911L148.582 351.794C128.225 387.053 140.306 432.139 175.565 452.496C210.824 472.853 255.91 460.772 276.267 425.513L303.912 377.63L351.796 405.276C387.055 425.633 432.141 413.552 452.498 378.293C472.855 343.034 460.774 297.948 425.515 277.591L377.631 249.945L405.275 202.064C425.632 166.805 413.551 121.719 378.292 101.362Z" fill="url(#paint0_linear_1301_60)"/>
<defs>
<linearGradient id="paint0_linear_1301_60" x1="378.294" y1="101.364" x2="175.567" y2="452.497" gradientUnits="userSpaceOnUse">
<stop stop-color="#A586FE" offset="0%"/>
<stop offset="1" stop-color="#A586FE" stop-opacity="0"/>
</linearGradient>
</defs>
</svg>
