<svg width="1919" height="670" viewBox="0 0 1919 670" fill="none" xmlns="http://www.w3.org/2000/svg">
<mask id="mask0_1301_88" style="mask-type:alpha" maskUnits="userSpaceOnUse" x="0" y="0" width="1919" height="670">
<rect width="1919" height="670" fill="#D9D9D9"/>
</mask>
<g mask="url(#mask0_1301_88)">
<path d="M127 236C127 239.314 124.314 242 121 242C117.686 242 115 239.314 115 236C115 232.686 117.686 230 121 230C124.314 230 127 232.686 127 236Z" fill="#FBD95E"/>
<path d="M169 262C169 264.209 167.209 266 165 266C162.791 266 161 264.209 161 262C161 259.791 162.791 258 165 258C167.209 258 169 259.791 169 262Z" fill="#5489FA"/>
<path d="M135 281C135 282.105 134.105 283 133 283C131.895 283 131 282.105 131 281C131 279.895 131.895 279 133 279C134.105 279 135 279.895 135 281Z" fill="#F461A6"/>
<path d="M1690 92C1690 95.3137 1687.31 98 1684 98C1680.69 98 1678 95.3137 1678 92C1678 88.6863 1680.69 86 1684 86C1687.31 86 1690 88.6863 1690 92Z" fill="#6640FF"/>
<path d="M1297 587C1297 591.418 1293.42 595 1289 595C1284.58 595 1281 591.418 1281 587C1281 582.582 1284.58 579 1289 579C1293.42 579 1297 582.582 1297 587Z" fill="#6640FF"/>
<path d="M1786 451.759C1778.32 457.849 1771 457.039 1765.66 456.453C1760.87 455.928 1758.62 455.79 1755.57 458.202C1752.53 460.614 1752.16 462.81 1751.64 467.556C1751.06 472.837 1750.26 480.072 1742.57 486.162C1734.89 492.252 1727.57 491.442 1722.23 490.857C1717.44 490.331 1715.19 490.193 1712.14 492.605C1709.1 495.017 1708.73 497.214 1708.21 501.951C1707.63 507.231 1706.83 514.467 1699.14 520.557C1691.46 526.647 1684.14 525.837 1678.8 525.251C1674.01 524.726 1671.76 524.588 1668.71 527L1660 516.241C1667.68 510.151 1675 510.961 1680.34 511.547C1685.13 512.072 1687.38 512.21 1690.43 509.798C1693.47 507.386 1693.84 505.19 1694.36 500.452C1694.94 495.172 1695.74 487.937 1703.43 481.847C1711.11 475.757 1718.43 476.566 1723.77 477.152C1728.56 477.677 1730.81 477.815 1733.86 475.403C1736.91 472.992 1737.27 470.795 1737.79 466.049C1738.37 460.769 1739.17 453.533 1746.86 447.443C1754.54 441.353 1761.86 442.163 1767.2 442.749C1771.99 443.274 1774.24 443.412 1777.29 441L1786 451.759Z" fill="#EFECFF"/>
<path d="M1776.71 440.486C1779.09 443.475 1778.64 447.974 1775.11 449.419C1769.71 451.631 1764.73 451.07 1760.82 450.633C1756.07 450.101 1753.84 449.962 1750.81 452.402C1747.79 454.842 1747.43 457.064 1746.91 461.865C1746.33 467.207 1745.54 474.527 1737.92 480.687C1730.29 486.848 1723.03 486.029 1717.74 485.436C1712.98 484.905 1710.75 484.765 1707.73 487.205C1704.71 489.645 1704.35 491.867 1703.83 496.66C1703.25 502.002 1702.45 509.321 1694.83 515.482C1687.21 521.643 1679.95 520.824 1674.65 520.231C1673.3 520.08 1672.16 519.961 1671.14 519.923C1667.28 519.78 1662.69 519.537 1660.29 516.514C1657.91 513.526 1658.36 509.026 1661.89 507.581C1667.29 505.369 1672.27 505.93 1676.18 506.367C1680.93 506.899 1683.16 507.038 1686.19 504.598C1689.21 502.158 1689.57 499.936 1690.09 495.144C1690.67 489.802 1691.46 482.482 1699.08 476.322C1706.71 470.161 1713.97 470.98 1719.26 471.572C1724.02 472.104 1726.25 472.243 1729.27 469.804C1732.3 467.364 1732.65 465.142 1733.17 460.34C1733.75 454.999 1734.55 447.679 1742.17 441.518C1749.79 435.357 1757.05 436.176 1762.35 436.769C1763.7 436.92 1764.84 437.039 1765.86 437.077C1769.72 437.22 1774.31 437.463 1776.71 440.486Z" fill="url(#paint0_linear_1301_88)" fill-opacity="0.5"/>
</g>
<defs>
<linearGradient id="paint0_linear_1301_88" x1="1718.5" y1="435" x2="1718.5" y2="522" gradientUnits="userSpaceOnUse">
<stop stop-color="#9888F4"/>
<stop offset="1" stop-color="#907EF3"/>
</linearGradient>
</defs>
</svg>
