<svg width="565" height="514" viewBox="0 0 565 514" fill="none" xmlns="http://www.w3.org/2000/svg">
<path d="M565 192.697C565 347.982 463.612 513.804 308.327 513.804C153.042 513.804 0 385.258 0 229.973C0 74.6879 153.042 0.458527 308.327 0.458527C463.612 0.458527 565 37.4118 565 192.697Z" fill="url(#paint0_linear_187_5041)"/>
<mask id="mask0_187_5041" style="mask-type:alpha" maskUnits="userSpaceOnUse" x="0" y="0" width="565" height="514">
<path d="M565 192.697C565 347.982 463.612 513.804 308.327 513.804C153.042 513.804 0 385.258 0 229.973C0 74.6879 153.042 0.458527 308.327 0.458527C463.612 0.458527 565 37.4118 565 192.697Z" fill="url(#paint1_linear_187_5041)"/>
</mask>
<g mask="url(#mask0_187_5041)">
<path d="M382.721 -34.2728C393.462 -51.4974 399.53 -71.5322 405.294 -90.5584C411.663 -111.585 417.659 -131.381 429.176 -144.79C451.722 -171.041 485.126 -201.294 516.817 -219.823L515.993 -220.647C475.557 -203.415 442.449 -180.926 415.045 -149.019C402.658 -134.596 397.597 -106.287 392.69 -78.8412C389.802 -62.6828 386.967 -46.8235 382.721 -34.2728Z" fill="white"/>
<path d="M289.845 146.094C298.868 127.575 308.591 107.393 317.108 88.7339C338.113 42.7172 360.324 1.64553 382.721 -34.2728C380.074 -26.4454 377.453 -18.3951 374.77 -10.1541L374.77 -10.1531C363.419 24.717 350.956 63.0014 330.635 102.261C324.092 114.901 311.272 126.565 297.224 139.346C294.793 141.558 292.324 143.804 289.845 146.094Z" fill="white"/>
<path d="M476.14 -47.6498C438.314 -23.0114 402.538 6.74198 372.049 41.9884C352.807 64.2325 339.232 87.645 326.831 109.032C316.952 126.071 307.818 141.824 297.158 154.678C293.464 159.132 286.018 169.917 278.809 180.361L278.809 180.362C271.641 190.745 264.707 200.79 261.924 203.94C265.693 195.489 272.826 180.91 281.321 163.543L281.322 163.541L281.325 163.534L281.327 163.531L281.393 163.397C284.094 157.874 286.933 152.071 289.845 146.094C270.503 163.962 250.513 184.53 242.315 212.957C234.874 238.758 260.534 224.376 286.041 196.636C293.065 188.997 301.691 178.935 311.767 166.786C331.829 142.596 357.969 109.737 389.231 70.4386L422.841 10.1361C440.242 -11.7385 458.076 -30.8849 476.14 -47.6498Z" fill="white"/>
<path d="M476.14 -47.6498C523.062 -78.2124 573.138 -100.904 620.193 -116.447L605.449 -131.191C562.833 -113.601 518.842 -87.2795 476.14 -47.6498Z" fill="white"/>
<path d="M360.197 -330.021L349.276 -319.101C336.371 -290.689 329.639 -249.068 321.999 -201.841C314.66 -156.471 306.484 -105.925 291.194 -56.9439C270.269 10.0912 243.97 75.3414 217.666 140.604C195.303 196.088 172.937 251.582 153.866 308.189C142.634 341.526 133.686 371.563 128.948 394.867C126.586 406.481 125.183 416.83 125.184 425.268C125.185 433.04 126.326 441.861 131.851 447.609C133.461 449.285 134.842 450.89 136.132 452.388C140.332 457.268 143.561 461.02 150.553 462.398C167.679 465.771 196.581 426.079 227.087 384.184L227.088 384.183C239.657 366.922 252.498 349.287 264.9 334.136C393.108 177.506 501.475 89.5427 586.155 61.953C649.871 41.1937 711.996 31.4691 777.425 40.7853L751.996 15.3564C695.911 6.11172 639.764 5.13993 581.726 24.0494C491.201 53.5434 388.644 137.206 242.814 327.799C229.375 345.363 217.255 362.198 206.378 377.305L206.377 377.306C187.838 403.055 172.91 423.789 161.217 434.576C132.666 460.917 127.439 440.639 133.028 413.149C135.528 400.856 143.794 381.909 152.562 361.813C159.571 345.747 166.9 328.947 171.86 314.226C193.208 250.863 223.351 174.107 249.973 106.321L249.975 106.316L249.975 106.315C251.168 103.279 252.353 100.261 253.53 97.2635C267.235 62.3549 279.84 30.1405 289.527 3.94281C297.498 -17.6116 300.512 -27.8679 305.24 -43.9544L305.241 -43.9562L305.241 -43.9589L305.243 -43.9651L305.244 -43.9661L305.252 -43.9961L305.253 -43.9977C306.204 -47.2332 307.224 -50.7049 308.368 -54.5518C322.962 -103.627 327.441 -147.541 331.721 -189.511C336.594 -237.287 341.21 -282.543 360.197 -330.021Z" fill="white"/>
<path d="M648.206 178.496C614.712 173.823 578.733 173.157 542.934 179.207C459.683 193.275 378.109 243.615 331.813 361.874C294.557 457.043 235.83 510.119 173.651 537.542L187.974 551.865C252.082 521.67 311.654 465.433 349.494 368.772C393.246 257.011 469.108 210.936 546.068 197.93C574.707 193.091 603.594 192.825 631.126 195.576L648.206 178.496Z" fill="white"/>
<path d="M540.145 286.557C517.017 283.089 494.248 292.582 472.36 310.752C467.425 313.235 462.369 316.087 457.198 319.331C414.281 346.253 346.991 430.302 303.934 522.768L372.743 453.959C401.896 395.348 435.906 341.015 472.36 310.752C492.91 300.415 511.377 296.48 527.443 297.316C528.056 297.348 528.665 297.387 529.269 297.433L540.145 286.557Z" fill="white"/>
<path d="M36.9653 400.856C43.453 377.312 52.9297 352.519 65.1423 326.421C91.4227 270.261 130.057 208.712 177.732 141.439C255.482 31.7252 271.299 -64.6355 258.48 -140.902C254.331 -165.579 247.201 -188.055 238.28 -208.105L201.922 -171.746C208.875 -154.837 214.452 -136.153 217.867 -115.839C229.746 -45.1664 237.487 24.3016 162.244 130.476C146.072 153.297 126.974 177.88 107.729 202.653C69.9171 251.325 31.5362 300.73 13.6574 338.937C9.42402 347.983 5.48804 356.924 1.86728 365.759L36.9653 400.856Z" fill="white"/>
<path d="M-77.4168 286.474C-49.6129 251.356 -14.4817 215.758 29.6095 180.981C134.623 98.1498 165.712 21.953 158.598 -41.0005C155.79 -65.8497 145.506 -85.4852 131.755 -101.58L122.168 -91.9924C131.103 -76.1729 137.524 -58.3502 139.729 -38.8381C145.816 15.0359 81.6888 100.014 -20.5555 180.661C-53.9856 207.029 -81.5007 233.56 -104.055 259.836L-77.4168 286.474Z" fill="white"/>
<path d="M-124.029 239.862C-88.325 204.145 -67.1544 166.684 -56.2567 130.329C-50.8039 112.138 -47.9576 94.3348 -47.1237 77.2991L-56.2228 86.3983C-56.3249 100.489 -58.2171 114.959 -62.5635 129.458C-72.116 161.326 -100.312 192.298 -141.483 222.408L-124.029 239.862Z" fill="white"/>
</g>
<defs>
<linearGradient id="paint0_linear_187_5041" x1="99.0481" y1="-58.6508" x2="456.138" y2="523.997" gradientUnits="userSpaceOnUse">
<stop stop-color="#50B1F8"/>
<stop offset="1" stop-color="#703AE1"/>
</linearGradient>
<linearGradient id="paint1_linear_187_5041" x1="99.0481" y1="-58.6508" x2="456.138" y2="523.997" gradientUnits="userSpaceOnUse">
<stop stop-color="#FFE893"/>
<stop offset="1" stop-color="#EBCA53"/>
</linearGradient>
</defs>
</svg>
