<svg width="1920" height="870" viewBox="0 0 1920 870" fill="none" xmlns="http://www.w3.org/2000/svg">
<mask id="mask0_486_59" style="mask-type:alpha" maskUnits="userSpaceOnUse" x="0" y="0" width="1920" height="870">
<rect width="1920" height="870" fill="#D9D9D9"/>
</mask>
<g mask="url(#mask0_486_59)">
<circle cx="1737" cy="69" r="6" fill="#FBD95E"/>
<circle cx="1781" cy="95" r="4" fill="#5489FA"/>
<circle cx="1749" cy="114" r="2" fill="#F461A6"/>
<path fill-rule="evenodd" clip-rule="evenodd" d="M910.895 539.321C909.574 540.245 908.38 541.336 907.343 542.565C911.58 542.172 916.962 542.814 923.21 545.938C929.883 549.275 935.256 549.387 938.995 548.666C938.656 547.639 938.229 546.652 937.723 545.713C933.442 546.164 927.954 545.567 921.559 542.369C917.498 540.339 913.918 539.502 910.895 539.321ZM935.222 542.154C931.842 538.377 926.929 536 921.461 536C919.856 536 918.298 536.205 916.813 536.59C918.824 537.139 920.961 537.942 923.21 539.067C927.893 541.408 931.935 542.162 935.222 542.154ZM939.795 552.272C935.277 553.164 929.039 552.981 921.559 549.241C914.566 545.744 909 545.789 905.247 546.623C905.053 546.666 904.864 546.711 904.679 546.758C904.188 547.827 903.795 548.951 903.514 550.118C903.815 550.038 904.125 549.961 904.446 549.89C909 548.878 915.434 548.922 923.21 552.81C930.203 556.307 935.769 556.263 939.523 555.428C939.651 555.4 939.778 555.37 939.903 555.34C939.916 555.049 939.923 554.756 939.923 554.461C939.923 553.721 939.879 552.99 939.795 552.272ZM939.3 559.236C934.826 560.018 928.769 559.718 921.559 556.113C914.566 552.616 909 552.66 905.247 553.494C904.413 553.68 903.664 553.905 903.003 554.143C903.001 554.249 903 554.355 903 554.461C903 564.658 911.266 572.923 921.461 572.923C930.006 572.923 937.196 567.118 939.3 559.236Z" fill="#6640FF"/>
<path d="M1202 83.8821C1195.78 88.9099 1189.86 88.2414 1185.53 87.7578C1181.65 87.324 1179.83 87.2102 1177.37 89.2014C1174.9 91.1926 1174.61 93.006 1174.19 96.9244C1173.71 101.284 1173.06 107.257 1166.84 112.285C1160.62 117.313 1154.7 116.644 1150.38 116.161C1146.5 115.727 1144.68 115.613 1142.21 117.604C1139.75 119.595 1139.45 121.409 1139.03 125.32C1138.56 129.679 1137.91 135.653 1131.69 140.681C1125.47 145.708 1119.54 145.04 1115.22 144.556C1111.34 144.123 1109.52 144.009 1107.05 146L1100 137.118C1106.22 132.09 1112.14 132.759 1116.47 133.242C1120.35 133.676 1122.17 133.79 1124.63 131.799C1127.1 129.807 1127.39 127.994 1127.81 124.083C1128.29 119.723 1128.94 113.75 1135.16 108.722C1141.38 103.694 1147.3 104.363 1151.62 104.846C1155.5 105.28 1157.32 105.394 1159.79 103.403C1162.26 101.412 1162.55 99.5983 1162.97 95.6799C1163.44 91.3206 1164.09 85.3471 1170.31 80.3193C1176.53 75.2916 1182.46 75.96 1186.78 76.4436C1190.66 76.8774 1192.48 76.9912 1194.95 75L1202 83.8821Z" fill="#EFECFF"/>
<path d="M1194.45 75.3538C1196.41 77.782 1196.04 81.4621 1193.15 82.6205C1188.76 84.3778 1184.71 83.9287 1181.53 83.5781C1177.65 83.1504 1175.83 83.0383 1173.37 85.0014C1170.9 86.9645 1170.61 88.7524 1170.19 92.6156C1169.71 96.9135 1169.06 102.803 1162.84 107.76C1156.62 112.717 1150.7 112.058 1146.38 111.581C1142.5 111.153 1140.68 111.041 1138.21 113.004C1135.75 114.967 1135.45 116.755 1135.03 120.611C1134.56 124.909 1133.91 130.799 1127.69 135.756C1121.47 140.713 1115.54 140.053 1111.22 139.577C1110.07 139.45 1109.1 139.351 1108.24 139.325C1105.15 139.234 1101.49 139.055 1099.55 136.646V136.646C1097.59 134.218 1097.96 130.538 1100.85 129.38C1105.24 127.622 1109.29 128.071 1112.47 128.422C1116.35 128.85 1118.17 128.962 1120.63 126.999C1123.1 125.035 1123.39 123.248 1123.81 119.391C1124.29 115.094 1124.94 109.204 1131.16 104.247C1137.38 99.2903 1143.3 99.9493 1147.62 100.426C1151.5 100.854 1153.32 100.966 1155.79 99.0028C1158.26 97.0397 1158.55 95.2518 1158.97 91.3886C1159.44 87.0907 1160.09 81.2013 1166.31 76.2444C1172.53 71.2875 1178.46 71.9465 1182.78 72.4233C1183.93 72.5502 1184.9 72.6493 1185.76 72.6747C1188.85 72.7659 1192.51 72.945 1194.45 75.3538V75.3538Z" fill="url(#paint0_linear_486_59)" fill-opacity="0.5"/>
</g>
<defs>
<linearGradient id="paint0_linear_486_59" x1="1147" y1="71" x2="1147" y2="141" gradientUnits="userSpaceOnUse">
<stop stop-color="#9888F4"/>
<stop offset="1" stop-color="#907EF3"/>
</linearGradient>
</defs>
</svg>
