<svg width="1555" height="203" viewBox="0 0 1555 203" fill="none" xmlns="http://www.w3.org/2000/svg">
<path d="M1555 48.5052C1550.43 52.1875 1546.07 51.6979 1542.89 51.3438C1540.04 51.026 1538.7 50.9427 1536.89 52.401C1535.08 53.8594 1534.86 55.1875 1534.55 58.0573C1534.2 61.25 1533.72 65.625 1529.15 69.3073C1524.58 72.9896 1520.22 72.5 1517.04 72.1458C1514.19 71.8281 1512.85 71.7448 1511.04 73.2031C1509.23 74.6615 1509.01 75.9896 1508.7 78.8542C1508.35 82.0469 1507.87 86.4219 1503.3 90.1042C1498.73 93.7865 1494.37 93.2969 1491.19 92.9427C1488.34 92.625 1487 92.5417 1485.19 94L1480 87.4948C1484.57 83.8125 1488.93 84.3021 1492.11 84.6562C1494.96 84.974 1496.3 85.0573 1498.11 83.599C1499.92 82.1406 1500.14 80.8125 1500.45 77.9479C1500.8 74.7552 1501.28 70.3802 1505.85 66.6979C1510.42 63.0156 1514.78 63.5052 1517.96 63.8594C1520.81 64.1771 1522.15 64.2604 1523.96 62.8021C1525.78 61.3438 1525.99 60.0156 1526.3 57.1458C1526.65 53.9531 1527.13 49.5781 1531.7 45.8958C1536.27 42.2135 1540.63 42.7031 1543.81 43.0573C1546.66 43.375 1548 43.4583 1549.81 42L1555 48.5052Z" fill="#E1DDF5"/>
<path d="M1549.42 42.2668C1550.85 44.0578 1550.58 46.7593 1548.46 47.6223C1545.22 48.9395 1542.23 48.6048 1539.89 48.3438C1537.04 48.026 1535.7 47.9427 1533.89 49.401C1532.08 50.8594 1531.86 52.1875 1531.55 55.0573C1531.2 58.25 1530.72 62.625 1526.15 66.3073C1521.58 69.9896 1517.22 69.5 1514.04 69.1458C1511.19 68.8281 1509.85 68.7448 1508.04 70.2031C1506.23 71.6615 1506.01 72.9896 1505.7 75.8542C1505.35 79.0469 1504.87 83.4219 1500.3 87.1042C1495.73 90.7865 1491.37 90.2969 1488.19 89.9427C1487.37 89.8515 1486.68 89.7796 1486.06 89.758C1483.76 89.6771 1481.02 89.5354 1479.58 87.7332C1478.15 85.9422 1478.42 83.2407 1480.54 82.3777C1483.78 81.0605 1486.77 81.3952 1489.11 81.6562C1491.96 81.974 1493.3 82.0573 1495.11 80.599C1496.92 79.1406 1497.14 77.8125 1497.45 74.9479C1497.8 71.7552 1498.28 67.3802 1502.85 63.6979C1507.42 60.0156 1511.78 60.5052 1514.96 60.8594C1517.81 61.1771 1519.15 61.2604 1520.96 59.8021C1522.78 58.3438 1522.99 57.0156 1523.3 54.1458C1523.65 50.9531 1524.13 46.5781 1528.7 42.8958C1533.27 39.2135 1537.63 39.7031 1540.81 40.0573C1541.63 40.1485 1542.32 40.2204 1542.94 40.2421C1545.24 40.3229 1547.98 40.4646 1549.42 42.2668Z" fill="url(#paint0_linear_187_2918)" fill-opacity="0.5"/>
<circle cx="1188" cy="167" r="8" fill="#6640FF"/>
<circle cx="409" cy="6" r="6" fill="#6640FF"/>
<path fill-rule="evenodd" clip-rule="evenodd" d="M93.3373 91.0095C84.6377 85.9868 73.5135 88.9675 68.4907 97.6672L61.67 109.481L49.8564 102.66C41.1568 97.6377 30.0326 100.618 25.0098 109.318C19.9871 118.018 22.9678 129.142 31.6674 134.165L43.481 140.985L36.66 152.8C31.6372 161.499 34.6179 172.624 43.3176 177.646C52.0173 182.669 63.1415 179.688 68.1642 170.989L74.9853 159.174L86.7999 165.995C95.4996 171.018 106.624 168.038 111.647 159.338C116.669 150.638 113.689 139.514 104.989 134.491L93.1743 127.67L99.995 115.856C105.018 107.157 102.037 96.0323 93.3373 91.0095Z" fill="url(#paint1_linear_187_2918)"/>
<defs>
<linearGradient id="paint0_linear_187_2918" x1="1514.5" y1="39" x2="1514.5" y2="91" gradientUnits="userSpaceOnUse">
<stop stop-color="#9888F4"/>
<stop offset="1" stop-color="#907EF3"/>
</linearGradient>
<linearGradient id="paint1_linear_187_2918" x1="93.3379" y1="91.0099" x2="43.3182" y2="177.647" gradientUnits="userSpaceOnUse">
<stop stop-color="#A586FE" offset="0%"/>
<stop offset="1" stop-color="#A586FE" stop-opacity="0"/>
</linearGradient>
</defs>
</svg>
