<svg width="45" height="45" viewBox="0 0 45 45" fill="none" xmlns="http://www.w3.org/2000/svg">
<path opacity="0.3" d="M45 32.625V39.375C45 42.75 42.75 45 39.375 45H9C9.9225 45 10.8675 44.865 11.745 44.5725C11.9925 44.4825 12.24 44.3925 12.4875 44.28C13.275 43.965 14.04 43.515 14.715 42.93C14.9175 42.7725 15.1425 42.57 15.345 42.3675L15.435 42.2775L30.735 27H39.375C42.75 27 45 29.25 45 32.625Z" fill="white"/>
<path opacity="0.5" d="M36.835 20.9024L30.7375 26.9999L15.4375 42.2774C17.0125 40.6574 18.0025 38.4299 18.0025 35.9999V14.2649L24.1 8.16741C26.485 5.78241 29.68 5.78241 32.065 8.16741L36.835 12.9374C39.22 15.3224 39.22 18.5174 36.835 20.9024Z" fill="white"/>
<path d="M12.375 0H5.625C2.25 0 0 2.25 0 5.625V36C0 36.6075 0.0674698 37.215 0.17997 37.8C0.24747 38.0925 0.314984 38.385 0.404984 38.6775C0.517484 39.015 0.629992 39.3525 0.764992 39.6675C0.787492 39.69 0.787514 39.7125 0.787514 39.7125C0.810014 39.7125 0.810014 39.7125 0.787514 39.735C1.10251 40.365 1.46249 40.9725 1.88999 41.535C2.13749 41.8275 2.38503 42.0975 2.63253 42.3675C2.88003 42.6375 3.15 42.8625 3.4425 43.0875L3.46502 43.11C4.02752 43.5375 4.63499 43.8975 5.26499 44.2125C5.28749 44.19 5.28751 44.19 5.28751 44.2125C5.62501 44.37 5.96249 44.4825 6.32249 44.595C6.61499 44.685 6.90753 44.7525 7.20003 44.82C7.78503 44.9325 8.3925 45 9 45C9.9225 45 10.8675 44.865 11.745 44.5725C11.9925 44.4825 12.24 44.3925 12.4875 44.28C13.275 43.965 14.04 43.515 14.715 42.93C14.9175 42.7725 15.1425 42.57 15.345 42.3675L15.435 42.2775C17.01 40.6575 18 38.43 18 36V5.625C18 2.25 15.75 0 12.375 0ZM9 39.375C7.1325 39.375 5.625 37.8675 5.625 36C5.625 34.1325 7.1325 32.625 9 32.625C10.8675 32.625 12.375 34.1325 12.375 36C12.375 37.8675 10.8675 39.375 9 39.375Z" fill="white"/>
</svg>
