<svg width="45" height="45" viewBox="0 0 45 45" fill="none" xmlns="http://www.w3.org/2000/svg">
<path d="M42.3773 25.3376L40.3551 23.3594L23.3203 40.3721L25.3645 42.4163C27.0789 44.1308 28.8594 44.988 30.6178 44.988C32.3762 44.988 34.1566 44.1308 35.8711 42.4163L42.3773 35.9101C45.8721 32.3933 45.8721 28.8545 42.3773 25.3376Z" fill="white"/>
<path d="M19.6284 2.58818C16.1775 -0.862728 12.5508 -0.862728 9.09985 2.58818L2.5717 9.09436C-0.857233 12.5453 -0.857233 16.172 2.5717 19.6229L4.59389 21.6451L21.6286 4.61037L19.6284 2.58818Z" fill="white"/>
<path opacity="0.4" d="M44.0709 4.80794C41.1915 11.9955 34.6194 21.3811 28.355 27.5136C27.4538 21.8427 22.9258 17.4027 17.2109 16.6114C23.3654 10.325 32.817 3.66496 40.0265 0.763558C41.3014 0.279991 42.5762 0.653657 43.3675 1.44495C44.2028 2.2802 44.5984 3.53308 44.0709 4.80794Z" fill="white"/>
<path d="M28.3556 27.5141C27.2565 28.5911 26.1575 29.5802 25.1025 30.4155L20.7723 33.8883C20.2228 34.284 19.6733 34.6137 19.0579 34.8775C19.0579 34.4598 19.0139 34.0422 18.97 33.6026C18.7282 31.7782 17.8929 30.0418 16.4202 28.5691C14.9036 27.0744 13.1012 26.2172 11.2329 25.9754C10.7933 25.9315 10.3317 25.9095 9.91406 25.9315C10.1558 25.2501 10.5295 24.6127 10.9911 24.0851L14.42 19.755C15.2333 18.7219 16.1785 17.6669 17.2115 16.6118C22.9264 17.4031 27.4544 21.8431 28.3556 27.5141Z" fill="white"/>
<path opacity="0.4" d="M19.057 34.8772C19.057 37.2951 18.1338 39.603 16.3754 41.3394C15.0346 42.7022 13.2322 43.6254 11.0342 43.8892L5.64898 44.4826C2.70361 44.8123 0.175876 42.2846 0.505581 39.3172L1.09905 33.9101C1.62658 29.0964 5.64898 26.0192 9.91316 25.9312C10.3308 25.9093 10.7924 25.9312 11.232 25.9752C13.1003 26.217 14.9027 27.0742 16.4193 28.5689C17.892 30.0416 18.7273 31.778 18.9691 33.6024C19.013 34.042 19.057 34.4596 19.057 34.8772Z" fill="white"/>
</svg>
