<svg width="47" height="50" viewBox="0 0 47 50" fill="none" xmlns="http://www.w3.org/2000/svg">
<path opacity="0.4" d="M44.8561 50.0001H2.54049C1.57664 50.0001 0.777344 48.8944 0.777344 47.5611C0.777344 46.2278 1.57664 45.1221 2.54049 45.1221H44.8561C45.82 45.1221 46.6192 46.2278 46.6192 47.5611C46.6192 48.8944 45.82 50.0001 44.8561 50.0001Z" fill="white"/>
<path d="M8.65126 14.9983H4.88993C3.59695 14.9983 2.53906 16.0562 2.53906 17.3492V37.6136C2.53906 38.9066 3.59695 39.9645 4.88993 39.9645H8.65126C9.94424 39.9645 11.0021 38.9066 11.0021 37.6136V17.3492C11.0021 16.0327 9.94424 14.9983 8.65126 14.9983Z" fill="white"/>
<path d="M25.577 7.49902H21.8157C20.5227 7.49902 19.4648 8.55691 19.4648 9.84989V37.6136C19.4648 38.9066 20.5227 39.9645 21.8157 39.9645H25.577C26.87 39.9645 27.9279 38.9066 27.9279 37.6136V9.84989C27.9279 8.55691 26.87 7.49902 25.577 7.49902Z" fill="white"/>
<path d="M42.5028 0H38.7415C37.4485 0 36.3906 1.05789 36.3906 2.35087V37.6139C36.3906 38.9068 37.4485 39.9647 38.7415 39.9647H42.5028C43.7958 39.9647 44.8537 38.9068 44.8537 37.6139V2.35087C44.8537 1.05789 43.7958 0 42.5028 0Z" fill="white"/>
</svg>
