<svg width="40" height="40" viewBox="0 0 40 40" fill="none" xmlns="http://www.w3.org/2000/svg">
<path d="M7.04527 38.6868C8.26924 38.6868 9.36767 38.6901 10.4661 38.6852C10.922 38.6835 11.3234 38.7628 11.3201 39.3277C11.3168 39.853 10.9187 39.924 10.5074 39.924C7.50777 39.9257 4.50648 39.9389 1.50684 39.9141C0.545501 39.9058 0.0384037 39.3822 0.0334483 38.4027C0.0185823 35.788 -0.0524444 33.1682 0.0730911 30.5601C0.268001 26.5611 3.29572 23.3831 7.2633 22.8165C8.24776 22.6761 8.57151 21.8419 9.04888 21.2077C8.37 20.5849 7.69277 20.058 7.13446 19.427C6.59598 18.8175 6.17808 18.099 5.70402 17.4251C4.19594 17.8892 3.87715 17.7488 3.03639 16.2986C2.9571 16.1598 2.76054 16.0591 2.59702 16.0046C0.928715 15.4347 0.0796982 14.3775 0.135859 12.9157C0.193671 11.4159 1.14179 10.3505 2.82001 9.89956C2.84643 9.89295 2.86791 9.87313 3.01492 9.78559C3.01492 9.32144 3.00501 8.77965 3.01492 8.23952C3.10411 4.08694 5.87085 0.794934 9.96066 0.130918C11.1978 -0.0689482 12.4862 0.0185963 13.7499 0.0218998C14.8483 0.0252034 15.9682 -0.0293054 17.0386 0.163953C21.0276 0.885782 23.7597 4.17283 23.8505 8.23126C23.8621 8.75157 23.8505 9.27188 23.8505 9.82688C24.1676 9.92929 24.4518 10.0069 24.7259 10.1143C25.9631 10.5983 26.7213 11.7479 26.6916 13.0776C26.6635 14.3825 25.8244 15.5288 24.5426 15.8939C24.0735 16.0277 23.8257 16.2259 23.644 16.695C23.3385 17.4845 22.4713 17.8265 21.6586 17.5853C21.4521 17.5242 21.2556 17.4333 21.0012 17.3375C20.2777 18.9199 19.1859 20.1654 17.6382 21.1284C18.0577 21.6487 18.4277 22.1095 18.8654 22.6546C19.7409 21.6801 20.831 21.6817 21.9493 21.6867C26.903 21.7065 31.8583 21.6933 36.812 21.6949C38.8702 21.6949 39.8034 22.6133 39.8133 24.6467C39.8199 25.9119 39.8249 27.1789 39.8084 28.4441C39.8001 29.0735 39.5111 29.3708 39.0651 29.2667C38.6191 29.1643 38.5695 28.8174 38.5712 28.4359C38.5761 27.1706 38.5761 25.9037 38.5712 24.6368C38.5679 23.3599 38.1797 22.9701 36.8946 22.9701C31.6932 22.9668 26.4901 22.9668 21.2886 22.9701C19.9985 22.9701 19.6005 23.3616 19.5988 24.6269C19.5955 28.122 19.5988 31.6172 19.5988 35.114V35.8226H38.5728C38.5728 35.1025 38.5728 34.3459 38.5728 33.5878C38.5728 33.34 38.5117 33.0576 38.6125 32.856C38.7149 32.6496 38.9759 32.4035 39.1741 32.3985C39.369 32.3935 39.63 32.6297 39.7539 32.8296C39.8563 32.9931 39.8117 33.2558 39.8117 33.4755C39.815 35.2643 39.8166 37.0532 39.8117 38.8421C39.8084 39.9108 39.7142 40 38.6158 40C30.5237 40 22.4316 40 14.3395 40C13.3105 40 13.1899 39.8794 13.1816 38.8768C13.1783 38.4638 13.1602 38.0492 13.1949 37.6396C13.2874 36.5527 13.9877 35.8722 15.0779 35.8425C16.1218 35.8144 17.1657 35.8359 18.2873 35.8359V24.9407C18.1056 25.0861 17.9371 25.1967 17.7984 25.3371C16.6339 26.5082 15.4776 27.686 14.3131 28.8587C13.5715 29.607 13.4443 29.6103 12.7208 28.8802C11.287 27.4332 9.84669 25.9929 8.43772 24.5228C8.05616 24.1264 7.70598 23.9926 7.14272 24.1016C3.745 24.7673 1.28715 27.6447 1.26237 31.0903C1.24421 33.5399 1.26568 35.9895 1.27063 38.4391C1.27063 38.4903 1.30202 38.5398 1.34001 38.6587H5.79982C5.79982 38.1946 5.79982 37.7602 5.79982 37.3258C5.79982 35.5369 5.79817 33.748 5.80313 31.9591C5.80313 31.5379 5.80313 31.0771 6.39777 31.0672C7.03866 31.0556 7.04692 31.528 7.04031 31.9922C7.03866 32.1573 7.04031 32.3225 7.04031 32.4877C7.04031 34.2485 7.04031 36.0109 7.04031 37.7717V38.6835L7.04527 38.6868ZM20.0877 16.1945C19.3676 16.1945 18.654 16.1582 17.9487 16.2127C17.6679 16.2341 17.3375 16.3911 17.1393 16.5942C16.3878 17.359 15.362 17.4482 14.6484 16.7578C13.9596 16.0888 13.9695 14.9771 14.6699 14.3247C15.3818 13.6623 16.4357 13.7631 17.1542 14.5493C17.2896 14.698 17.4763 14.8946 17.6448 14.9012C18.5978 14.9358 19.5542 14.9177 20.5304 14.9177V10.7816C17.9454 12.6779 15.8294 11.9065 13.9315 9.74925C12.2005 12.4598 9.81531 13.6359 6.7017 13.0594C5.98813 17.1278 9.06705 20.4545 12.2484 20.8624C15.9236 21.3332 19.6401 19.171 20.0894 16.1962L20.0877 16.1945ZM6.41263 11.7099C8.63759 12.2567 10.4595 11.9643 11.8966 10.367C12.402 9.80541 12.7604 9.1034 13.1503 8.44599C13.5434 7.78032 14.029 7.73738 14.4667 8.36175C14.6567 8.63099 14.8334 8.91179 15.0432 9.16452C16.543 10.9716 18.1816 11.1103 19.9754 9.61545C20.3636 9.29171 20.4825 8.98612 20.3223 8.48068C19.6913 6.49193 17.9784 5.05819 15.8939 4.96734C14.3015 4.89796 12.6993 4.89961 11.107 4.96734C9.09017 5.05323 7.4483 6.29372 6.90321 8.23622C6.59763 9.32804 6.57286 10.4975 6.40933 11.7116L6.41263 11.7099ZM22.691 8.63925C23.0378 5.03671 19.9919 1.5465 16.3597 1.3681C14.6319 1.28386 12.8942 1.30368 11.1648 1.34828C8.25602 1.42426 5.69576 3.37502 4.84344 6.17149C4.61054 6.93461 4.56924 7.7572 4.43215 8.5963H5.42487C5.46947 8.46912 5.50911 8.36836 5.54049 8.26595C6.43411 5.36046 8.70035 3.6806 11.7396 3.67399C13.0049 3.67069 14.2702 3.66904 15.5338 3.67399C18.2014 3.68555 20.4957 5.28613 21.4372 7.78528C21.543 8.06608 21.6371 8.35019 21.7379 8.63595H22.6943L22.691 8.63925ZM14.4915 38.6241H38.5183V37.0598C38.1351 37.0598 37.8097 37.0598 37.4827 37.0598C34.8167 37.0598 32.1491 37.0598 29.4831 37.0565C24.8102 37.0483 20.1356 37.035 15.4628 37.0284C14.5708 37.0284 14.4618 37.1441 14.4618 38.0261C14.4618 38.2144 14.4799 38.4027 14.4915 38.6241ZM13.4938 27.7058C14.9408 26.2539 16.3878 24.8003 17.8298 23.3517C17.4333 22.8446 16.9824 22.2681 16.5348 21.6966C14.4684 22.4928 12.4301 22.4283 10.4711 21.7131C9.98214 22.3424 9.55102 22.8974 9.17607 23.3798C10.6511 24.8598 12.1014 26.3133 13.4905 27.7074L13.4938 27.7058ZM5.40339 13.1833C5.37531 13.1833 5.34889 13.1833 5.32081 13.1833C5.32081 12.331 5.32411 11.4787 5.32081 10.6247C5.32081 10.3142 5.30759 9.9392 4.88308 10.0086C4.73112 10.0334 4.53621 10.4017 4.53291 10.6164C4.50482 12.3211 4.50152 14.0274 4.53291 15.7337C4.53786 15.9699 4.74268 16.3762 4.9029 16.4026C5.33732 16.4737 5.40505 16.102 5.40339 15.7419C5.40009 14.8896 5.40339 14.0356 5.40339 13.1833ZM22.719 13.2444C22.719 12.364 22.719 11.4836 22.719 10.6032C22.719 10.2712 22.6381 9.93425 22.245 10.0102C22.0847 10.0416 21.8865 10.4034 21.8832 10.6164C21.8535 12.3492 21.8535 14.0835 21.8832 15.8162C21.8865 16.0244 22.0947 16.3795 22.2516 16.4059C22.648 16.4737 22.7174 16.1317 22.7174 15.803C22.7174 14.9507 22.7174 14.0967 22.7174 13.2444H22.719ZM3.14706 11.2491C2.15764 11.3911 1.57456 12.065 1.58612 13.028C1.59769 13.9563 2.17416 14.6104 3.14706 14.7442V11.2474V11.2491ZM24.014 14.8301C25.1752 14.4634 25.679 13.7201 25.5403 12.7142C25.428 11.8982 24.8383 11.368 24.014 11.3498V14.8301Z" fill="#3C66FA"/>
</svg>
