<svg width="40" height="36" viewBox="0 0 40 36" fill="none" xmlns="http://www.w3.org/2000/svg">
<path d="M5.26383 5.23205C5.26383 4.53631 5.26383 3.89206 5.26383 3.2478C5.26383 2.70183 5.24823 2.15585 5.27475 1.60987C5.31687 0.722261 5.82541 0.168483 6.70521 0.0358879C6.96104 -0.00155071 7.22311 9.23039e-06 7.48206 9.23039e-06C17.5936 9.23039e-06 27.7067 9.23027e-06 37.8182 0.00312911C38.1536 0.00312911 38.4968 0.0218484 38.8213 0.0967255C39.4967 0.254279 39.9304 0.790899 39.9897 1.48195C40.0068 1.68786 39.9975 1.8969 39.9975 2.10593C39.9975 10.7886 39.9975 19.4696 39.9975 28.1522C39.9975 28.2568 39.9975 28.3597 39.9975 28.4642C39.9756 29.6139 39.3657 30.227 38.1988 30.2457C37.3409 30.2597 36.4829 30.2488 35.6249 30.2488C35.3675 30.2488 35.1102 30.2488 34.7794 30.2488C34.7639 30.5826 34.7405 30.8603 34.7389 31.1395C34.7327 32.049 34.7545 32.96 34.728 33.8694C34.6999 34.796 34.1695 35.3623 33.257 35.4902C33.0261 35.523 32.7905 35.5183 32.5565 35.5183C22.4185 35.5183 12.2804 35.5198 2.14395 35.5152C1.80856 35.5152 1.4607 35.4996 1.14247 35.4091C0.479495 35.2219 0.10199 34.7524 0.0161928 34.066C-0.0103262 33.8616 0.00371329 33.651 0.00371329 33.442C0.00371329 24.7344 0.00371329 16.0253 0.00371329 7.31769C0.00371329 7.23969 0.00371329 7.16169 0.00371329 7.0837C0.0208726 5.87474 0.61209 5.28509 1.84132 5.27105C2.69929 5.26169 3.55726 5.27105 4.41522 5.26793C4.66793 5.26793 4.92064 5.24765 5.26539 5.23205H5.26383ZM6.66466 28.7669H38.5451V7.55948C37.4235 7.37073 7.1966 7.43156 6.66622 7.6094V28.7669H6.66466ZM33.3427 30.2504C32.9652 30.2504 32.6345 30.2504 32.3054 30.2504C24.0658 30.2504 15.8277 30.2504 7.58814 30.2504C7.32763 30.2504 7.06712 30.2644 6.80817 30.241C5.90653 30.163 5.33715 29.5812 5.27475 28.6795C5.25603 28.4206 5.26383 28.16 5.26383 27.8995C5.26383 23.1698 5.26383 18.4385 5.26227 13.7088C5.26227 13.4077 5.23575 13.1066 5.22171 12.7822H1.52777C1.30938 13.6526 1.34682 33.4763 1.55273 34.0504C2.8896 34.2267 32.7718 34.1502 33.3427 33.9552V30.2504ZM38.5623 1.46791H6.68182V5.99174H38.5623V1.46791ZM5.21547 11.2971V6.74831H1.46226V11.2971H5.21547Z" fill="#3C66FA"/>
<path d="M26.3589 21.3603C26.2403 20.5845 26.4754 20.05 27.064 19.7567C28.1076 19.2357 29.1543 18.7194 30.1964 18.1968C30.4179 18.086 30.6316 17.9581 30.9576 17.7772C30.2868 17.4387 29.7159 17.1469 29.1418 16.8615C28.4695 16.5261 27.7925 16.1969 27.1186 15.8631C26.4905 15.5522 26.2357 15.0171 26.3542 14.2579C26.4977 14.2938 26.6506 14.3016 26.7754 14.3656C28.5319 15.2579 30.2837 16.1626 32.0418 17.0518C32.3428 17.2047 32.5409 17.3638 32.5394 17.7475C32.5378 18.1079 32.4161 18.32 32.0979 18.4807C30.2946 19.3964 28.4991 20.3261 26.699 21.2496C26.6132 21.2933 26.5149 21.3104 26.3605 21.3603H26.3589Z" fill="#3C66FA"/>
<path d="M14.2416 17.8052C15.1838 18.281 16.0308 18.7084 16.8795 19.1358C17.2975 19.3464 17.7156 19.5523 18.1336 19.7629C19.0041 20.1997 19.0135 20.2231 18.7904 21.3353C18.6219 21.2776 18.4488 21.2417 18.2974 21.1638C16.5877 20.2871 14.8812 19.4026 13.1715 18.5259C12.8611 18.3668 12.6099 18.2217 12.6161 17.7818C12.6239 17.3606 12.8361 17.1968 13.159 17.0346C14.8515 16.1813 16.5363 15.3124 18.2272 14.4544C18.4035 14.3655 18.597 14.3094 18.7919 14.2345C19.0135 15.3561 18.9979 15.3904 18.0728 15.8537C17.0277 16.3763 15.9825 16.8973 14.9389 17.423C14.7361 17.5244 14.5411 17.6398 14.2416 17.8068V17.8052Z" fill="#3C66FA"/>
<path d="M25.0142 12.4467C23.8099 15.5666 22.6087 18.6771 21.406 21.7939H20.1971C20.2922 21.4944 20.3578 21.251 20.4467 21.017C21.4544 18.376 22.4637 15.7351 23.4761 13.0941C23.8146 12.2096 23.9144 12.1675 25.0142 12.4467Z" fill="#3C66FA"/>
<path d="M16.4253 2.9186C16.7888 2.9186 17.1523 2.9108 17.5157 2.92016C17.9431 2.93108 18.2193 3.16663 18.238 3.58157C18.2567 4.01055 17.965 4.26638 17.5578 4.28354C16.781 4.3163 16.001 4.32878 15.2242 4.28978C14.7203 4.26482 14.4676 3.95752 14.5097 3.54725C14.555 3.10579 14.8435 2.9264 15.2569 2.9186C15.6454 2.9108 16.0353 2.91704 16.4253 2.91704V2.9186Z" fill="#3C66FA"/>
<path d="M10.9295 2.91865C11.2929 2.91865 11.6564 2.90929 12.0183 2.92177C12.4379 2.93581 12.7156 3.14484 12.7359 3.58007C12.7577 4.02621 12.4738 4.26956 12.0682 4.28516C11.2664 4.3148 10.4615 4.31636 9.65966 4.27892C9.2494 4.2602 8.98421 3.99813 9.02009 3.55355C9.05596 3.11521 9.34611 2.92801 9.76106 2.92021C10.1495 2.91241 10.5395 2.91865 10.9279 2.92021L10.9295 2.91865Z" fill="#3C66FA"/>
</svg>
