<svg width="42" height="42" viewBox="0 0 42 42" fill="none" xmlns="http://www.w3.org/2000/svg">
<path d="M14.1066 25.2803H4.93001C2.7685 25.2803 1 27.0488 1 29.2103V41.0003H14.1066V25.2803Z" stroke="#3C66FA" stroke-width="1.5" stroke-miterlimit="10" stroke-linecap="round" stroke-linejoin="round"/>
<path d="M23.2625 17.4199H18.0159C15.8544 17.4199 14.0859 19.1884 14.0859 21.3499V41H27.1925V21.3499C27.1925 19.1884 25.4437 17.4199 23.2625 17.4199Z" stroke="#3C66FA" stroke-width="1.5" stroke-miterlimit="10" stroke-linecap="round" stroke-linejoin="round"/>
<path d="M36.3699 31.1748H27.1934V40.9998H40.2999V35.1048C40.2999 32.9433 38.5314 31.1748 36.3699 31.1748Z" stroke="#3C66FA" stroke-width="1.5" stroke-miterlimit="10" stroke-linecap="round" stroke-linejoin="round"/>
<path d="M21.6729 1.83762L22.7144 3.92052C22.8519 4.21527 23.2253 4.49036 23.5397 4.52966L25.4261 4.84407C26.6247 5.04057 26.9195 5.92478 26.0549 6.76974L24.5811 8.24349C24.3257 8.49894 24.1881 8.97056 24.2667 9.30461L24.6794 11.1124C25.0134 12.5469 24.2471 13.0971 22.9895 12.3504L21.221 11.3089C20.9066 11.1124 20.376 11.1124 20.0616 11.3089L18.2931 12.3504C17.0355 13.0971 16.2692 12.5469 16.6032 11.1124L17.0159 9.30461C17.0945 8.97056 16.9569 8.47929 16.7015 8.24349L15.2474 6.7894C14.3828 5.9248 14.6579 5.06018 15.8762 4.86368L17.7626 4.54933C18.077 4.49038 18.4503 4.21529 18.5879 3.94019L19.6293 1.85723C20.1992 0.717526 21.1031 0.717567 21.6729 1.83762Z" stroke="#3C66FA" stroke-width="1.5" stroke-linecap="round" stroke-linejoin="round"/>
</svg>
