<svg width="38" height="38" viewBox="0 0 38 38" fill="none" xmlns="http://www.w3.org/2000/svg">
<path d="M15.4 5.49999V29.8C15.4 31.744 14.608 33.5259 13.348 34.8219L13.276 34.894C13.114 35.056 12.934 35.218 12.772 35.344C12.232 35.812 11.62 36.1719 10.99 36.4239C10.792 36.5139 10.594 36.5859 10.396 36.6579C9.694 36.8919 8.938 37 8.2 37C7.714 37 7.22802 36.9459 6.76002 36.8559C6.52602 36.8019 6.292 36.748 6.058 36.676C5.77 36.586 5.50001 36.4959 5.23001 36.3699C5.23001 36.3519 5.22999 36.3519 5.21199 36.3699C4.70799 36.1179 4.22202 35.83 3.77202 35.488L3.754 35.4699C3.52 35.2899 3.30402 35.11 3.10602 34.894C2.90802 34.678 2.70999 34.462 2.51199 34.228C2.16999 33.778 1.88201 33.292 1.63001 32.788C1.64801 32.77 1.64801 32.7699 1.63001 32.7699C1.63001 32.7699 1.62999 32.752 1.61199 32.734C1.50399 32.482 1.41399 32.212 1.32399 31.942C1.25199 31.708 1.19798 31.474 1.14398 31.24C1.05398 30.772 1 30.286 1 29.8V5.49999C1 2.8 2.8 1 5.5 1H10.9C13.6 1 15.4 2.8 15.4 5.49999Z" stroke="#3C66FA" stroke-width="2" stroke-linecap="round" stroke-linejoin="round"/>
<path d="M37.0002 27.1001V32.5001C37.0002 35.2001 35.2002 37.0001 32.5002 37.0001H8.2002C8.9382 37.0001 9.6942 36.8921 10.3962 36.6581C10.5942 36.5861 10.7922 36.5141 10.9902 36.4241C11.6202 36.1721 12.2322 35.8121 12.7722 35.3441C12.9342 35.2181 13.1142 35.0561 13.2762 34.8941L13.3482 34.8221L25.5882 22.6001H32.5002C35.2002 22.6001 37.0002 24.4001 37.0002 27.1001Z" stroke="#3C66FA" stroke-width="2" stroke-linecap="round" stroke-linejoin="round"/>
<path d="M6.05725 36.6759C4.97725 36.3519 3.95128 35.7579 3.10528 34.8939C2.24128 34.0479 1.64724 33.0219 1.32324 31.9419C2.02524 34.1919 3.80725 35.9739 6.05725 36.6759Z" stroke="#3C66FA" stroke-width="2" stroke-linecap="round" stroke-linejoin="round"/>
<path d="M30.4647 17.722L25.5867 22.6L13.3467 34.822C14.6067 33.526 15.3987 31.744 15.3987 29.8V12.412L20.2767 7.53403C22.1847 5.62603 24.7407 5.62603 26.6487 7.53403L30.4647 11.35C32.3727 13.258 32.3727 15.814 30.4647 17.722Z" stroke="#3C66FA" stroke-width="2" stroke-linecap="round" stroke-linejoin="round"/>
<path d="M8.1999 31.6C9.19401 31.6 9.9999 30.7941 9.9999 29.8C9.9999 28.8059 9.19401 28 8.1999 28C7.20579 28 6.3999 28.8059 6.3999 29.8C6.3999 30.7941 7.20579 31.6 8.1999 31.6Z" stroke="#3C66FA" stroke-width="2" stroke-linecap="round" stroke-linejoin="round"/>
</svg>
