<svg width="1920" height="897" viewBox="0 0 1920 897" fill="none" xmlns="http://www.w3.org/2000/svg">
<path d="M1769 713.884C1776.74 720.044 1784.12 719.225 1789.5 718.633C1794.33 718.101 1796.6 717.962 1799.67 720.402C1802.74 722.842 1803.11 725.064 1803.63 729.865C1804.22 735.207 1805.03 742.526 1812.77 748.687C1820.52 754.848 1827.89 754.029 1833.28 753.436C1838.11 752.905 1840.37 752.765 1843.45 755.205C1846.51 757.645 1846.88 759.867 1847.41 764.66C1847.99 770.002 1848.8 777.321 1856.55 783.482C1864.29 789.643 1871.67 788.824 1877.05 788.231C1881.88 787.7 1884.15 787.56 1887.22 790L1896 779.116C1888.26 772.956 1880.88 773.775 1875.5 774.367C1870.67 774.899 1868.4 775.038 1865.33 772.598C1862.26 770.158 1861.89 767.936 1861.37 763.144C1860.78 757.802 1859.97 750.482 1852.23 744.322C1844.48 738.161 1837.11 738.98 1831.72 739.572C1826.89 740.104 1824.63 740.243 1821.55 737.803C1818.48 735.364 1818.12 733.142 1817.59 728.34C1817.01 722.999 1816.2 715.679 1808.45 709.518C1800.71 703.357 1793.33 704.176 1787.95 704.769C1783.12 705.3 1780.85 705.44 1777.78 703L1769 713.884Z" fill="#FEEAA6" fill-opacity="0.4"/>
<path d="M1778.35 702.444C1775.95 705.449 1776.4 709.99 1779.97 711.433C1785.4 713.628 1790.41 713.069 1794.34 712.633C1799.13 712.101 1801.38 711.962 1804.43 714.402C1807.47 716.842 1807.84 719.064 1808.36 723.865C1808.94 729.207 1809.74 736.526 1817.43 742.687C1825.11 748.848 1832.43 748.029 1837.77 747.436C1842.56 746.905 1844.81 746.765 1847.86 749.205C1850.9 751.645 1851.27 753.867 1851.79 758.66C1852.37 764.002 1853.17 771.321 1860.86 777.482C1868.54 783.643 1875.86 782.824 1881.2 782.231C1882.59 782.076 1883.77 781.955 1884.82 781.921C1888.67 781.794 1893.24 781.563 1895.65 778.556C1898.05 775.551 1897.6 771.01 1894.03 769.567C1888.6 767.372 1883.59 767.931 1879.66 768.367C1874.87 768.899 1872.62 769.038 1869.57 766.598C1866.53 764.158 1866.16 761.936 1865.64 757.144C1865.06 751.802 1864.26 744.482 1856.57 738.322C1848.89 732.161 1841.57 732.98 1836.23 733.572C1831.44 734.104 1829.19 734.243 1826.14 731.803C1823.09 729.364 1822.73 727.142 1822.21 722.34C1821.63 716.999 1820.83 709.679 1813.14 703.518C1805.46 697.357 1798.14 698.176 1792.8 698.769C1791.41 698.924 1790.23 699.045 1789.18 699.079C1785.33 699.206 1780.76 699.437 1778.35 702.444Z" fill="url(#paint0_linear_431_74)" fill-opacity="0.5"/>
<circle cx="1364" cy="96" r="6" fill="#6640FF"/>
<circle cx="1810" cy="207" r="8" fill="#6640FF"/>
<path d="M402.9 98.0701C394.08 105.14 385.68 104.2 379.55 103.52C374.05 102.91 371.47 102.75 367.97 105.55C364.48 108.35 364.06 110.9 363.46 116.41C362.79 122.54 361.87 130.94 353.05 138.01C344.23 145.08 335.83 144.14 329.7 143.46C324.2 142.85 321.62 142.69 318.12 145.49C314.63 148.29 314.21 150.84 313.61 156.34C312.94 162.47 312.02 170.87 303.2 177.94C294.38 185.01 285.98 184.07 279.85 183.39C274.35 182.78 271.77 182.62 268.27 185.42L258.27 172.93C267.09 165.86 275.49 166.8 281.62 167.48C287.12 168.09 289.7 168.25 293.2 165.45C296.69 162.65 297.11 160.1 297.71 154.6C298.38 148.47 299.3 140.07 308.12 133C316.94 125.93 325.34 126.87 331.47 127.55C336.97 128.16 339.55 128.32 343.05 125.52C346.55 122.72 346.96 120.17 347.56 114.66C348.23 108.53 349.15 100.13 357.97 93.0601C366.79 85.9901 375.19 86.9301 381.32 87.6101C386.82 88.2201 389.4 88.3801 392.9 85.5801L402.9 98.0701Z" fill="#EFECFF"/>
<path d="M392.63 85.2456C395.392 88.6949 394.873 93.9082 390.776 95.5631C384.539 98.0824 378.794 97.4407 374.28 96.94C368.78 96.33 366.2 96.17 362.7 98.97C359.21 101.77 358.79 104.32 358.19 109.83C357.52 115.96 356.6 124.36 347.78 131.43C338.96 138.5 330.56 137.56 324.43 136.88C318.93 136.27 316.35 136.11 312.85 138.91C309.36 141.71 308.94 144.26 308.34 149.76C307.67 155.89 306.75 164.29 297.93 171.36C289.11 178.43 280.71 177.49 274.58 176.81C272.978 176.632 271.624 176.493 270.422 176.454C266.006 176.309 260.762 176.044 258 172.594C255.238 169.145 255.757 163.932 259.854 162.277C266.091 159.758 271.836 160.399 276.35 160.9C281.85 161.51 284.43 161.67 287.93 158.87C291.42 156.07 291.84 153.52 292.44 148.02C293.11 141.89 294.03 133.49 302.85 126.42C311.67 119.35 320.07 120.29 326.2 120.97C331.7 121.58 334.28 121.74 337.78 118.94C341.28 116.14 341.69 113.59 342.29 108.08C342.96 101.95 343.88 93.55 352.7 86.48C361.52 79.41 369.92 80.35 376.05 81.03C377.652 81.2077 379.006 81.3472 380.208 81.3865C384.624 81.5309 389.868 81.7958 392.63 85.2456Z" fill="url(#paint1_linear_431_74)" fill-opacity="0.5"/>
<defs>
<linearGradient id="paint0_linear_431_74" x1="1837" y1="697" x2="1837" y2="784" gradientUnits="userSpaceOnUse">
<stop stop-color="#FFE176" offset="0%"/>
<stop offset="1" stop-color="#FFD646"/>
</linearGradient>
<linearGradient id="paint1_linear_431_74" x1="325.315" y1="79" x2="325.315" y2="178.84" gradientUnits="userSpaceOnUse">
<stop stop-color="#9888F4"/>
<stop offset="1" stop-color="#907EF3"/>
</linearGradient>
</defs>
</svg>
