<svg width="675" height="557" viewBox="0 0 675 557" fill="none" xmlns="http://www.w3.org/2000/svg">
<path d="M452.978 103.491H452.977L454.894 102.385L452.978 103.491Z" fill="#D1EBFA"/>
<path d="M400.76 133.909H400.758L402.675 132.804L400.76 133.909Z" fill="#D1EBFA"/>
<path d="M176.887 364.045L202.039 349.523L176.887 364.045ZM174.972 362.938L123.228 333.065L122.75 332.788L139.88 322.898L173.053 303.746L174.97 302.638V302.64L175.268 302.811L175.448 302.917L176.886 303.746L227.19 332.788L225.274 333.895L174.97 304.853L160.503 313.204L124.666 333.895L174.972 362.938L194.77 351.508L174.972 362.938ZM229.107 333.895L227.669 333.065L227.363 332.888L229.107 333.895Z" fill="#D1EBFA"/>
<path opacity="0.3" d="M229.106 393.956L254.258 379.434L229.106 393.956ZM227.189 392.849L176.884 363.807L175.142 362.8L174.969 362.699L194.767 351.27L225.271 333.657L227.187 332.549H227.189L227.36 332.65L227.666 332.826L229.104 333.657L271.89 358.359C271.372 358.809 270.917 359.287 270.53 359.785L227.187 334.764L202.037 349.285L176.884 363.807L227.189 392.849L246.987 381.419L227.19 392.849H227.189ZM277.493 363.807L275.802 362.831C276.088 362.587 276.444 362.332 276.884 362.078L277.607 361.659L279.409 362.699L277.493 363.807Z" fill="#D1EBFA"/>
<path opacity="0.3" d="M333.541 454.299L356.122 441.262L333.541 454.299ZM331.624 453.194L281.318 424.151L281.32 424.15L279.615 423.167L279.402 423.044L304.428 408.595L306.344 409.702L298.552 414.201L281.32 424.15L331.624 453.194L356.65 438.746L331.624 453.194Z" fill="#D1EBFA"/>
<path d="M383.843 485.806V485.805V485.806ZM385.758 484.699L414.039 468.372L385.758 484.699ZM381.925 484.699L348.176 465.214L381.925 484.699ZM383.843 483.593L364.917 472.665L383.843 483.593L408.993 469.071L383.843 483.593ZM437.978 454.549L436.54 453.72L436.234 453.544L437.978 454.549ZM434.145 454.549L406.52 438.599L408.434 437.492L436.061 453.443L434.145 454.549ZM333.538 454.547L331.621 453.442L356.647 438.994L358.563 440.1L356.119 441.51L333.537 454.547" fill="#D1EBFA"/>
<path d="M69.1524 354.233C68.1297 354.824 67.1433 355.561 66.202 356.395C65.7936 343.12 56.2034 337.839 44.4034 344.652C34.7925 350.201 26.649 362.081 23.7314 373.725C21.3572 373.405 18.5712 374.023 15.5775 375.752C6.97373 380.72 0 392.798 0 402.731C0 412.666 6.97373 416.691 15.5775 411.724L69.1524 380.794C75.5049 377.126 80.653 368.209 80.653 360.873C80.653 353.54 75.5049 350.567 69.1524 354.233Z" fill="#ECE0CF"/>
<path d="M484.751 435.52C484.751 438.744 482.491 442.658 479.7 444.271C476.91 445.882 474.648 444.575 474.648 441.353C474.648 438.133 476.91 434.215 479.7 432.606C482.491 430.995 484.751 432.299 484.751 435.52Z" fill="#ECE0CF"/>
<path d="M501.102 425.889C501.102 429.111 498.842 433.027 496.051 434.638C493.262 436.249 491 434.943 491 431.721C491 428.5 493.262 424.582 496.051 422.973C498.842 421.362 501.102 422.667 501.102 425.889Z" fill="#ECE0CF"/>
<path d="M517.513 416.764C517.513 419.986 515.253 423.902 512.461 425.513C509.672 427.124 507.41 425.817 507.41 422.597C507.41 419.375 509.672 415.459 512.461 413.848C515.253 412.237 517.513 413.541 517.513 416.764Z" fill="#ECE0CF"/>
<path d="M533.864 407.132C533.864 410.353 531.602 414.271 528.813 415.88C526.023 417.491 523.762 416.184 523.762 412.964C523.762 409.742 526.023 405.826 528.813 404.215C531.602 402.604 533.864 403.91 533.864 407.132Z" fill="#ECE0CF"/>
<path d="M248.95 525.761C248.95 528.983 246.688 532.901 243.899 534.512C241.109 536.121 238.848 534.815 238.848 531.594C238.848 528.374 241.109 524.456 243.899 522.845C246.688 521.236 248.95 522.541 248.95 525.761Z" fill="#ECE0CF"/>
<path d="M262.891 517.652C262.891 520.872 260.63 524.79 257.84 526.399C255.049 528.01 252.789 526.704 252.789 523.483C252.789 520.261 255.049 516.345 257.84 514.734C260.63 513.123 262.891 514.43 262.891 517.652Z" fill="#ECE0CF"/>
<path d="M248.95 509.537C248.95 512.758 246.688 516.675 243.899 518.288C241.109 519.897 238.848 518.593 238.848 515.371C238.848 512.15 241.109 508.232 243.899 506.623C246.688 505.012 248.95 506.317 248.95 509.537Z" fill="#ECE0CF"/>
<path d="M262.891 501.936C262.891 505.156 260.63 509.074 257.84 510.683C255.049 512.295 252.789 510.988 252.789 507.768C252.789 504.546 255.049 500.63 257.84 499.018C260.63 497.407 262.891 498.712 262.891 501.936Z" fill="#ECE0CF"/>
<path d="M202.118 122.669L192.016 128.5V116.836L202.118 111.004V122.669Z" fill="#ECE0CF"/>
<path d="M216.124 114.557L206.02 120.389V108.724L216.124 102.892V114.557Z" fill="#ECE0CF"/>
<path d="M202.243 137.878L192.141 143.71V132.045L202.243 126.213V137.878Z" fill="#ECE0CF"/>
<path d="M216.124 129.766L206.02 135.598V123.935L216.124 118.101V129.766Z" fill="#ECE0CF"/>
<path d="M530.273 79.0525C526.601 79.0525 524.078 76.1246 524.078 71.0596C524.078 63.9214 529.091 55.2415 535.274 51.6715C537.063 50.6385 538.751 50.1539 540.249 50.1539C540.801 50.1539 541.329 50.2214 541.826 50.3495C541.687 49.2403 541.59 48.093 541.59 46.8609C541.59 31.9409 552.067 13.7988 564.988 6.33709C568.734 4.17402 572.27 3.15133 575.405 3.15133C579.96 3.15133 583.666 5.31267 585.933 9.27368C588.19 6.54302 590.777 4.23459 593.532 2.6443C596.07 1.17861 598.467 0.484695 600.592 0.484695C605.664 0.484695 609.178 4.44052 609.341 11.2966C610.819 9.5592 612.496 8.08485 614.276 7.05696C616.005 6.06022 617.637 5.58608 619.084 5.58608C622.615 5.58608 625.04 8.40152 625.04 13.271C625.04 15.8407 624.363 18.6199 623.206 21.2692C622.354 15.9204 619.108 12.8903 614.671 12.8903C612.546 12.8903 610.147 13.5842 607.611 15.0499C604.856 16.6402 602.265 18.9486 600.011 21.6793C597.744 17.7183 594.037 15.557 589.482 15.557C586.347 15.557 582.811 16.5797 579.065 18.7427C566.144 26.2027 555.669 44.3465 555.669 59.2665C555.669 60.4986 555.766 61.6459 555.905 62.7551C555.406 62.6253 554.878 62.5596 554.325 62.5596C552.828 62.5596 551.141 63.0424 549.351 64.0754C545.633 66.2247 542.334 70.2237 540.299 74.6226L535.274 77.5245C533.476 78.5611 531.779 79.0525 530.273 79.0525Z" fill="#C4E6F9"/>
<path d="M544.343 91.188C540.67 91.188 538.148 88.2601 538.148 83.195C538.148 80.3519 538.943 77.2648 540.291 74.3524L614.268 31.6396C617.986 29.4938 621.264 25.4255 623.197 20.999C623.318 21.7639 623.392 22.5755 623.411 23.432C624.891 21.6947 626.566 20.2203 628.347 19.1924C630.075 18.194 631.707 17.7215 633.154 17.7215C636.686 17.7215 639.11 20.537 639.11 25.4048C639.11 32.2695 634.291 40.6137 628.347 44.0452L549.343 89.66C547.547 90.6965 545.849 91.188 544.343 91.188Z" fill="#DAF0FC"/>
<path d="M540.301 74.3841C542.336 69.9853 545.634 65.9862 549.353 63.837C551.142 62.8039 552.829 62.3211 554.326 62.3211C554.88 62.3211 555.408 62.3869 555.906 62.5167C555.768 61.4074 555.671 60.2601 555.671 59.0281C555.671 44.1081 566.145 25.9643 579.066 18.5043C582.813 16.3412 586.348 15.3185 589.484 15.3185C594.038 15.3185 597.745 17.4799 600.012 21.4409C602.267 18.7102 604.857 16.4018 607.612 14.8115C610.149 13.3458 612.547 12.6519 614.672 12.6519C619.109 12.6519 622.356 15.6819 623.207 21.0307C621.274 25.4572 617.996 29.5255 614.278 31.6713L540.301 74.3841Z" fill="#E3F4FD"/>
<path d="M642.413 31.8974C640.631 32.9271 638.957 34.3997 637.478 36.1388C637.246 26.4102 630.265 22.5218 621.667 27.4848C618.913 29.0751 616.323 31.3852 614.068 34.1159C610.239 27.4259 602.312 25.8737 593.123 31.1793C580.2 38.6393 569.727 56.7831 569.727 71.7031C569.727 72.9352 569.822 74.0825 569.959 75.1917C568.118 74.7123 565.858 75.0982 563.407 76.512C557.226 80.0819 552.215 88.7636 552.215 95.9017C552.215 103.042 557.226 105.935 563.407 102.367L642.413 56.752C648.355 53.3205 653.175 44.9762 653.175 38.1115C653.175 31.2485 648.355 28.4677 642.413 31.8974Z" fill="#ECE0CF"/>
<path d="M210.729 362.236H210.746H210.729ZM186.066 347.998V373.653L208.286 360.825V335.166L186.066 347.998ZM183.623 380.328C183.201 380.328 182.78 380.219 182.401 380.001C181.645 379.566 181.18 378.756 181.18 377.884V346.585C181.18 345.712 181.645 344.905 182.401 344.469L209.507 328.821C210.263 328.385 211.193 328.385 211.951 328.821C212.707 329.255 213.172 330.061 213.172 330.935V362.236C213.172 363.11 212.707 363.916 211.951 364.352L184.845 380.001C184.466 380.219 184.045 380.328 183.623 380.328Z" fill="white"/>
<path opacity="0.3" d="M165.011 532.821L125.918 510.25L165.009 487.682L204.102 510.252L165.011 532.821Z" fill="#0030AD"/>
<path d="M131.858 493.45L165.007 512.589L198.154 493.45L165.005 474.315L131.858 493.45ZM165.007 518.993C164.493 518.993 163.981 518.86 163.522 518.595L124.43 496.025C123.511 495.494 122.941 494.513 122.941 493.45C122.941 492.389 123.511 491.408 124.43 490.877L163.521 468.308C164.439 467.777 165.571 467.777 166.49 468.308L205.583 490.877C206.503 491.408 207.071 492.389 207.071 493.45C207.071 494.513 206.505 495.494 205.583 496.025L166.492 518.595C166.033 518.86 165.521 518.993 165.007 518.993Z" fill="#ECE0CF"/>
<path fill-rule="evenodd" clip-rule="evenodd" d="M204.11 476.039L165.02 498.607V453.47L204.11 430.901V476.039Z" fill="url(#paint0_linear_351_3249)"/>
<path fill-rule="evenodd" clip-rule="evenodd" d="M165.009 453.225L125.918 430.656L165.007 408.088L204.098 430.656L165.009 453.225Z" fill="url(#paint1_linear_351_3249)"/>
<path fill-rule="evenodd" clip-rule="evenodd" d="M165.009 498.607L125.918 476.039V430.901L165.009 453.47V498.607Z" fill="url(#paint2_linear_351_3249)"/>
<path d="M150.92 474.172L139.988 467.861V455.236L150.92 461.549V474.172Z" fill="white"/>
<path opacity="0.3" d="M602.716 289.983L563.625 267.412L602.713 244.844L641.807 267.412L602.716 289.983Z" fill="#0030AD"/>
<path d="M569.562 250.105L602.708 269.242L635.855 250.105L602.705 230.97L569.562 250.105ZM602.708 275.647C602.196 275.647 601.682 275.513 601.222 275.247L562.131 252.68C561.212 252.149 560.645 251.166 560.645 250.105C560.645 249.044 561.212 248.063 562.131 247.532L601.222 224.963C602.141 224.432 603.273 224.432 604.193 224.963L643.286 247.532C644.205 248.063 644.772 249.044 644.772 250.105C644.772 251.166 644.205 252.149 643.286 252.68L604.195 275.247C603.733 275.513 603.222 275.647 602.708 275.647Z" fill="white"/>
<path fill-rule="evenodd" clip-rule="evenodd" d="M641.814 232.693L602.723 255.264V210.126L641.814 187.556V232.693Z" fill="url(#paint3_linear_351_3249)"/>
<path fill-rule="evenodd" clip-rule="evenodd" d="M602.714 209.882L563.625 187.311L602.711 164.743L641.805 187.313L602.714 209.882Z" fill="url(#paint4_linear_351_3249)"/>
<path fill-rule="evenodd" clip-rule="evenodd" d="M602.714 255.264L563.625 232.693V187.556L602.714 210.126V255.264Z" fill="url(#paint5_linear_351_3249)"/>
<path d="M588.626 230.827L577.691 224.516V211.891L588.626 218.202V230.827Z" fill="white"/>
<path d="M591.758 187.915L602.615 181.473L613.622 187.654L602.765 194.096L591.758 187.915Z" fill="white"/>
<path opacity="0.3" d="M602.716 532.821L563.625 510.25L602.713 487.682L641.807 510.252L602.716 532.821Z" fill="#0030AD"/>
<path d="M569.56 493.45L602.708 512.589L635.857 493.45L602.705 474.315L569.56 493.45ZM602.708 518.993C602.196 518.993 601.682 518.86 601.222 518.595L562.131 496.025C561.212 495.494 560.645 494.513 560.645 493.45C560.645 492.389 561.212 491.408 562.131 490.877L601.222 468.308C602.141 467.777 603.273 467.777 604.193 468.308L643.286 490.877C644.205 491.408 644.772 492.389 644.772 493.45C644.772 494.513 644.206 495.494 643.286 496.025L604.195 518.595C603.733 518.86 603.222 518.993 602.708 518.993Z" fill="#ECE0CF"/>
<path fill-rule="evenodd" clip-rule="evenodd" d="M641.814 476.039L602.723 498.607V453.47L641.814 430.901V476.039Z" fill="url(#paint6_linear_351_3249)"/>
<path fill-rule="evenodd" clip-rule="evenodd" d="M602.714 453.225L563.625 430.656L602.711 408.088L641.803 430.656L602.714 453.225Z" fill="url(#paint7_linear_351_3249)"/>
<path fill-rule="evenodd" clip-rule="evenodd" d="M602.714 498.607L563.625 476.039V430.901L602.714 453.47V498.607Z" fill="url(#paint8_linear_351_3249)"/>
<path d="M588.626 474.172L577.691 467.861V455.236L588.626 461.549V474.172Z" fill="white"/>
<path opacity="0.3" d="M165.011 289.983L125.918 267.412L165.009 244.844L204.102 267.412L165.011 289.983Z" fill="#0030AD"/>
<path d="M131.86 250.105L165.007 269.242L198.152 250.105L165.005 230.97L131.86 250.105ZM165.007 275.647C164.493 275.647 163.981 275.513 163.522 275.247L124.43 252.68C123.511 252.149 122.941 251.166 122.941 250.105C122.941 249.044 123.511 248.063 124.43 247.532L163.521 224.963C164.439 224.432 165.571 224.432 166.49 224.963L205.583 247.532C206.503 248.063 207.071 249.044 207.071 250.105C207.071 251.166 206.503 252.149 205.583 252.68L166.492 275.247C166.033 275.513 165.521 275.647 165.007 275.647Z" fill="#ECE0CF"/>
<path fill-rule="evenodd" clip-rule="evenodd" d="M204.11 232.693L165.02 255.264V210.126L204.11 187.556V232.693Z" fill="url(#paint9_linear_351_3249)"/>
<path fill-rule="evenodd" clip-rule="evenodd" d="M165.009 209.882L125.918 187.311L165.007 164.743L204.098 187.313L165.009 209.882Z" fill="url(#paint10_linear_351_3249)"/>
<path fill-rule="evenodd" clip-rule="evenodd" d="M165.009 255.264L125.918 232.693V187.556L165.009 210.126V255.264Z" fill="url(#paint11_linear_351_3249)"/>
<path d="M150.92 230.827L139.988 224.516V211.891L150.92 218.202V230.827Z" fill="white"/>
<path d="M470.395 290.28L467.426 285.131L581.106 219.495L584.077 224.643L470.395 290.28Z" fill="#ECE0CF"/>
<path opacity="0.3" d="M374.6 449.061L274.343 391.179C270.669 389.057 271.131 385.353 275.373 382.904L381.633 321.395C385.876 318.946 392.292 318.678 395.966 320.8L496.223 378.682C499.897 380.805 499.435 384.508 495.194 386.958L388.934 448.466C384.691 450.916 378.274 451.182 374.6 449.061Z" fill="#0030AD"/>
<path d="M376.138 423.085C378.891 424.674 384.201 424.395 387.501 422.49L493.759 360.982C495.246 360.124 495.785 359.25 495.785 358.873C495.785 358.65 495.477 358.25 494.79 357.852L394.535 299.97C391.782 298.38 386.473 298.658 383.173 300.565L276.914 362.071C275.428 362.929 274.888 363.803 274.888 364.182C274.888 364.402 275.196 364.805 275.884 365.201L376.138 423.085ZM380.892 430.048C378.03 430.048 375.275 429.448 373.167 428.231L272.912 370.349C270.39 368.892 268.945 366.645 268.945 364.182C268.945 361.403 270.766 358.759 273.939 356.925L380.198 295.419C385.341 292.448 392.941 292.187 397.506 294.822L497.762 352.706C500.283 354.159 501.728 356.407 501.728 358.873C501.728 361.652 499.907 364.296 496.734 366.127L390.475 427.634C387.708 429.233 384.228 430.048 380.892 430.048Z" fill="#ECE0CF"/>
<path fill-rule="evenodd" clip-rule="evenodd" d="M381.621 402.575C382.986 401.617 383.836 399.649 383.836 396.925V152.161C383.836 149.593 383.08 146.823 381.848 144.39L400.75 133.476L402.665 132.37L452.968 103.328L454.883 102.222L498.503 77.037C499.749 79.4821 500.524 82.2664 500.524 84.85V329.614C500.524 332.438 499.603 334.439 498.148 335.354L498.152 335.364L497.944 335.484L497.889 335.517L482.913 344.153L476.967 347.583L469.533 351.871L467.616 352.977L459.658 357.566L381.621 402.575Z" fill="url(#paint12_linear_351_3249)"/>
<path fill-rule="evenodd" clip-rule="evenodd" d="M381.852 144.345C380.54 141.753 378.69 139.541 376.64 138.357L274.354 79.304C273.339 78.7174 272.373 78.4405 271.496 78.4405C270.921 78.4405 270.383 78.5599 269.898 78.7918L386.382 11.5896C386.924 11.2885 387.533 11.131 388.192 11.131C389.066 11.131 390.028 11.4079 391.042 11.9928L493.326 71.0463C495.364 72.223 497.202 74.4189 498.512 76.9904L454.887 102.179L452.97 103.285L402.669 132.327L400.752 133.433L381.852 144.345Z" fill="url(#paint13_linear_351_3249)"/>
<path d="M376.659 402.446L274.374 343.392C270.397 341.096 267.172 334.936 267.172 329.632V84.8677C267.172 79.5639 270.397 77.1257 274.374 79.422L376.659 138.475C380.634 140.772 383.86 146.932 383.86 152.236V397C383.86 402.306 380.634 404.742 376.659 402.446Z" fill="#5593CE"/>
<path d="M378.859 137.457L276.577 78.404C274.276 77.0767 272.229 77.3397 270.91 78.8227C271.942 78.6583 273.125 78.9075 274.383 79.6343L376.669 138.688C380.643 140.984 383.869 147.146 383.869 152.448V397.212C383.869 399.447 383.293 401.163 382.332 402.243C384.554 401.89 386.062 399.607 386.062 395.982V151.218C386.062 145.916 382.838 139.754 378.859 137.457Z" fill="white"/>
<path d="M370.235 387.717L280.821 336.094C277.342 334.087 274.523 328.7 274.523 324.064V96.7464C274.523 92.1105 277.342 89.9803 280.821 91.9877L370.235 143.611C373.713 145.618 376.532 151.003 376.532 155.639V382.958C376.532 387.594 373.713 389.724 370.235 387.717Z" fill="#1F3E79"/>
<path d="M373.156 385.996L283.742 334.373C280.265 332.366 277.446 326.977 277.446 322.343V95.0254C277.446 93.4455 277.78 92.165 278.349 91.2322C276.1 91.2132 274.523 93.2777 274.523 96.7438V324.061C274.523 328.697 277.342 334.084 280.821 336.092L370.235 387.714C372.526 389.038 374.525 388.554 375.627 386.749C374.869 386.744 374.033 386.501 373.156 385.996Z" fill="#386DAB"/>
<path d="M370.204 283.296L336.97 264.109L283.965 294.71L376.501 348.136V295.326C376.501 290.69 373.682 285.303 370.204 283.296Z" fill="#1F3E79"/>
<path d="M370.204 236.655L336.97 217.467L283.965 248.069L376.501 301.495V248.685C376.501 244.047 373.682 238.662 370.204 236.655Z" fill="#1F3E79"/>
<path d="M370.204 190.521L336.97 171.333L283.965 201.935L376.501 255.359V202.551C376.501 197.913 373.682 192.528 370.204 190.521Z" fill="#1F3E79"/>
<path d="M370.204 143.881L336.97 124.692L283.965 155.295L376.501 208.72V155.911C376.501 151.274 373.682 145.888 370.204 143.881Z" fill="#1F3E79"/>
<path d="M370.204 143.851L296.628 101.371L283.965 108.683L376.501 162.107V155.881C376.501 151.243 373.682 145.858 370.204 143.851Z" fill="#1F3E79"/>
<path d="M376.501 161.895L283.965 108.469V137.911L376.501 191.335V161.895Z" fill="#5593CE"/>
<path d="M376.501 208.536L283.965 155.11V184.552L376.501 237.978V208.536Z" fill="#5593CE"/>
<path d="M376.501 255.177L283.965 201.751V231.195L376.501 284.619V255.177Z" fill="#5593CE"/>
<path d="M376.501 301.817L283.965 248.393V277.835L376.501 331.259V301.817Z" fill="#5593CE"/>
<path d="M376.501 348.46L283.965 295.034V324.476L376.501 377.9V348.46Z" fill="#5593CE"/>
<path d="M368.383 180.719L298.682 140.479C296.717 139.342 295.121 136.295 295.121 133.67V125.786C295.121 123.162 296.717 121.956 298.682 123.091L368.383 163.333C370.349 164.468 371.945 167.517 371.945 170.139V178.025C371.945 180.65 370.349 181.854 368.383 180.719Z" fill="#1F3E79"/>
<path d="M368.776 180.917C368.646 180.861 368.517 180.795 368.383 180.719L298.682 140.479C296.717 139.342 295.121 136.295 295.121 133.67C295.121 136.295 296.717 139.342 298.682 140.479L368.383 180.719C368.517 180.795 368.646 180.861 368.776 180.917ZM295.121 125.786C295.121 123.839 295.998 122.673 297.255 122.664C295.998 122.673 295.121 123.839 295.121 125.786ZM297.276 122.664C297.274 122.664 297.272 122.664 297.27 122.664C297.272 122.664 297.274 122.664 297.276 122.664Z" fill="#4068A4"/>
<path d="M369.785 181.143C369.47 181.143 369.131 181.071 368.776 180.917C368.646 180.861 368.517 180.795 368.383 180.719L298.682 140.479C296.717 139.342 295.121 136.295 295.121 133.67V125.786C295.121 123.839 295.998 122.673 297.255 122.664H297.276C297.706 122.666 298.182 122.803 298.682 123.092L298.772 123.144C298.696 123.486 298.643 123.857 298.643 124.275V132.161C298.643 134.784 300.238 137.832 302.206 138.969L371.815 179.157C371.533 180.416 370.778 181.143 369.785 181.143Z" fill="#233066"/>
<path d="M346.489 159.497L304.548 135.283C303.854 134.883 303.293 133.812 303.293 132.886C303.293 131.964 303.854 131.54 304.548 131.941L346.489 156.155C347.181 156.555 347.743 157.626 347.743 158.55C347.743 159.474 347.181 159.898 346.489 159.497Z" fill="white"/>
<path d="M368.383 227.36L298.682 187.12C296.717 185.981 295.121 182.936 295.121 180.311V172.425C295.121 169.803 296.717 168.597 298.682 169.732L368.383 209.974C370.349 211.109 371.945 214.158 371.945 216.78V224.666C371.945 227.291 370.349 228.495 368.383 227.36Z" fill="#1F3E79"/>
<path d="M368.684 227.532C368.679 227.528 368.676 227.526 368.671 227.525C368.676 227.526 368.679 227.528 368.684 227.532ZM368.662 227.521C368.57 227.476 368.477 227.428 368.383 227.374L298.682 187.134C296.717 185.996 295.121 182.95 295.121 180.325C295.121 182.95 296.717 185.996 298.682 187.134L368.383 227.374C368.477 227.428 368.57 227.476 368.662 227.521ZM295.121 172.344C295.138 171.193 295.469 170.326 296.002 169.821C295.469 170.326 295.138 171.193 295.121 172.344ZM296.005 169.819C296.007 169.816 296.011 169.814 296.012 169.812C296.011 169.814 296.007 169.816 296.005 169.819Z" fill="#4068A4"/>
<path d="M369.785 227.784C369.444 227.784 369.074 227.698 368.684 227.518C368.679 227.514 368.676 227.513 368.671 227.511C368.667 227.509 368.665 227.507 368.662 227.507C368.57 227.462 368.477 227.414 368.383 227.36L298.682 187.12C296.717 185.982 295.121 182.936 295.121 180.311V172.425C295.121 172.394 295.121 172.361 295.121 172.33C295.138 171.179 295.469 170.312 296.002 169.807C296.004 169.805 296.004 169.805 296.005 169.805C296.007 169.802 296.011 169.8 296.012 169.798C296.357 169.477 296.784 169.305 297.269 169.305C297.703 169.305 298.181 169.444 298.682 169.734L298.772 169.785C298.696 170.127 298.643 170.498 298.643 170.916V178.802C298.643 181.427 300.238 184.473 302.206 185.61L371.815 225.798C371.533 227.058 370.778 227.784 369.785 227.784Z" fill="#233066"/>
<path d="M346.489 205.631L304.548 181.417C303.854 181.017 303.293 179.946 303.293 179.022C303.293 178.098 303.854 177.674 304.548 178.075L346.489 202.29C347.181 202.689 347.743 203.76 347.743 204.683C347.743 205.609 347.181 206.032 346.489 205.631Z" fill="white"/>
<path d="M368.383 274.001L298.682 233.761C296.717 232.624 295.121 229.577 295.121 226.952V219.068C295.121 216.445 296.717 215.237 298.682 216.375L368.383 256.615C370.349 257.751 371.945 260.8 371.945 263.423V271.307C371.945 273.93 370.349 275.138 368.383 274.001Z" fill="#1F3E79"/>
<path d="M295.121 219.068C295.121 217.118 296.002 215.95 297.263 215.947C296.002 215.95 295.121 217.118 295.121 219.068ZM298.772 216.428L298.682 216.376L298.772 216.426V216.428ZM298.682 216.376C298.662 216.364 298.641 216.352 298.618 216.339C298.641 216.352 298.662 216.364 298.682 216.376ZM297.274 215.947C297.272 215.947 297.27 215.947 297.269 215.947C297.27 215.947 297.272 215.947 297.274 215.947Z" fill="#4068A4"/>
<path d="M369.785 274.426C369.356 274.426 368.882 274.289 368.383 274.002L298.682 233.762C296.717 232.625 295.121 229.577 295.121 226.952V219.068C295.121 217.118 296.002 215.95 297.263 215.947H297.274C297.687 215.948 298.142 216.075 298.618 216.339C298.641 216.352 298.662 216.364 298.682 216.376L298.772 216.428C298.696 216.772 298.643 217.139 298.643 217.558V225.443C298.643 228.068 300.238 231.114 302.206 232.253L371.815 272.439C371.533 273.699 370.778 274.426 369.785 274.426Z" fill="#233066"/>
<path d="M346.489 252.274L304.548 228.058C303.854 227.66 303.293 226.587 303.293 225.663C303.293 224.74 303.854 224.316 304.548 224.714L346.489 248.932C347.181 249.33 347.743 250.403 347.743 251.325C347.743 252.249 347.181 252.673 346.489 252.274Z" fill="#D4EBFA"/>
<path d="M368.383 321.149L298.682 280.909C296.717 279.771 295.121 276.725 295.121 274.1V266.214C295.121 263.593 296.717 262.386 298.682 263.522L368.383 303.763C370.349 304.899 371.945 307.948 371.945 310.569V318.455C371.945 321.078 370.349 322.284 368.383 321.149Z" fill="#1F3E79"/>
<path d="M368.707 321.317C368.703 321.316 368.7 321.314 368.697 321.312C368.7 321.314 368.703 321.316 368.707 321.317ZM368.686 321.307C368.586 321.26 368.485 321.208 368.383 321.15L298.682 280.91C296.717 279.771 295.121 276.725 295.121 274.1C295.121 276.725 296.717 279.771 298.682 280.91L368.383 321.15C368.485 321.208 368.586 321.26 368.686 321.307ZM295.121 266.215C295.121 264.27 295.998 263.103 297.255 263.095C295.998 263.103 295.121 264.27 295.121 266.215ZM297.276 263.095C297.274 263.095 297.272 263.095 297.27 263.095C297.272 263.095 297.274 263.095 297.276 263.095Z" fill="#4068A4"/>
<path d="M369.785 321.574C369.449 321.574 369.088 321.491 368.707 321.317L368.686 321.307C368.586 321.26 368.485 321.208 368.383 321.15L298.682 280.91C296.717 279.771 295.121 276.725 295.121 274.1V266.215C295.121 264.27 295.998 263.103 297.255 263.095H297.276C297.706 263.096 298.182 263.233 298.682 263.522L298.772 263.574C298.696 263.917 298.643 264.287 298.643 264.706V272.591C298.643 275.215 300.238 278.262 302.206 279.399L371.815 319.587C371.533 320.847 370.778 321.574 369.785 321.574Z" fill="#233066"/>
<path d="M346.489 299.421L304.548 275.207C303.854 274.807 303.293 273.736 303.293 272.81C303.293 271.888 303.854 271.464 304.548 271.864L346.489 296.08C347.181 296.479 347.743 297.55 347.743 298.473C347.743 299.399 347.181 299.823 346.489 299.421Z" fill="#ED3795"/>
<path d="M368.383 367.282L298.682 327.042C296.717 325.905 295.121 322.858 295.121 320.233V312.349C295.121 309.725 296.717 308.521 298.682 309.656L368.383 349.896C370.349 351.033 371.945 354.08 371.945 356.704V364.588C371.945 367.211 370.349 368.419 368.383 367.282Z" fill="#1F3E79"/>
<path d="M295.121 312.349C295.121 310.404 295.998 309.237 297.255 309.229C295.998 309.237 295.121 310.404 295.121 312.349ZM298.772 309.708L298.682 309.656L298.772 309.706V309.708ZM298.682 309.656C298.653 309.637 298.622 309.622 298.591 309.604C298.622 309.622 298.653 309.637 298.682 309.656ZM297.276 309.229C297.274 309.229 297.27 309.229 297.269 309.229C297.27 309.229 297.274 309.229 297.276 309.229Z" fill="#4068A4"/>
<path d="M369.785 367.706C369.356 367.706 368.882 367.569 368.383 367.282L298.682 327.042C296.717 325.905 295.121 322.858 295.121 320.233V312.349C295.121 310.404 295.998 309.237 297.255 309.229H297.276C297.68 309.23 298.125 309.352 298.591 309.604C298.622 309.622 298.653 309.637 298.682 309.656L298.772 309.708C298.696 310.052 298.643 310.419 298.643 310.84V318.724C298.643 321.349 300.238 324.394 302.206 325.531L371.815 365.719C371.533 366.977 370.778 367.706 369.785 367.706Z" fill="#233066"/>
<path d="M346.489 345.556L304.548 321.34C303.854 320.942 303.293 319.867 303.293 318.945C303.293 318.023 303.854 317.599 304.548 317.997L346.489 342.215C347.181 342.613 347.743 343.685 347.743 344.608C347.743 345.532 347.181 345.956 346.489 345.556Z" fill="#D4EBFA"/>
<path d="M291.252 142.12L283.965 137.911L291.252 142.118V142.12ZM291.252 112.678L283.965 108.469L291.252 112.678V112.676V112.678Z" fill="#1F3E79"/>
<path d="M291.252 112.678L283.965 108.469L291.252 112.676" fill="#1F3E79"/>
<path d="M291.252 142.118L283.965 137.911V108.469L291.252 112.678V142.12" fill="#3668A5"/>
<path d="M291.252 188.723L283.965 184.514L291.252 188.721V188.723Z" fill="#1F3E79"/>
<path d="M291.252 188.759L283.965 184.552V155.11L291.252 159.319V188.761" fill="#3668A5"/>
<path d="M291.252 235.402L283.965 231.195V201.751L291.252 205.96V235.402Z" fill="#3668A5"/>
<path d="M291.252 252.599L283.965 248.393L291.252 252.599Z" fill="#1F3E79"/>
<path d="M291.252 282.041L283.965 277.835V248.393L291.252 252.599V282.041Z" fill="#3668A5"/>
<path d="M291.252 328.646L283.965 324.438L291.252 328.645V328.646Z" fill="#1F3E79"/>
<path d="M291.252 299.242L283.965 295.034L291.252 299.24V299.242Z" fill="#1F3E79"/>
<path d="M291.252 328.682L283.965 324.476V295.034L291.252 299.242V328.684" fill="#3668A5"/>
<path d="M354.724 162.429C354.724 163.37 354.065 163.753 353.25 163.28C352.433 162.812 351.773 161.668 351.773 160.726C351.773 159.787 352.433 159.404 353.25 159.873C354.065 160.346 354.724 161.489 354.724 162.429Z" fill="#D4EBFA"/>
<path d="M360.997 165.978C360.997 166.919 360.336 167.302 359.521 166.829C358.706 166.36 358.047 165.216 358.047 164.275C358.047 163.335 358.706 162.953 359.521 163.422C360.336 163.894 360.997 165.038 360.997 165.978Z" fill="#ED3795"/>
<path d="M367.271 169.527C367.271 170.468 366.61 170.851 365.795 170.378C364.981 169.909 364.32 168.764 364.32 167.822C364.32 166.884 364.981 166.502 365.795 166.971C366.61 167.443 367.271 168.587 367.271 169.527Z" fill="#D4EBFA"/>
<path d="M354.724 208.564C354.724 209.503 354.065 209.886 353.25 209.417C352.433 208.945 351.773 207.801 351.773 206.861C351.773 205.92 352.433 205.537 353.25 206.01C354.065 206.479 354.724 207.622 354.724 208.564Z" fill="#ED3795"/>
<path d="M360.997 212.62C360.997 213.559 360.336 213.942 359.521 213.471C358.706 213 358.047 211.856 358.047 210.917C358.047 209.975 358.706 209.593 359.521 210.065C360.336 210.534 360.997 211.678 360.997 212.62Z" fill="#D4EBFA"/>
<path d="M367.271 216.169C367.271 217.109 366.61 217.491 365.795 217.02C364.981 216.55 364.32 215.406 364.32 214.465C364.32 213.525 364.981 213.142 365.795 213.613C366.61 214.084 367.271 215.228 367.271 216.169Z" fill="white"/>
<path d="M354.724 255.712C354.724 256.653 354.065 257.032 353.25 256.563C352.433 256.093 351.773 254.949 351.773 254.008C351.773 253.066 352.433 252.687 353.25 253.156C354.065 253.627 354.724 254.771 354.724 255.712Z" fill="white"/>
<path d="M360.997 259.261C360.997 260.202 360.336 260.581 359.521 260.112C358.706 259.642 358.047 258.498 358.047 257.556C358.047 256.615 358.706 256.236 359.521 256.705C360.336 257.176 360.997 258.319 360.997 259.261Z" fill="#ED3795"/>
<path d="M367.271 262.81C367.271 263.751 366.61 264.13 365.795 263.661C364.981 263.19 364.32 262.046 364.32 261.105C364.32 260.164 364.981 259.785 365.795 260.254C366.61 260.723 367.271 261.868 367.271 262.81Z" fill="white"/>
<path d="M354.724 301.846C354.724 302.788 354.065 303.168 353.25 302.698C352.433 302.227 351.773 301.083 351.773 300.142C351.773 299.2 352.433 298.821 353.25 299.29C354.065 299.761 354.724 300.905 354.724 301.846Z" fill="white"/>
<path d="M360.997 305.396C360.997 306.335 360.336 306.718 359.521 306.247C358.706 305.777 358.047 304.633 358.047 303.691C358.047 302.75 358.706 302.369 359.521 302.84C360.336 303.309 360.997 304.454 360.997 305.396Z" fill="#D4EBFA"/>
<path d="M367.271 308.943C367.271 309.884 366.61 310.265 365.795 309.796C364.981 309.325 364.32 308.182 364.32 307.24C364.32 306.299 364.981 305.918 365.795 306.389C366.61 306.858 367.271 308.003 367.271 308.943Z" fill="#D4EBFA"/>
<path d="M354.724 348.994C354.724 349.935 354.065 350.316 353.25 349.845C352.433 349.375 351.773 348.231 351.773 347.29C351.773 346.35 352.433 345.969 353.25 346.438C354.065 346.911 354.724 348.054 354.724 348.994Z" fill="white"/>
<path d="M360.997 352.543C360.997 353.484 360.336 353.865 359.521 353.394C358.706 352.924 358.047 351.78 358.047 350.838C358.047 349.899 358.706 349.518 359.521 349.987C360.336 350.459 360.997 351.603 360.997 352.543Z" fill="#ED3795"/>
<path d="M367.271 356.092C367.271 357.033 366.61 357.414 365.795 356.943C364.981 356.473 364.32 355.329 364.32 354.387C364.32 353.446 364.981 353.067 365.795 353.536C366.61 354.008 367.271 355.152 367.271 356.092Z" fill="#D4EBFA"/>
<path d="M400.964 162.032V366.466L485.048 317.92V113.486L400.964 162.032ZM399.238 369.456V161.035L399.669 160.788L486.773 110.497V318.918L486.342 319.164L399.238 369.456Z" fill="#1F3E79"/>
<path d="M464.148 204.198L425.092 226.747C422.467 228.262 420.34 226.654 420.34 223.157V201.5C420.34 198.003 422.467 193.94 425.092 192.424L464.148 169.876C466.77 168.36 468.898 169.968 468.898 173.467V195.12C468.898 198.619 466.77 202.684 464.148 204.198Z" fill="#1F3E79"/>
<path d="M465.124 169.454C465.348 170.061 465.477 170.786 465.477 171.625V193.282C465.477 196.779 463.349 200.844 460.727 202.358L421.669 224.908C421.346 225.095 421.027 225.233 420.723 225.328C421.427 227.239 423.128 227.898 425.121 226.747L464.178 204.198C466.799 202.683 468.928 198.619 468.928 195.12V173.466C468.928 170.4 467.294 168.789 465.124 169.454Z" fill="#5593CE"/>
<path d="M457.011 191.283C457.733 190.866 458.32 191.205 458.32 192.04V196.973C458.32 197.805 457.733 198.819 457.011 199.235C456.29 199.652 455.703 199.314 455.703 198.482V193.549C455.703 192.716 456.29 191.702 457.011 191.283Z" fill="white"/>
<path d="M451.432 195.34C452.153 194.922 452.738 195.26 452.738 196.096V200.411C452.738 201.244 452.153 202.258 451.432 202.675C450.71 203.092 450.125 202.755 450.125 201.92V197.605C450.125 196.771 450.71 195.757 451.432 195.34Z" fill="#D4EBFA"/>
<path d="M445.853 193.311C446.577 192.895 447.162 193.233 447.162 194.067V203.198C447.162 204.031 446.577 205.045 445.853 205.462C445.132 205.881 444.547 205.541 444.547 204.707V195.576C444.547 194.742 445.132 193.728 445.853 193.311Z" fill="#ED3795"/>
<path d="M440.214 191.284C440.936 190.867 441.521 191.204 441.521 192.038V206.432C441.521 207.266 440.936 208.278 440.214 208.697C439.491 209.114 438.906 208.775 438.906 207.941V193.549C438.906 192.713 439.491 191.699 440.214 191.284Z" fill="#D4EBFA"/>
<path d="M434.639 196.353C435.362 195.936 435.945 196.274 435.945 197.11V209.993C435.945 210.829 435.362 211.841 434.639 212.258C433.917 212.675 433.332 212.338 433.332 211.503V198.619C433.332 197.784 433.917 196.772 434.639 196.353Z" fill="#D4EBFA"/>
<path d="M429 205.479C429.721 205.062 430.306 205.399 430.306 206.233V213.23C430.306 214.065 429.721 215.079 429 215.495C428.276 215.912 427.691 215.574 427.691 214.74V207.742C427.691 206.908 428.276 205.896 429 205.479Z" fill="white"/>
<path d="M455.766 188.943C455.766 189.765 456.342 190.096 457.051 189.688C457.761 189.276 458.337 188.279 458.337 187.46C458.337 186.64 457.761 186.308 457.051 186.718C456.342 187.126 455.766 188.123 455.766 188.943Z" fill="#ED3795"/>
<path d="M455.766 183.875C455.766 184.696 456.342 185.026 457.051 184.618C457.761 184.208 458.337 183.211 458.337 182.391C458.337 181.57 457.761 181.238 457.051 181.648C456.342 182.06 455.766 183.055 455.766 183.875Z" fill="white"/>
<path d="M605.69 72.4742H599.746V187.781H605.69V72.4742Z" fill="#ECE0CF"/>
<path opacity="0.3" d="M377.215 555.088L317.494 520.607C313.829 518.49 314.289 514.792 318.52 512.349L376.186 479.057C380.418 476.613 386.821 476.349 390.486 478.463L450.207 512.944C453.874 515.061 453.414 518.757 449.181 521.2L391.516 554.494C387.283 556.938 380.88 557.202 377.215 555.088Z" fill="#0030AD"/>
<path d="M378.879 533.253C381.517 534.772 386.609 534.495 389.788 532.659L447.454 499.365C448.904 498.529 449.252 497.771 449.26 497.63C449.24 497.59 449.046 497.311 448.484 496.984L388.759 462.503C386.128 460.984 381.032 461.261 377.852 463.097L320.186 496.389C318.736 497.226 318.39 497.983 318.381 498.124C318.402 498.168 318.596 498.446 319.16 498.772L378.881 533.253H378.879ZM383.427 541.026C380.508 541.026 377.692 540.399 375.489 539.128H375.488L315.768 504.647C313.117 503.117 311.598 500.739 311.598 498.123C311.598 495.195 313.491 492.421 316.793 490.516L374.46 457.223C379.795 454.14 387.399 453.884 392.15 456.63L451.875 491.111C454.525 492.639 456.044 495.017 456.044 497.631C456.044 500.559 454.149 503.333 450.846 505.24L393.182 538.534C390.319 540.187 386.803 541.026 383.427 541.026Z" fill="#ECE0CF"/>
<path d="M452.653 476.377V455.772L406.447 455.745L390.476 446.525C386.811 444.409 380.408 444.675 376.176 447.118L361.277 455.722L315.028 455.695V476.887C314.925 478.32 315.724 479.703 317.484 480.719L377.205 515.2C380.871 517.314 387.273 517.05 391.506 514.606L449.172 481.314C451.613 479.904 452.792 478.078 452.653 476.377Z" fill="url(#paint14_linear_351_3249)"/>
<path fill-rule="evenodd" clip-rule="evenodd" d="M383.842 445.097C381.159 445.162 378.377 445.837 376.176 447.107L361.277 455.711L315.028 455.683V476.876C314.925 478.309 315.724 479.692 317.484 480.708L377.205 515.189C378.965 516.206 381.36 516.666 383.842 516.606V445.097Z" fill="url(#paint15_linear_351_3249)"/>
<path d="M320.263 455.746L315.028 455.743V476.936C314.925 478.369 315.724 479.751 317.484 480.767L320.263 482.371V455.746Z" fill="#D4EBFA"/>
<path d="M378.137 515.931C381.297 517.286 385.87 517.21 389.568 515.8V491.738H378.137V515.931Z" fill="url(#paint16_linear_351_3249)"/>
<path fill-rule="evenodd" clip-rule="evenodd" d="M377.215 494.25L317.494 459.77C313.829 457.654 314.289 453.956 318.52 451.513L376.186 418.22C380.418 415.777 386.821 415.512 390.486 417.627L450.207 452.108C453.874 454.224 453.414 457.919 449.181 460.364L391.516 493.658C387.283 496.101 380.88 496.366 377.215 494.25Z" fill="url(#paint17_linear_351_3249)"/>
<path d="M449.182 456.293L391.516 489.586C387.283 492.029 380.881 492.294 377.216 490.179L317.494 455.698C316.676 455.227 316.077 454.674 315.665 454.077C314.405 456.101 314.976 458.301 317.494 459.754L377.216 494.234C380.881 496.35 387.283 496.085 391.516 493.642L449.182 460.348C452.47 458.449 453.468 455.797 452.037 453.715C451.462 454.639 450.507 455.527 449.182 456.293Z" fill="white"/>
<path d="M430.68 481.799C430.68 483.338 429.6 485.208 428.269 485.978C426.935 486.747 425.855 486.124 425.855 484.585C425.855 483.045 426.935 481.176 428.269 480.406C429.6 479.638 430.68 480.261 430.68 481.799Z" fill="#D4EBFA"/>
<path d="M438.473 477.237C438.473 478.775 437.393 480.646 436.061 481.414C434.728 482.182 433.648 481.559 433.648 480.021C433.648 478.484 434.728 476.612 436.061 475.844C437.393 475.075 438.473 475.698 438.473 477.237Z" fill="#D4EBFA"/>
<path d="M446.203 472.674C446.203 474.214 445.124 476.085 443.791 476.853C442.459 477.621 441.379 476.998 441.379 475.46C441.379 473.922 442.459 472.053 443.791 471.281C445.124 470.513 446.203 471.136 446.203 472.674Z" fill="#D4EBFA"/>
<path d="M380.754 473.003L352.805 456.869C351.091 455.879 351.307 454.148 353.288 453.003L380.273 437.424C382.253 436.28 385.25 436.157 386.965 437.147L414.91 453.283C416.625 454.273 416.41 456.002 414.43 457.146L387.446 472.725C385.466 473.869 382.469 473.992 380.754 473.003Z" fill="url(#paint18_linear_351_3249)"/>
<path d="M383.429 459.274L379.562 457.042C379.327 456.905 379.354 456.667 379.628 456.509L383.364 454.353C383.637 454.196 384.051 454.177 384.288 454.315L388.155 456.547C388.392 456.684 388.361 456.923 388.088 457.082L384.355 459.236C384.082 459.396 383.665 459.413 383.429 459.274Z" fill="#D4EBFA"/>
<path d="M352.805 456.869L352.885 456.914L353.288 456.637L380.273 441.058C382.253 439.914 385.25 439.791 386.965 440.781L414.83 456.87C416.412 455.737 416.495 454.197 414.91 453.283L386.965 437.147C385.25 436.157 382.253 436.28 380.273 437.424L353.288 453.003C351.307 454.148 351.091 455.879 352.805 456.869Z" fill="#386DAB"/>
<path opacity="0.3" d="M596.097 402.997L536.377 368.516C532.712 366.4 533.17 362.703 537.405 360.26L595.069 326.966C599.3 324.523 605.704 324.258 609.367 326.372L669.091 360.854C672.756 362.97 672.297 366.666 668.063 369.111L610.399 402.404C606.166 404.847 599.763 405.112 596.097 402.997Z" fill="#0030AD"/>
<path d="M597.761 381.163C600.398 382.679 605.492 382.402 608.675 380.568L666.337 347.276C667.787 346.438 668.135 345.682 668.143 345.54C668.123 345.498 667.929 345.22 667.366 344.893L607.643 310.412C605.011 308.894 599.915 309.171 596.736 311.005L539.07 344.299C537.62 345.137 537.273 345.893 537.264 346.035C537.285 346.076 537.478 346.355 538.041 346.68L597.764 381.163H597.761ZM602.31 388.934C599.387 388.934 596.573 388.308 594.372 387.036H594.371L534.649 352.555C532 351.025 530.48 348.648 530.48 346.033C530.48 343.105 532.375 340.331 535.679 338.426L593.343 305.132C598.679 302.048 606.287 301.794 611.035 304.539L670.758 339.02C673.407 340.548 674.927 342.925 674.927 345.542C674.927 348.47 673.032 351.243 669.728 353.15L612.066 386.443C609.202 388.095 605.686 388.934 602.31 388.934Z" fill="#ECE0CF"/>
<path d="M671.536 324.287V303.681L625.331 303.655L609.358 294.433C605.694 292.319 599.29 292.583 595.059 295.027L580.158 303.631L533.912 303.605V324.796C533.806 326.229 534.605 327.611 536.367 328.627L596.087 363.108C599.754 365.223 606.156 364.958 610.389 362.515L668.053 329.222C670.496 327.812 671.673 325.988 671.536 324.287Z" fill="url(#paint19_linear_351_3249)"/>
<path fill-rule="evenodd" clip-rule="evenodd" d="M602.725 293.006C600.043 293.071 597.258 293.748 595.059 295.017L580.158 303.62L533.912 303.594V324.786C533.806 326.218 534.605 327.601 536.367 328.617L596.087 363.098C597.848 364.115 600.245 364.576 602.725 364.515V293.006Z" fill="url(#paint20_linear_351_3249)"/>
<path d="M539.144 303.654L533.912 303.652V324.843C533.806 326.276 534.605 327.659 536.367 328.674L539.144 330.28V303.654Z" fill="#D4EBFA"/>
<path d="M597.02 363.332C600.179 364.687 604.753 364.612 608.449 363.202V339.14H597.02V363.332Z" fill="url(#paint21_linear_351_3249)"/>
<path fill-rule="evenodd" clip-rule="evenodd" d="M596.097 342.161L536.377 307.68C532.712 305.563 533.17 301.865 537.405 299.422L595.069 266.13C599.3 263.686 605.704 263.422 609.367 265.536L669.091 300.017C672.756 302.134 672.297 305.83 668.063 308.275L610.399 341.567C606.166 344.01 599.763 344.275 596.097 342.161Z" fill="url(#paint22_linear_351_3249)"/>
<path d="M668.062 304.203L610.398 337.495C606.165 339.938 599.762 340.203 596.095 338.088L536.376 303.607C535.559 303.137 534.957 302.583 534.547 301.986C533.289 304.01 533.86 306.21 536.376 307.663L596.095 342.144C599.762 344.259 606.165 343.994 610.398 341.551L668.062 308.259C671.353 306.359 672.351 303.706 670.919 301.624C670.344 302.548 669.389 303.436 668.062 304.203Z" fill="white"/>
<path d="M649.561 329.709C649.561 331.245 648.481 333.116 647.149 333.886C645.818 334.654 644.738 334.031 644.738 332.493C644.738 330.955 645.818 329.084 647.149 328.316C648.481 327.547 649.561 328.17 649.561 329.709Z" fill="#D4EBFA"/>
<path d="M657.293 325.146C657.293 326.686 656.213 328.555 654.883 329.325C653.549 330.093 652.469 329.47 652.469 327.93C652.469 326.394 653.549 324.523 654.883 323.753C656.213 322.985 657.293 323.608 657.293 325.146Z" fill="#D4EBFA"/>
<path d="M665.086 320.584C665.086 322.122 664.006 323.993 662.674 324.761C661.342 325.529 660.262 324.906 660.262 323.368C660.262 321.831 661.342 319.961 662.674 319.191C664.006 318.422 665.086 319.043 665.086 320.584Z" fill="#D4EBFA"/>
<path d="M599.572 320.405L571.627 304.27C569.912 303.28 570.126 301.55 572.106 300.406L599.091 284.827C601.072 283.683 604.066 283.558 605.782 284.548L633.731 300.685C635.446 301.675 635.23 303.405 633.248 304.547L606.265 320.128C604.282 321.27 601.288 321.395 599.572 320.405Z" fill="url(#paint23_linear_351_3249)"/>
<path d="M602.248 307.183L598.382 304.95C598.145 304.814 598.176 304.577 598.45 304.417L602.182 302.263C602.457 302.104 602.871 302.087 603.106 302.223L606.976 304.456C607.213 304.592 607.183 304.833 606.91 304.99L603.174 307.146C602.899 307.304 602.485 307.321 602.248 307.183Z" fill="#D4EBFA"/>
<path d="M571.627 304.27L571.705 304.315L572.106 304.04L599.091 288.459C601.072 287.317 604.066 287.192 605.782 288.182L633.651 304.272C635.231 303.14 635.314 301.6 633.731 300.685L605.782 284.548C604.066 283.558 601.072 283.683 599.091 284.827L572.106 300.406C570.126 301.55 569.912 303.28 571.627 304.27Z" fill="url(#paint24_linear_351_3249)"/>
<path opacity="0.3" d="M158.392 402.997L98.6693 368.516C95.0042 366.4 95.4645 362.703 99.6972 360.26L157.363 326.966C161.596 324.523 167.998 324.258 171.663 326.372L231.385 360.854C235.05 362.97 234.59 366.666 230.359 369.111L172.693 402.404C168.459 404.847 162.058 405.112 158.392 402.997Z" fill="#0030AD"/>
<path d="M160.057 381.163C162.689 382.679 167.782 382.402 170.966 380.568L228.63 347.276C230.08 346.44 230.428 345.682 230.435 345.54C230.416 345.498 230.22 345.22 229.658 344.893L169.936 310.412C167.304 308.894 162.208 309.171 159.029 311.005L101.363 344.299C99.9133 345.137 99.5655 345.893 99.5568 346.035C99.5759 346.076 99.7714 346.355 100.334 346.68L160.059 381.163H160.057ZM164.603 388.934C161.684 388.934 158.868 388.308 156.667 387.036H156.665L96.9421 352.555C94.2928 351.025 92.7734 348.648 92.7734 346.033C92.7734 343.105 94.6666 340.331 97.9717 338.426L155.636 305.132C160.974 302.048 168.578 301.794 173.328 304.539L233.049 339.02C235.699 340.548 237.218 342.925 237.22 345.542C237.22 348.47 235.327 351.243 232.023 353.15L174.357 386.443C171.495 388.095 167.981 388.934 164.603 388.934Z" fill="#ECE0CF"/>
<path d="M233.83 324.287V303.681L187.626 303.655L171.654 294.433C167.988 292.319 161.586 292.583 157.353 295.027L142.452 303.631L96.204 303.605V324.796C96.1019 326.229 96.8996 327.611 98.6595 328.627L158.383 363.108C162.048 365.223 168.449 364.958 172.683 362.515L230.349 329.222C232.789 327.812 233.967 325.988 233.83 324.287Z" fill="url(#paint25_linear_351_3249)"/>
<path fill-rule="evenodd" clip-rule="evenodd" d="M165.019 293.006C162.337 293.071 159.552 293.748 157.353 295.017L142.452 303.62L96.204 303.594V324.786C96.1019 326.218 96.8996 327.601 98.6595 328.617L158.383 363.098C160.143 364.115 162.538 364.576 165.019 364.515V293.006Z" fill="url(#paint26_linear_351_3249)"/>
<path d="M101.44 303.654L96.204 303.652V324.843C96.1019 326.276 96.8996 327.659 98.6595 328.674L101.44 330.28V303.654Z" fill="#D4EBFA"/>
<path d="M159.25 363.332C162.413 364.687 166.987 364.612 170.683 363.202V339.14H159.25V363.332Z" fill="url(#paint27_linear_351_3249)"/>
<path fill-rule="evenodd" clip-rule="evenodd" d="M158.392 342.161L98.6693 307.68C95.0042 305.563 95.4645 301.865 99.6972 299.422L157.363 266.13C161.596 263.686 167.998 263.422 171.663 265.536L231.385 300.017C235.05 302.134 234.59 305.83 230.359 308.275L172.693 341.567C168.459 344.01 162.058 344.275 158.392 342.161Z" fill="url(#paint28_linear_351_3249)"/>
<path d="M230.358 304.203L172.692 337.495C168.457 339.938 162.057 340.203 158.391 338.088L98.6682 303.607C97.8532 303.137 97.251 302.583 96.8409 301.986C95.5811 304.01 96.1521 306.21 98.6682 307.663L158.391 342.144C162.057 344.259 168.457 343.994 172.692 341.551L230.358 308.259C233.645 306.359 234.646 303.706 233.211 301.624C232.638 302.548 231.683 303.436 230.358 304.203Z" fill="white"/>
<path d="M211.856 329.709C211.856 331.245 210.776 333.116 209.444 333.886C208.111 334.654 207.031 334.031 207.031 332.493C207.031 330.955 208.111 329.084 209.444 328.316C210.776 327.547 211.856 328.17 211.856 329.709Z" fill="#D4EBFA"/>
<path d="M219.59 325.146C219.59 326.686 218.51 328.555 217.178 329.325C215.847 330.093 214.766 329.47 214.766 327.93C214.766 326.394 215.847 324.523 217.178 323.753C218.51 322.985 219.59 323.608 219.59 325.146Z" fill="#D4EBFA"/>
<path d="M227.383 320.584C227.383 322.122 226.303 323.993 224.971 324.761C223.638 325.529 222.559 324.906 222.559 323.368C222.559 321.831 223.638 319.961 224.971 319.191C226.303 318.422 227.383 319.043 227.383 320.584Z" fill="#D4EBFA"/>
<path d="M161.865 320.405L133.92 304.27C132.204 303.28 132.42 301.55 134.4 300.406L161.384 284.827C163.364 283.683 166.361 283.558 168.076 284.548L196.023 300.685C197.74 301.675 197.525 303.405 195.544 304.547L168.557 320.128C166.578 321.27 163.58 321.395 161.865 320.405Z" fill="url(#paint29_linear_351_3249)"/>
<path d="M164.547 307.183L160.681 304.95C160.442 304.814 160.472 304.577 160.747 304.417L164.479 302.263C164.753 302.104 165.168 302.087 165.405 302.223L169.271 304.456C169.51 304.592 169.48 304.833 169.205 304.99L165.471 307.146C165.197 307.304 164.784 307.321 164.547 307.183Z" fill="#D4EBFA"/>
<path d="M133.92 304.27L134 304.315L134.4 304.04L161.384 288.459C163.364 287.317 166.361 287.192 168.076 288.182L195.943 304.272C197.527 303.14 197.608 301.6 196.023 300.685L168.076 284.548C166.361 283.558 163.364 283.683 161.384 284.827L134.4 300.406C132.42 301.55 132.204 303.28 133.92 304.27Z" fill="#386DAB"/>
<defs>
<linearGradient id="paint0_linear_351_3249" x1="206.387" y1="464.618" x2="160.169" y2="464.618" gradientUnits="userSpaceOnUse">
<stop stop-color="#008EFF"/>
<stop offset="0.753096" stop-color="#88CCFF"/>
<stop offset="1" stop-color="#BEE0FF"/>
</linearGradient>
<linearGradient id="paint1_linear_351_3249" x1="238.665" y1="430.566" x2="120.453" y2="430.566" gradientUnits="userSpaceOnUse">
<stop stop-color="#008EFF"/>
<stop offset="0.320247" stop-color="#88CCFF"/>
<stop offset="1" stop-color="#BEE0FF"/>
</linearGradient>
<linearGradient id="paint2_linear_351_3249" x1="167.286" y1="464.618" x2="121.067" y2="464.618" gradientUnits="userSpaceOnUse">
<stop stop-color="#008EFF"/>
<stop offset="0.753096" stop-color="#88CCFF"/>
<stop offset="1" stop-color="#BEE0FF"/>
</linearGradient>
<linearGradient id="paint3_linear_351_3249" x1="644.091" y1="221.274" x2="597.872" y2="221.274" gradientUnits="userSpaceOnUse">
<stop stop-color="#008EFF"/>
<stop offset="0.753096" stop-color="#88CCFF"/>
<stop offset="1" stop-color="#BEE0FF"/>
</linearGradient>
<linearGradient id="paint4_linear_351_3249" x1="676.372" y1="187.222" x2="558.16" y2="187.222" gradientUnits="userSpaceOnUse">
<stop stop-color="#008EFF"/>
<stop offset="0.320247" stop-color="#88CCFF"/>
<stop offset="1" stop-color="#BEE0FF"/>
</linearGradient>
<linearGradient id="paint5_linear_351_3249" x1="604.991" y1="221.274" x2="558.774" y2="221.274" gradientUnits="userSpaceOnUse">
<stop stop-color="#008EFF"/>
<stop offset="0.753096" stop-color="#88CCFF"/>
<stop offset="1" stop-color="#BEE0FF"/>
</linearGradient>
<linearGradient id="paint6_linear_351_3249" x1="644.091" y1="464.618" x2="597.872" y2="464.618" gradientUnits="userSpaceOnUse">
<stop stop-color="#008EFF"/>
<stop offset="0.753096" stop-color="#88CCFF"/>
<stop offset="1" stop-color="#BEE0FF"/>
</linearGradient>
<linearGradient id="paint7_linear_351_3249" x1="676.37" y1="430.566" x2="558.161" y2="430.566" gradientUnits="userSpaceOnUse">
<stop stop-color="#008EFF"/>
<stop offset="0.320247" stop-color="#88CCFF"/>
<stop offset="1" stop-color="#BEE0FF"/>
</linearGradient>
<linearGradient id="paint8_linear_351_3249" x1="604.991" y1="464.618" x2="558.774" y2="464.618" gradientUnits="userSpaceOnUse">
<stop stop-color="#008EFF"/>
<stop offset="0.753096" stop-color="#88CCFF"/>
<stop offset="1" stop-color="#BEE0FF"/>
</linearGradient>
<linearGradient id="paint9_linear_351_3249" x1="206.387" y1="221.274" x2="160.169" y2="221.274" gradientUnits="userSpaceOnUse">
<stop stop-color="#008EFF"/>
<stop offset="0.753096" stop-color="#88CCFF"/>
<stop offset="1" stop-color="#BEE0FF"/>
</linearGradient>
<linearGradient id="paint10_linear_351_3249" x1="238.665" y1="187.222" x2="120.453" y2="187.222" gradientUnits="userSpaceOnUse">
<stop stop-color="#008EFF"/>
<stop offset="0.320247" stop-color="#88CCFF"/>
<stop offset="1" stop-color="#BEE0FF"/>
</linearGradient>
<linearGradient id="paint11_linear_351_3249" x1="167.286" y1="221.274" x2="121.067" y2="221.274" gradientUnits="userSpaceOnUse">
<stop stop-color="#008EFF"/>
<stop offset="0.753096" stop-color="#88CCFF"/>
<stop offset="1" stop-color="#BEE0FF"/>
</linearGradient>
<linearGradient id="paint12_linear_351_3249" x1="507.45" y1="239.152" x2="366.866" y2="239.152" gradientUnits="userSpaceOnUse">
<stop stop-color="#008EFF"/>
<stop offset="0.753096" stop-color="#88CCFF"/>
<stop offset="1" stop-color="#BEE0FF"/>
</linearGradient>
<linearGradient id="paint13_linear_351_3249" x1="599.593" y1="77.4719" x2="253.919" y2="77.4719" gradientUnits="userSpaceOnUse">
<stop stop-color="#008EFF"/>
<stop offset="0.320247" stop-color="#88CCFF"/>
<stop offset="1" stop-color="#BEE0FF"/>
</linearGradient>
<linearGradient id="paint14_linear_351_3249" x1="460.682" y1="480.718" x2="297.939" y2="480.718" gradientUnits="userSpaceOnUse">
<stop stop-color="#008EFF"/>
<stop offset="0.753096" stop-color="#88CCFF"/>
<stop offset="1" stop-color="#BEE0FF"/>
</linearGradient>
<linearGradient id="paint15_linear_351_3249" x1="387.851" y1="480.71" x2="306.479" y2="480.71" gradientUnits="userSpaceOnUse">
<stop stop-color="#008EFF"/>
<stop offset="0.753096" stop-color="#88CCFF"/>
<stop offset="1" stop-color="#BEE0FF"/>
</linearGradient>
<linearGradient id="paint16_linear_351_3249" x1="390.234" y1="504.27" x2="376.718" y2="504.27" gradientUnits="userSpaceOnUse">
<stop stop-color="#008EFF"/>
<stop offset="0.753096" stop-color="#88CCFF"/>
<stop offset="1" stop-color="#BEE0FF"/>
</linearGradient>
<linearGradient id="paint17_linear_351_3249" x1="513.55" y1="455.78" x2="305.397" y2="455.78" gradientUnits="userSpaceOnUse">
<stop stop-color="#008EFF"/>
<stop offset="0.320247" stop-color="#88CCFF"/>
<stop offset="1" stop-color="#BEE0FF"/>
</linearGradient>
<linearGradient id="paint18_linear_351_3249" x1="376.552" y1="470.123" x2="356.61" y2="420.927" gradientUnits="userSpaceOnUse">
<stop stop-color="#418CFF"/>
<stop offset="1" stop-color="#0646BD"/>
</linearGradient>
<linearGradient id="paint19_linear_351_3249" x1="679.565" y1="328.627" x2="516.821" y2="328.627" gradientUnits="userSpaceOnUse">
<stop stop-color="#008EFF"/>
<stop offset="0.753096" stop-color="#88CCFF"/>
<stop offset="1" stop-color="#BEE0FF"/>
</linearGradient>
<linearGradient id="paint20_linear_351_3249" x1="606.734" y1="328.619" x2="525.362" y2="328.619" gradientUnits="userSpaceOnUse">
<stop stop-color="#008EFF"/>
<stop offset="0.753096" stop-color="#88CCFF"/>
<stop offset="1" stop-color="#BEE0FF"/>
</linearGradient>
<linearGradient id="paint21_linear_351_3249" x1="609.115" y1="351.672" x2="595.601" y2="351.672" gradientUnits="userSpaceOnUse">
<stop stop-color="#008EFF"/>
<stop offset="0.753096" stop-color="#88CCFF"/>
<stop offset="1" stop-color="#BEE0FF"/>
</linearGradient>
<linearGradient id="paint22_linear_351_3249" x1="732.432" y1="303.69" x2="524.28" y2="303.69" gradientUnits="userSpaceOnUse">
<stop stop-color="#008EFF"/>
<stop offset="0.320247" stop-color="#88CCFF"/>
<stop offset="1" stop-color="#BEE0FF"/>
</linearGradient>
<linearGradient id="paint23_linear_351_3249" x1="595.373" y1="317.525" x2="575.43" y2="268.329" gradientUnits="userSpaceOnUse">
<stop stop-color="#418CFF"/>
<stop offset="1" stop-color="#0646BD"/>
</linearGradient>
<linearGradient id="paint24_linear_351_3249" x1="595.369" y1="302.366" x2="588.69" y2="272.382" gradientUnits="userSpaceOnUse">
<stop stop-color="#418CFF"/>
<stop offset="1" stop-color="#0646BD"/>
</linearGradient>
<linearGradient id="paint25_linear_351_3249" x1="241.859" y1="328.627" x2="79.1142" y2="328.627" gradientUnits="userSpaceOnUse">
<stop stop-color="#008EFF"/>
<stop offset="0.753096" stop-color="#88CCFF"/>
<stop offset="1" stop-color="#BEE0FF"/>
</linearGradient>
<linearGradient id="paint26_linear_351_3249" x1="169.028" y1="328.619" x2="87.6547" y2="328.619" gradientUnits="userSpaceOnUse">
<stop stop-color="#008EFF"/>
<stop offset="0.753096" stop-color="#88CCFF"/>
<stop offset="1" stop-color="#BEE0FF"/>
</linearGradient>
<linearGradient id="paint27_linear_351_3249" x1="171.349" y1="351.672" x2="157.831" y2="351.672" gradientUnits="userSpaceOnUse">
<stop stop-color="#008EFF"/>
<stop offset="0.753096" stop-color="#88CCFF"/>
<stop offset="1" stop-color="#BEE0FF"/>
</linearGradient>
<linearGradient id="paint28_linear_351_3249" x1="294.726" y1="303.69" x2="86.573" y2="303.69" gradientUnits="userSpaceOnUse">
<stop stop-color="#008EFF"/>
<stop offset="0.320247" stop-color="#88CCFF"/>
<stop offset="1" stop-color="#BEE0FF"/>
</linearGradient>
<linearGradient id="paint29_linear_351_3249" x1="157.666" y1="317.525" x2="137.724" y2="268.329" gradientUnits="userSpaceOnUse">
<stop stop-color="#418CFF"/>
<stop offset="1" stop-color="#0646BD"/>
</linearGradient>
</defs>
</svg>
