<svg width="955" height="575" viewBox="0 0 955 575" fill="none" xmlns="http://www.w3.org/2000/svg">
<path opacity="0.3" d="M928.577 574.139C926.603 575.287 923.404 575.287 921.43 574.139C919.95 573.279 919.584 572.02 920.332 570.968L809.658 507V426.25L782.694 410.664V322.839L690.34 269.452L675.951 277.771L747.166 318.934V367.078L746.879 367.238L665.907 414.043V430.377L711.702 456.848C713.675 456.019 716.445 456.115 718.228 457.135C720.202 458.282 720.202 460.131 718.228 461.262C716.254 462.41 713.055 462.41 711.081 461.262C709.298 460.226 709.139 458.633 710.571 457.485L664.777 431.015V413.373L665.063 413.214L746.036 366.409V319.572L692.235 288.464V308.528L716.907 322.791C718.88 321.962 721.65 322.058 723.433 323.078C725.407 324.225 725.407 326.074 723.433 327.205C721.459 328.353 718.26 328.353 716.286 327.205C714.503 326.17 714.344 324.576 715.776 323.429L691.104 309.165V287.795L674.821 278.392L655.577 289.516V324.448L691.868 345.437V369.58L691.582 369.74L615.162 413.915C616.595 415.063 616.436 416.656 614.653 417.692C612.679 418.84 609.48 418.84 607.506 417.692C605.532 416.545 605.532 414.696 607.506 413.565C609.289 412.529 612.058 412.449 614.032 413.278L690.722 368.943V346.106L655.561 325.771V349.851L655.274 350.01L608.525 377.038C609.957 378.186 609.798 379.78 608.015 380.815C606.042 381.963 602.842 381.963 600.868 380.815C598.895 379.668 598.895 377.819 600.868 376.688C602.651 375.652 605.421 375.572 607.394 376.401L654.431 349.214V290.201L640.917 298.01L618.648 285.133L598.481 296.799V325.134L598.194 325.293L544.871 356.114V382.823C545.969 382.887 547.035 383.158 547.879 383.652C549.853 384.799 549.853 386.648 547.879 387.78C545.905 388.927 542.706 388.927 540.732 387.78C538.758 386.632 538.758 384.784 540.732 383.652C541.576 383.158 542.642 382.903 543.741 382.823V355.461L544.027 355.301L597.351 324.48V297.452L510.569 347.62V400.8L557.636 428.003H600.836L600.964 428.083L675.091 470.92C677.065 470.091 679.835 470.187 681.618 471.206C683.591 472.354 683.591 474.202 681.618 475.334C679.644 476.481 676.444 476.481 674.471 475.334C672.688 474.298 672.529 472.704 673.961 471.557L600.534 429.119H559.594L695.768 507.828C697.742 507 700.512 507.095 702.294 508.115C704.268 509.262 704.268 511.111 702.294 512.243C700.321 513.39 697.121 513.39 695.147 512.243C693.365 511.207 693.206 509.613 694.638 508.466L509.438 401.421V346.935L509.725 346.775L617.534 284.464L595.838 271.922L411.769 378.313V441.804L411.482 441.963L348.879 478.139C350.312 479.286 350.152 480.88 348.37 481.916C346.396 483.063 343.196 483.063 341.223 481.916C339.249 480.768 339.249 478.92 341.223 477.788C343.005 476.752 345.775 476.673 347.749 477.501L410.623 441.15V377.66L410.909 377.501L594.692 271.269L574.031 259.332L391.999 364.56H283.442L215.602 403.78V464.051C216.318 464.194 217.003 464.418 217.56 464.736C219.534 465.884 219.534 467.732 217.56 468.864C215.586 470.011 212.387 470.011 210.413 468.864C208.439 467.716 208.439 465.868 210.413 464.736C211.527 464.099 213.023 463.828 214.472 463.908V403.126L214.758 402.967L283.156 363.429H391.713L545.38 274.6H514.468L462.02 304.91H421.622L421.494 304.831L365.465 272.448C363.491 273.277 360.722 273.181 358.939 272.161C356.965 271.014 356.965 269.165 358.939 268.034C360.913 266.886 364.112 266.886 366.086 268.034C367.869 269.07 368.028 270.663 366.595 271.811L421.924 303.795H461.718L514.166 273.484H547.338L572.917 258.695L517.779 226.822L502.1 235.89V259.683L462.275 282.711C463.708 283.859 463.548 285.452 461.766 286.488C459.792 287.635 456.592 287.635 454.619 286.488C452.645 285.341 452.645 283.492 454.619 282.361C456.401 281.325 459.171 281.245 461.145 282.074L500.97 259.046V236.559L458.487 261.117H438.367L438.24 261.038L414.252 247.173C412.278 248.002 409.509 247.906 407.726 246.886C405.752 245.739 405.752 243.89 407.726 242.759C409.7 241.611 412.899 241.611 414.873 242.759C416.656 243.795 416.815 245.388 415.382 246.536L438.669 259.986H458.168L516.633 226.201L506.016 220.065L539.904 200.479L524.035 191.3H500.031L482.856 201.229C484.225 202.36 484.034 203.938 482.283 204.958C480.309 206.105 477.11 206.105 475.136 204.958C473.163 203.81 473.163 201.962 475.136 200.83C476.935 199.794 479.752 199.715 481.742 200.575L499.729 190.185H522.077L481.599 166.79L386.381 221.834H317.856L317.728 221.755L279.145 199.46C277.171 200.288 274.401 200.193 272.618 199.173C270.645 198.025 270.645 196.177 272.618 195.045C274.592 193.898 277.792 193.898 279.765 195.045C281.548 196.081 281.707 197.675 280.275 198.822L318.158 220.719H386.062L459.505 178.264H428.068L397.348 196.017C398.78 197.165 398.621 198.758 396.838 199.794C394.865 200.942 391.665 200.942 389.691 199.794C387.718 198.647 387.718 196.798 389.691 195.667C391.474 194.631 394.244 194.551 396.217 195.38L427.766 177.149H461.463L480.453 166.168L432.111 138.232H277.616L157.583 207.619C159.015 208.766 158.856 210.36 157.074 211.396C155.1 212.543 151.9 212.543 149.927 211.396C147.953 210.248 147.953 208.4 149.927 207.268C151.709 206.233 154.479 206.153 156.453 206.982L277.314 137.117H430.154L410.973 126.025H296.606L296.479 125.945L240.083 93.3393C238.109 94.168 235.34 94.0724 233.557 93.0524C231.583 91.905 231.583 90.0564 233.557 88.9249C235.531 87.7775 238.73 87.7775 240.704 88.9249C242.487 89.9608 242.646 91.5544 241.213 92.7018L296.924 124.893H411.291L411.419 124.973L541.035 199.89L555.424 191.571L419.155 112.798H319.495L319.368 112.718L199 43.1398H32.2329L0 61.6738V60.367L31.9304 41.9126H199.303L199.43 41.9923L274.974 85.658V59.8092L225.184 31.0281C223.211 31.8568 220.441 31.7612 218.658 30.7413C216.684 29.5939 216.684 27.7452 218.658 26.6138C220.632 25.4663 223.831 25.4663 225.805 26.6138C227.588 27.6496 227.747 29.2433 226.314 30.3907L276.104 59.1717V86.168H275.85L319.814 111.586H419.473L419.6 111.666L556.57 190.838L572.917 181.388L307.159 27.7771V0.0159657H308.289V27.1237L574.047 180.734L594.247 169.053L457.165 89.8173V75.6499L432.86 61.5941V29.0042L385.728 1.75302C383.754 2.58171 380.984 2.48606 379.202 1.46613C378.485 1.05179 378.024 0.54185 377.833 1.37231e-05H387.686C387.542 0.398423 387.272 0.764963 386.858 1.09963L433.99 28.3508V60.9407L457.165 74.3431V22.1675L470.839 14.2631L446.198 0.0159657H448.459L471.969 13.6097L495.479 0.0159657H497.739L458.28 22.8209V89.164L595.361 168.4L613.746 157.77L516.729 101.69C514.755 102.519 511.985 102.423 510.202 101.403C508.229 100.256 508.229 98.4071 510.202 97.2756C512.176 96.1282 515.376 96.1282 517.349 97.2756C519.132 98.3115 519.291 99.9051 517.859 101.053L614.876 157.133L632.624 146.87L516.569 79.7934H485.037C484.846 80.3352 484.384 80.8611 483.652 81.2914C481.678 82.4388 478.479 82.4388 476.505 81.2914C474.531 80.144 474.531 78.2953 476.505 77.1639C478.479 76.0164 481.678 76.0164 483.652 77.1639C484.384 77.5941 484.846 78.1201 485.037 78.6619H516.872L516.999 78.7416L633.738 146.216L640.901 142.073L646.408 145.26L674.216 129.196V106.821L651.247 93.5465V93.6102H615.194L615.067 93.5305L575.512 70.6619C573.538 71.4905 570.768 71.3949 568.986 70.375C567.012 69.2276 567.012 67.379 568.986 66.2475C570.959 65.1001 574.159 65.1001 576.133 66.2475C577.915 67.2834 578.074 68.877 576.642 70.0244L615.496 92.4787H649.385L581.847 53.4506C579.857 54.343 577.008 54.2793 575.178 53.2275C573.204 52.08 573.204 50.2314 575.178 49.1C577.151 47.9525 580.351 47.9525 582.324 49.1C584.059 50.1039 584.266 51.6498 582.945 52.7972L667.18 101.483V90.7257L617.072 61.7534V41.307L576.276 17.7212C574.302 18.5499 571.532 18.4543 569.75 17.4344C567.776 16.287 567.776 14.4384 569.75 13.3069C571.723 12.1595 574.923 12.1595 576.897 13.3069C578.679 14.3428 578.839 15.9364 577.406 17.0838L618.202 40.6696V61.116L668.311 90.0883V102.152L675.33 106.216V129.897L647.522 145.977L665.796 156.543L723.003 123.475V85.8811L684.148 63.4267C682.159 64.3192 679.31 64.2554 677.479 63.2036C675.505 62.0562 675.505 60.2076 677.479 59.0761C679.453 57.9287 682.652 57.9287 684.626 59.0761C686.361 60.0801 686.568 61.6259 685.247 62.7733L722.987 84.5902V54.2155L693.174 36.9724V0.095628H694.304V36.319L722.987 52.9088V0.11158H724.117V124.16L666.91 157.228L687.427 169.085L762.208 125.865V22.9165L798.149 2.13548V0.11158H799.28V2.78888L763.338 23.5699V126.519L688.558 169.738L703.759 178.535L804.676 120.208V32.3827L860.466 0.127483H862.727L805.806 33.0361V120.861L704.889 179.189L729.529 193.436L897.442 96.3832V52.6856L954.984 19.4264V20.7332L898.573 53.339V97.0365L804.134 151.635H878.819L954.984 107.602V108.909L879.121 152.766H802.161L730.659 194.089L759.311 210.647L820.768 175.125H919.456L954.984 154.599V155.905L947.201 160.4H954.984V161.531H945.243L919.775 176.256H821.086L803.88 186.2H845.838L845.965 186.28L867.008 198.44H954.698L954.984 198.28V199.587H868.966L892.651 213.276C894.625 212.448 897.395 212.543 899.178 213.563C901.151 214.711 901.151 216.559 899.178 217.691C897.204 218.838 894.004 218.838 892.031 217.691C890.248 216.655 890.089 215.061 891.521 213.914L845.52 187.316H801.906L760.425 211.284L775.753 220.145L765.885 225.85H794.552L832.022 204.193C830.589 203.045 830.748 201.452 832.531 200.416C834.505 199.268 837.704 199.268 839.678 200.416C841.652 201.563 841.652 203.412 839.678 204.543C837.895 205.579 835.126 205.659 833.152 204.83L794.854 226.966H763.927L742.948 239.093L755.841 246.552H778.714L798.834 258.185H813.844L847.748 238.583C846.22 237.436 846.347 235.794 848.162 234.743C850.136 233.595 853.335 233.595 855.309 234.743C857.283 235.89 857.283 237.739 855.309 238.87C853.558 239.874 850.868 239.986 848.894 239.221L814.146 259.301H798.531L778.412 247.667H757.799L799.041 271.508H821.309L867.725 244.687H954.968V245.818H868.027L821.612 272.639H798.738L798.611 272.56L741.817 239.731L726.919 248.336L791.098 285.436H836.367L873.71 263.858H954.984V264.99H874.028L838.643 285.436H954.984V286.568H790.811L790.684 286.488L725.82 248.99L708.884 258.775L798.372 310.504H954.984V311.636H840.856L954.984 377.612V378.919L838.596 311.636H799.2L884.04 360.672V371.477L924.645 394.935C926.619 394.106 929.389 394.202 931.172 395.222C933.145 396.369 933.145 398.218 931.172 399.349C929.198 400.497 925.998 400.497 924.025 399.349C922.242 398.314 922.083 396.72 923.515 395.572L901.406 382.791V412.417L955 443.397V444.704L900.276 413.071V382.138L882.91 372.098V361.293L797.369 311.843L797.656 311.349L707.754 259.38L691.407 268.831L783.76 322.217V410.043L954.984 509.023V510.33L810.724 426.935V506.346L921.191 570.171C921.271 570.123 921.335 570.06 921.414 570.012C923.388 568.864 926.587 568.864 928.561 570.012C930.535 571.159 930.535 573.008 928.561 574.139H928.577ZM773.573 220.033L640.917 143.348L508.276 220.017L640.933 296.703L773.573 220.033V220.033Z" fill="#C9B69B"/>
</svg>
