<svg width="259" height="329" viewBox="0 0 259 329" fill="none" xmlns="http://www.w3.org/2000/svg">
<path d="M259 283.505C254.365 287.188 249.951 286.698 246.73 286.344C243.84 286.026 242.484 285.943 240.645 287.401C238.811 288.859 238.59 290.188 238.275 293.057C237.923 296.25 237.44 300.625 232.805 304.307C228.17 307.99 223.756 307.5 220.535 307.146C217.645 306.828 216.289 306.745 214.45 308.203C212.616 309.661 212.395 310.99 212.08 313.854C211.728 317.047 211.244 321.422 206.61 325.104C201.975 328.786 197.561 328.297 194.34 327.943C191.45 327.625 190.094 327.542 188.255 329L183 322.495C187.635 318.813 192.049 319.302 195.27 319.656C198.16 319.974 199.516 320.057 201.355 318.599C203.189 317.141 203.41 315.813 203.725 312.948C204.077 309.755 204.56 305.38 209.195 301.698C213.83 298.016 218.244 298.505 221.465 298.859C224.355 299.177 225.711 299.26 227.55 297.802C229.389 296.344 229.605 295.016 229.92 292.146C230.272 288.953 230.756 284.578 235.39 280.896C240.025 277.214 244.439 277.703 247.66 278.057C250.55 278.375 251.906 278.458 253.745 277L259 283.505Z" fill="#EFECFF"/>
<path d="M253.467 276.391C254.875 278.192 254.612 280.884 252.503 281.769C249.247 283.134 246.246 282.791 243.892 282.523C241.039 282.2 239.702 282.115 237.887 283.601C236.077 285.087 235.859 286.441 235.548 289.366C235.2 292.62 234.723 297.079 230.15 300.832C225.576 304.586 221.22 304.087 218.041 303.726C215.189 303.402 213.851 303.317 212.036 304.803C210.226 306.29 210.009 307.643 209.697 310.563C209.35 313.817 208.873 318.276 204.299 322.029C199.725 325.782 195.369 325.283 192.191 324.922C191.423 324.835 190.765 324.765 190.177 324.739C187.818 324.632 184.988 324.469 183.533 322.609C182.125 320.808 182.388 318.116 184.497 317.231C187.753 315.866 190.754 316.209 193.109 316.477C195.961 316.8 197.298 316.885 199.113 315.399C200.923 313.913 201.141 312.559 201.452 309.639C201.8 306.385 202.277 301.926 206.85 298.173C211.424 294.42 215.78 294.919 218.959 295.28C221.811 295.604 223.149 295.689 224.964 294.202C226.779 292.716 226.992 291.362 227.303 288.437C227.65 285.183 228.127 280.724 232.701 276.971C237.275 273.218 241.631 273.717 244.809 274.078C245.577 274.165 246.235 274.235 246.823 274.261C249.182 274.368 252.012 274.531 253.467 276.391Z" fill="url(#paint0_linear_187_3327)" fill-opacity="0.5"/>
<circle cx="6" cy="6" r="6" fill="#FBD95E"/>
<circle cx="50" cy="32" r="4" fill="#7FFA54"/>
<circle cx="18" cy="51" r="2" fill="white"/>
<defs>
<linearGradient id="paint0_linear_187_3327" x1="218.5" y1="273" x2="218.5" y2="326" gradientUnits="userSpaceOnUse">
<stop stop-color="#9888F4"/>
<stop offset="1" stop-color="#907EF3"/>
</linearGradient>
</defs>
</svg>
