<svg width="854" height="385" viewBox="0 0 854 385" fill="none" xmlns="http://www.w3.org/2000/svg">
<path d="M96.6683 323.112C98.5065 325.399 98.1604 328.862 95.4377 329.954C91.3027 331.614 87.4942 331.19 84.5011 330.859C80.8504 330.456 79.1379 330.35 76.8148 332.201C74.4982 334.052 74.2195 335.738 73.8212 339.38C73.3765 343.433 72.7658 348.986 66.9114 353.659C61.057 358.333 55.4814 357.712 51.4126 357.262C47.7619 356.859 46.0494 356.753 43.7262 358.604C41.4096 360.455 41.1309 362.141 40.7326 365.776C40.2879 369.829 39.6772 375.382 33.8229 380.055C27.9685 384.729 22.3929 384.108 18.324 383.658C17.2467 383.539 16.3381 383.446 15.5329 383.421C12.6165 383.333 9.15986 383.162 7.33173 380.888C5.49351 378.601 5.83957 375.138 8.56235 374.046C12.6973 372.386 16.5057 372.81 19.4988 373.141C23.1495 373.544 24.8621 373.65 27.1852 371.799C29.5018 369.948 29.7805 368.262 30.1788 364.626C30.6235 360.574 31.2342 355.021 37.0886 350.347C42.9429 345.674 48.5186 346.295 52.5874 346.745C56.2381 347.148 57.9506 347.254 60.2738 345.403C62.597 343.552 62.8691 341.866 63.2674 338.224C63.7121 334.171 64.3228 328.618 70.1771 323.945C76.0315 319.271 81.6071 319.892 85.676 320.342C86.7533 320.461 87.6619 320.554 88.4671 320.579C91.3835 320.667 94.8401 320.838 96.6683 323.112Z" fill="#C3E3C7"/>
<path d="M92.6683 319.112C94.5065 321.399 94.1604 324.862 91.4377 325.954C87.3027 327.614 83.4943 327.19 80.5012 326.859C76.8505 326.456 75.1379 326.35 72.8148 328.201C70.4982 330.052 70.2195 331.738 69.8212 335.38C69.3765 339.433 68.7658 344.986 62.9114 349.659C57.0571 354.333 51.4814 353.712 47.4126 353.262C43.7619 352.859 42.0494 352.753 39.7262 354.604C37.4097 356.455 37.1309 358.141 36.7326 361.776C36.2879 365.829 35.6772 371.382 29.8229 376.055C23.9685 380.729 18.3929 380.108 14.324 379.658C13.2467 379.539 12.3381 379.446 11.5329 379.421C8.61648 379.333 5.15986 379.162 3.33173 376.888C1.49351 374.601 1.83957 371.138 4.56235 370.046C8.69733 368.386 12.5058 368.81 15.4989 369.141C19.1496 369.544 20.8621 369.65 23.1852 367.799C25.5018 365.948 25.7805 364.262 26.1788 360.626C26.6235 356.574 27.2342 351.021 33.0886 346.347C38.943 341.674 44.5186 342.295 48.5874 342.745C52.2381 343.148 53.9506 343.254 56.2738 341.403C58.597 339.552 58.8691 337.866 59.2674 334.224C59.7121 330.171 60.3228 324.618 66.1771 319.945C72.0315 315.271 77.6071 315.892 81.676 316.342C82.7533 316.461 83.6619 316.554 84.4671 316.579C87.3835 316.667 90.8401 316.838 92.6683 319.112Z" fill="url(#paint0_linear_187_3720)"/>
<circle cx="846" cy="30" r="8" fill="#6640FF"/>
<circle cx="118" cy="6" r="6" fill="#6640FF"/>
<defs>
<linearGradient id="paint0_linear_187_3720" x1="48" y1="315" x2="48" y2="381" gradientUnits="userSpaceOnUse">
<stop stop-color="#D5CDFF"/>
<stop offset="1" stop-color="#907EF3"/>
</linearGradient>
</defs>
</svg>
