<svg width="1919" height="545" viewBox="0 0 1919 545" fill="none" xmlns="http://www.w3.org/2000/svg">
<path d="M405.868 243.413C403.626 243.413 401.817 245.222 401.817 247.463C401.817 249.461 403.275 251.136 405.193 251.46V405.598C405.193 421.044 392.636 433.601 377.19 433.601H373.031V348.836C374.948 348.512 376.407 346.864 376.407 344.839C376.407 342.598 374.597 340.788 372.356 340.788C370.115 340.788 368.305 342.598 368.305 344.839C368.305 346.837 369.764 348.512 371.681 348.836V433.601H239.011V342.436C239.011 326.989 251.568 314.433 267.014 314.433H320.725C336.9 314.433 350.078 301.255 350.078 285.08V115.684C351.995 115.36 353.453 113.713 353.453 111.688C353.453 109.447 351.644 107.637 349.403 107.637C347.161 107.637 345.352 109.447 345.352 111.688C345.352 113.713 346.81 115.36 348.728 115.684V285.107C348.728 300.553 336.171 313.109 320.725 313.109H267.014C250.839 313.109 237.661 326.287 237.661 342.463V433.628H176.362V257.212H219.136C235.311 257.212 248.489 244.034 248.489 227.858V195.292C250.407 194.968 251.865 193.32 251.865 191.295C251.865 189.054 250.056 187.245 247.814 187.245C245.573 187.245 243.764 189.054 243.764 191.295C243.764 193.293 245.222 194.968 247.139 195.292V227.885C247.139 243.332 234.582 255.888 219.136 255.888H176.389V97.1058C178.306 96.7818 179.765 95.1345 179.765 93.1092C179.765 90.8679 177.955 89.0587 175.714 89.0587C173.473 89.0587 171.663 90.8679 171.663 93.1092C171.663 95.1075 173.122 96.7818 175.039 97.1058V255.888H107.529V8.04714C109.447 7.7231 110.905 6.07586 110.905 4.05058C110.905 1.80926 109.096 0 106.854 0C104.613 0 102.804 1.80926 102.804 4.05058C102.804 6.04886 104.262 7.7231 106.179 8.04714V255.861H85.1701C68.9948 255.861 55.8169 269.039 55.8169 285.215V545.154H57.1671V285.215C57.1671 269.768 69.7239 257.212 85.1701 257.212H106.179V545.126H107.529V257.212H175.039V433.601H153.139C136.963 433.601 123.786 446.779 123.786 462.954V545.126H125.136V462.954C125.136 447.508 137.693 434.951 153.139 434.951H175.039V449.506C175.039 465.681 188.217 478.859 204.392 478.859H237.688V545.154H239.038V478.859H291.641C307.088 478.859 319.644 491.416 319.644 506.862V545.154H320.995V506.862C320.995 490.687 307.817 477.509 291.641 477.509H239.011V434.978H371.681V545.154H373.031V434.978H377.19C393.365 434.978 406.543 421.8 406.543 405.625V251.46C408.46 251.136 409.918 249.488 409.918 247.463C409.945 245.222 408.109 243.413 405.868 243.413ZM237.661 477.509H204.392C188.946 477.509 176.389 464.952 176.389 449.506V434.951H237.688V477.509H237.661ZM1296.48 374.273C1296.48 376.515 1294.67 378.324 1292.43 378.324C1290.43 378.324 1288.76 376.866 1288.43 374.948H1209.91C1197.76 374.948 1187.87 384.832 1187.87 396.983V473.89H1202.24C1218.41 473.89 1231.59 487.068 1231.59 503.244V545.154H1230.24V503.244C1230.24 487.797 1217.68 475.241 1202.24 475.241H1187.87V545.154H1186.52V475.241H1172.16C1155.98 475.241 1142.8 462.063 1142.8 445.887V393.689C1140.89 393.365 1139.43 391.718 1139.43 389.692C1139.43 387.451 1141.24 385.642 1143.48 385.642C1145.72 385.642 1147.53 387.451 1147.53 389.692C1147.53 391.691 1146.07 393.365 1144.15 393.689V445.887C1144.15 461.334 1156.71 473.89 1172.16 473.89H1186.52V396.983C1186.52 384.076 1197.03 373.598 1209.91 373.598H1288.43C1288.76 371.681 1290.41 370.223 1292.43 370.223C1294.67 370.223 1296.48 372.032 1296.48 374.273ZM1846.58 287.672H1790.25V227.372H1817.93C1834.1 227.372 1847.28 214.194 1847.28 198.019V155.866C1849.2 155.542 1850.65 153.895 1850.65 151.87C1850.65 149.628 1848.84 147.819 1846.6 147.819C1844.36 147.819 1842.55 149.628 1842.55 151.87C1842.55 153.868 1844.01 155.542 1845.93 155.866V198.019C1845.93 213.465 1833.37 226.022 1817.93 226.022H1790.25V33.7818C1792.16 33.4578 1793.62 31.8105 1793.62 29.7852C1793.62 27.5439 1791.81 25.7347 1789.57 25.7347C1787.33 25.7347 1785.52 27.5439 1785.52 29.7852C1785.52 31.7835 1786.98 33.4578 1788.9 33.7818V226.022H1738.16C1721.98 226.022 1708.8 239.2 1708.8 255.375V371.033H1680.64C1665.19 371.033 1652.63 358.476 1652.63 343.03V97.0788C1654.55 96.7548 1656.01 95.1075 1656.01 93.0822C1656.01 90.8409 1654.2 89.0317 1651.96 89.0317C1649.72 89.0317 1647.91 90.8409 1647.91 93.0822C1647.91 95.0805 1649.37 96.7548 1651.28 97.0788V343.03C1651.28 359.205 1664.46 372.383 1680.64 372.383H1708.8V472.162H1601.3V198.586C1601.3 185.678 1590.8 175.201 1577.92 175.201H1499.39C1499.06 173.284 1497.42 171.825 1495.39 171.825C1493.15 171.825 1491.34 173.635 1491.34 175.876C1491.34 178.117 1493.15 179.927 1495.39 179.927C1497.39 179.927 1499.06 178.468 1499.39 176.551H1577.92C1590.07 176.551 1599.95 186.435 1599.95 198.586V472.162H1546.64V266.42C1548.56 266.096 1550.02 264.449 1550.02 262.423C1550.02 260.182 1548.21 258.373 1545.97 258.373C1543.73 258.373 1541.92 260.182 1541.92 262.423C1541.92 264.422 1543.38 266.096 1545.29 266.42V472.162H1534.71C1518.53 472.162 1505.36 485.34 1505.36 501.515V545.154H1506.71V501.515C1506.71 486.069 1519.26 473.512 1534.71 473.512H1545.29V545.154H1546.64V473.512H1599.95V545.154H1601.3V473.512H1708.8V545.154H1710.15V473.512H1760.89C1777.07 473.512 1790.25 460.334 1790.25 444.159V372.383H1805.18C1820.63 372.383 1833.18 384.94 1833.18 400.386V545.154H1834.53V400.386C1834.53 384.211 1821.35 371.033 1805.18 371.033H1790.25V289.022H1846.58C1862.75 289.022 1875.9 302.173 1875.9 318.348V545.126H1877.25V318.375C1877.25 301.444 1863.51 287.672 1846.58 287.672ZM1788.9 444.159C1788.9 459.605 1776.34 472.162 1760.89 472.162H1710.15V372.383H1788.9V444.159ZM1788.9 287.672H1740.24C1739.91 285.755 1738.26 284.296 1736.24 284.296C1734 284.296 1732.19 286.106 1732.19 288.347C1732.19 290.588 1734 292.398 1736.24 292.398C1738.24 292.398 1739.91 290.939 1740.24 289.022H1788.9V371.033H1710.15V255.375C1710.15 239.929 1722.71 227.372 1738.16 227.372H1788.9V287.672ZM1048.51 439.568V545.154H1047.15V439.568C1047.15 423.393 1034 410.242 1017.83 410.242H1003.19V461.199C1003.19 477.374 990.015 490.552 973.839 490.552H867.957V545.154H866.607V490.552H831.772V545.154H830.422V490.552H759.402V545.154H758.052V490.552H749.762C734.315 490.552 721.759 503.109 721.759 518.555V545.154H720.408V518.555C720.408 502.379 733.586 489.202 749.762 489.202H758.052V393.689C756.135 393.365 754.676 391.718 754.676 389.692C754.676 387.451 756.486 385.642 758.727 385.642C760.968 385.642 762.777 387.451 762.777 389.692C762.777 391.691 761.319 393.365 759.402 393.689V489.202H830.422V465.087C828.505 464.763 827.047 463.116 827.047 461.091C827.047 458.849 828.856 457.04 831.097 457.04C833.338 457.04 835.148 458.849 835.148 461.091C835.148 463.089 833.69 464.763 831.772 465.087V489.202H866.607V316.161C864.69 315.837 863.232 314.19 863.232 312.164C863.232 309.923 865.041 308.114 867.282 308.114C869.524 308.114 871.333 309.923 871.333 312.164C871.333 314.163 869.875 315.837 867.957 316.161V489.202H973.839C989.286 489.202 1001.84 476.645 1001.84 461.199V410.242H911.515C911.19 412.16 909.543 413.618 907.518 413.618C905.277 413.618 903.467 411.809 903.467 409.567C903.467 407.326 905.277 405.517 907.518 405.517C909.516 405.517 911.19 406.975 911.515 408.892H1001.84V344.11C999.925 343.786 998.467 342.139 998.467 340.113C998.467 337.872 1000.28 336.063 1002.52 336.063C1004.76 336.063 1006.57 337.872 1006.57 340.113C1006.57 342.112 1005.11 343.786 1003.19 344.11V408.892H1017.83C1034.73 408.892 1048.51 422.664 1048.51 439.568ZM680.875 436.112V545.154H679.525V436.112C679.525 420.666 666.968 408.109 651.522 408.109H621.412C605.237 408.109 592.059 394.931 592.059 378.756V259.048H560.789C548.637 259.048 538.754 268.931 538.754 281.083V545.154H537.403V281.083C537.403 268.175 547.908 257.698 560.789 257.698H592.059V229.074C590.142 228.75 588.684 227.102 588.684 225.077C588.684 222.836 590.493 221.026 592.734 221.026C594.976 221.026 596.785 222.836 596.785 225.077C596.785 227.075 595.327 228.75 593.409 229.074V257.671H639.343C639.667 255.753 641.314 254.295 643.339 254.295C645.581 254.295 647.39 256.104 647.39 258.346C647.39 260.587 645.581 262.396 643.339 262.396C641.341 262.396 639.667 260.938 639.343 259.021H593.409V378.729C593.409 394.175 605.966 406.732 621.412 406.732H651.522C667.697 406.759 680.875 419.937 680.875 436.112ZM1087.69 420.909C1087.69 422.907 1086.23 424.581 1084.31 424.905V545.154H1082.96V424.905C1081.04 424.581 1079.59 422.934 1079.59 420.909C1079.59 418.668 1081.4 416.858 1083.64 416.858C1085.88 416.858 1087.69 418.668 1087.69 420.909ZM504.702 369.385C504.702 371.384 503.244 373.058 501.326 373.382V545.154H499.976V373.382C498.059 373.058 496.601 371.411 496.601 369.385C496.601 367.144 498.41 365.335 500.651 365.335C502.865 365.308 504.702 367.144 504.702 369.385ZM622.519 461.091C622.519 463.089 621.061 464.763 619.144 465.087V545.154H617.794V465.087C615.877 464.763 614.418 463.116 614.418 461.091C614.418 458.849 616.228 457.04 618.469 457.04C620.71 457.04 622.519 458.849 622.519 461.091ZM1318.87 461.091C1318.87 463.089 1317.41 464.763 1315.49 465.087V545.154H1314.14V465.087C1312.22 464.763 1310.77 463.116 1310.77 461.091C1310.77 458.849 1312.58 457.04 1314.82 457.04C1317.06 457.04 1318.87 458.849 1318.87 461.091ZM1366.64 505.161C1366.64 507.186 1365.18 508.833 1363.26 509.157V545.154H1361.91V509.157C1359.99 508.833 1358.54 507.186 1358.54 505.161C1358.54 502.92 1360.35 501.11 1362.59 501.11C1364.83 501.083 1366.64 502.92 1366.64 505.161ZM8.12816 128.835C8.12816 130.834 6.66995 132.508 4.75268 132.832V545.154H3.40248V132.832C1.45821 132.508 0 130.834 0 128.835C0 126.594 1.80926 124.785 4.05058 124.785C6.29189 124.785 8.12816 126.594 8.12816 128.835ZM467.247 216.328C467.247 218.326 465.789 220 463.872 220.324V545.154H462.522V220.324C460.604 220 459.146 218.353 459.146 216.328C459.146 214.086 460.956 212.277 463.197 212.277C465.411 212.25 467.247 214.086 467.247 216.328ZM1920 59.3274C1920 61.3257 1918.54 63 1916.62 63.324V545.154H1915.27V63.324C1913.36 63 1911.9 61.3527 1911.9 59.3274C1911.9 57.0861 1913.71 55.2769 1915.95 55.2769C1918.16 55.2499 1920 57.0861 1920 59.3274ZM1470.17 444.537V545.154H1468.82V444.537C1468.82 429.091 1456.26 416.534 1440.82 416.534H1429.34V545.154H1427.99V416.534H1402.77C1386.59 416.534 1373.42 403.356 1373.42 387.181V220.324C1371.5 220 1370.04 218.353 1370.04 216.328C1370.04 214.086 1371.85 212.277 1374.09 212.277C1376.33 212.277 1378.14 214.086 1378.14 216.328C1378.14 218.326 1376.68 220 1374.77 220.324V387.181C1374.77 402.627 1387.32 415.184 1402.77 415.184H1427.99V310.49C1426.07 310.166 1424.61 308.519 1424.61 306.494C1424.61 304.252 1426.42 302.443 1428.67 302.443C1430.91 302.443 1432.72 304.252 1432.72 306.494C1432.72 308.492 1431.26 310.166 1429.34 310.49V415.184H1440.82C1456.99 415.184 1470.17 428.335 1470.17 444.537Z" fill="url(#paint0_linear_351_3449)"/>
<defs>
<linearGradient id="paint0_linear_351_3449" x1="959.997" y1="545.149" x2="959.997" y2="0" gradientUnits="userSpaceOnUse">
<stop stop-color="#EADAC4"/>
<stop offset="1" stop-color="#FBF3E8"/>
</linearGradient>
</defs>
</svg>
